G04 #@! TF.GenerationSoftware,KiCad,Pcbnew,6.0.11+dfsg-1*
G04 #@! TF.CreationDate,2023-03-13T19:25:43+00:00*
G04 #@! TF.ProjectId,TP770_IDE,54503737-305f-4494-9445-2e6b69636164,rev?*
G04 #@! TF.SameCoordinates,PX6cb8080PY3197500*
G04 #@! TF.FileFunction,Copper,L2,Bot*
G04 #@! TF.FilePolarity,Positive*
%FSLAX46Y46*%
G04 Gerber Fmt 4.6, Leading zero omitted, Abs format (unit mm)*
G04 Created by KiCad (PCBNEW 6.0.11+dfsg-1) date 2023-03-13 19:25:43*
%MOMM*%
%LPD*%
G01*
G04 APERTURE LIST*
G04 Aperture macros list*
%AMRoundRect*
0 Rectangle with rounded corners*
0 $1 Rounding radius*
0 $2 $3 $4 $5 $6 $7 $8 $9 X,Y pos of 4 corners*
0 Add a 4 corners polygon primitive as box body*
4,1,4,$2,$3,$4,$5,$6,$7,$8,$9,$2,$3,0*
0 Add four circle primitives for the rounded corners*
1,1,$1+$1,$2,$3*
1,1,$1+$1,$4,$5*
1,1,$1+$1,$6,$7*
1,1,$1+$1,$8,$9*
0 Add four rect primitives between the rounded corners*
20,1,$1+$1,$2,$3,$4,$5,0*
20,1,$1+$1,$4,$5,$6,$7,0*
20,1,$1+$1,$6,$7,$8,$9,0*
20,1,$1+$1,$8,$9,$2,$3,0*%
G04 Aperture macros list end*
G04 #@! TA.AperFunction,ConnectorPad*
%ADD10RoundRect,0.125000X2.125000X0.125000X-2.125000X0.125000X-2.125000X-0.125000X2.125000X-0.125000X0*%
G04 #@! TD*
G04 #@! TA.AperFunction,ConnectorPad*
%ADD11RoundRect,0.125000X2.375000X0.125000X-2.375000X0.125000X-2.375000X-0.125000X2.375000X-0.125000X0*%
G04 #@! TD*
G04 #@! TA.AperFunction,ViaPad*
%ADD12C,0.800000*%
G04 #@! TD*
G04 #@! TA.AperFunction,Conductor*
%ADD13C,0.250000*%
G04 #@! TD*
G04 #@! TA.AperFunction,Conductor*
%ADD14C,0.400000*%
G04 #@! TD*
G04 APERTURE END LIST*
D10*
X68250000Y-40500000D03*
D11*
X68500000Y-39500000D03*
X68500000Y-38500000D03*
X68500000Y-37500000D03*
X68500000Y-36500000D03*
X68500000Y-35500000D03*
X68500000Y-34500000D03*
X68500000Y-33500000D03*
X68500000Y-32500000D03*
X68500000Y-31500000D03*
X68500000Y-30500000D03*
X68500000Y-29500000D03*
X68500000Y-28500000D03*
X68500000Y-27500000D03*
X68500000Y-26500000D03*
X68500000Y-25500000D03*
X68500000Y-24500000D03*
X68500000Y-23500000D03*
X68500000Y-22500000D03*
X68500000Y-21500000D03*
X68500000Y-20500000D03*
X68500000Y-19500000D03*
X68500000Y-18500000D03*
X68500000Y-17500000D03*
X68500000Y-16500000D03*
X68500000Y-15500000D03*
X68500000Y-14500000D03*
X68500000Y-13500000D03*
X68500000Y-12500000D03*
D10*
X68250000Y-11500000D03*
D12*
X54750000Y-39500000D03*
X57250000Y-39500000D03*
X50750000Y-39250000D03*
X49068000Y-38932000D03*
X61000000Y-37750000D03*
X56000000Y-38500000D03*
X57500000Y-35500000D03*
X64250000Y-27750000D03*
X43000000Y-35750000D03*
X41500000Y-35750000D03*
X63000000Y-15250000D03*
X55750000Y-23250000D03*
X53000000Y-25250000D03*
X48750000Y-26250000D03*
X53000000Y-24000000D03*
X48500000Y-21000000D03*
X53000000Y-22750000D03*
X49237347Y-19337000D03*
X60250000Y-19684315D03*
X53000000Y-20250000D03*
X57750000Y-19000000D03*
X53000000Y-19000000D03*
X64250000Y-26250000D03*
X62000000Y-20250000D03*
X53000000Y-17750000D03*
X62000000Y-19000000D03*
X53000000Y-16500000D03*
X63874822Y-29225000D03*
X53000000Y-15250000D03*
X53500000Y-31000000D03*
X51250000Y-14250000D03*
X50500000Y-13500000D03*
X59250000Y-41750000D03*
X52500000Y-13000000D03*
X64750000Y-19750000D03*
X54750000Y-31000000D03*
X65000000Y-14250000D03*
X65000000Y-31250000D03*
X65000000Y-25500000D03*
X65000000Y-28500000D03*
X64500000Y-17500000D03*
X62500000Y-27000000D03*
X53000000Y-27000000D03*
X56500000Y-41000000D03*
X56250000Y-14500000D03*
X60500000Y-12500000D03*
X62000000Y-31250000D03*
X49750000Y-30250000D03*
X49750000Y-27000000D03*
X52625000Y-34250000D03*
X43000000Y-40000000D03*
X48500000Y-10993363D03*
X54750000Y-34250000D03*
X48825000Y-42575000D03*
X65000000Y-37250000D03*
X48500000Y-24250000D03*
X58950000Y-39375000D03*
X63500000Y-36475000D03*
X62500000Y-44000000D03*
X40750000Y-43250000D03*
X40750000Y-22750000D03*
X59325000Y-23825000D03*
X63800000Y-12500000D03*
X48175000Y-32525000D03*
X64250000Y-34000000D03*
X58750000Y-34250000D03*
X49750000Y-34250000D03*
X63750000Y-14250000D03*
X43000000Y-26500000D03*
X43000000Y-28950000D03*
X53000000Y-21500000D03*
D13*
X54750000Y-39500000D02*
X57250000Y-39500000D01*
X61750000Y-32500000D02*
X68500000Y-32500000D01*
X59500000Y-30250000D02*
X61750000Y-32500000D01*
X52000000Y-30250000D02*
X59500000Y-30250000D01*
X51750000Y-30500000D02*
X52000000Y-30250000D01*
X50750000Y-39250000D02*
X51750000Y-38250000D01*
X51750000Y-38250000D02*
X51750000Y-30500000D01*
X63363590Y-30500000D02*
X68500000Y-30500000D01*
X62613590Y-29750000D02*
X63363590Y-30500000D01*
X51750000Y-29750000D02*
X62613590Y-29750000D01*
X51250000Y-38000000D02*
X51250000Y-30250000D01*
X51250000Y-30250000D02*
X51750000Y-29750000D01*
X49500000Y-38500000D02*
X50750000Y-38500000D01*
X49068000Y-38932000D02*
X49500000Y-38500000D01*
X50750000Y-38500000D02*
X51250000Y-38000000D01*
X60250000Y-38500000D02*
X56000000Y-38500000D01*
X60250000Y-38500000D02*
X61000000Y-37750000D01*
X57500000Y-35500000D02*
X68500000Y-35500000D01*
X64250000Y-27750000D02*
X64565685Y-27500000D01*
X64500000Y-27500000D02*
X64250000Y-27750000D01*
X68500000Y-27500000D02*
X64500000Y-27500000D01*
X41500000Y-35750000D02*
X43000000Y-35750000D01*
X63250000Y-15500000D02*
X63000000Y-15250000D01*
X68500000Y-15500000D02*
X63250000Y-15500000D01*
X56500000Y-22500000D02*
X68500000Y-22500000D01*
X55750000Y-23250000D02*
X56500000Y-22500000D01*
X62750000Y-23500000D02*
X68500000Y-23500000D01*
X53000000Y-25250000D02*
X61000000Y-25250000D01*
X61000000Y-25250000D02*
X62750000Y-23500000D01*
X65573002Y-19500000D02*
X68500000Y-19500000D01*
X65073002Y-19000000D02*
X65573002Y-19500000D01*
X57000000Y-12000000D02*
X64000000Y-19000000D01*
X50250000Y-24750000D02*
X50250000Y-15250000D01*
X64000000Y-19000000D02*
X65073002Y-19000000D01*
X48750000Y-26250000D02*
X50250000Y-24750000D01*
X50750000Y-12000000D02*
X57000000Y-12000000D01*
X50250000Y-15250000D02*
X49750000Y-14750000D01*
X49750000Y-14750000D02*
X49750000Y-13000000D01*
X49750000Y-13000000D02*
X50750000Y-12000000D01*
X62250000Y-22000000D02*
X55000000Y-22000000D01*
X68500000Y-21500000D02*
X62750000Y-21500000D01*
X55000000Y-22000000D02*
X53000000Y-24000000D01*
X62750000Y-21500000D02*
X62250000Y-22000000D01*
X57500000Y-11000000D02*
X63000000Y-16500000D01*
X63000000Y-16500000D02*
X68500000Y-16500000D01*
X50250000Y-11000000D02*
X57500000Y-11000000D01*
X48500000Y-21000000D02*
X48500000Y-12750000D01*
X48500000Y-12750000D02*
X50250000Y-11000000D01*
X63000000Y-24500000D02*
X68500000Y-24500000D01*
X52500000Y-26000000D02*
X61500000Y-26000000D01*
X52250000Y-23500000D02*
X52250000Y-25750000D01*
X61500000Y-26000000D02*
X63000000Y-24500000D01*
X52250000Y-25750000D02*
X52500000Y-26000000D01*
X53000000Y-22750000D02*
X52250000Y-23500000D01*
X49250000Y-18750000D02*
X49237347Y-19337000D01*
X49250000Y-12750000D02*
X49250000Y-18750000D01*
X50500000Y-11500000D02*
X49250000Y-12750000D01*
X57250000Y-11500000D02*
X50500000Y-11500000D01*
X68500000Y-18500000D02*
X64250000Y-18500000D01*
X64250000Y-18500000D02*
X57250000Y-11500000D01*
X59684315Y-20250000D02*
X60250000Y-19684315D01*
X53000000Y-20250000D02*
X59684315Y-20250000D01*
X53000000Y-19000000D02*
X57750000Y-19000000D01*
X64500000Y-26500000D02*
X68500000Y-26500000D01*
X64250000Y-26250000D02*
X64500000Y-26500000D01*
X53000000Y-17750000D02*
X59500000Y-17750000D01*
X59500000Y-17750000D02*
X62000000Y-20250000D01*
X59500000Y-16500000D02*
X62000000Y-19000000D01*
X53000000Y-16500000D02*
X59500000Y-16500000D01*
X51750000Y-15500000D02*
X52000000Y-15250000D01*
X51750000Y-28500000D02*
X51750000Y-15500000D01*
X52000000Y-28750000D02*
X51750000Y-28500000D01*
X63874822Y-29225000D02*
X63250000Y-28750000D01*
X52000000Y-15250000D02*
X53000000Y-15250000D01*
X63250000Y-28750000D02*
X52000000Y-28750000D01*
X53500000Y-39323002D02*
X53500000Y-31000000D01*
X60951997Y-40225001D02*
X54401999Y-40225001D01*
X68500000Y-36500000D02*
X64676998Y-36500000D01*
X54401999Y-40225001D02*
X53500000Y-39323002D01*
X64676998Y-36500000D02*
X60951997Y-40225001D01*
X64750000Y-29500000D02*
X68500000Y-29500000D01*
X51250000Y-28750000D02*
X51750000Y-29250000D01*
X51750000Y-29250000D02*
X62750000Y-29250000D01*
X62750000Y-29250000D02*
X63450001Y-29950001D01*
X63450001Y-29950001D02*
X64299999Y-29950001D01*
X64299999Y-29950001D02*
X64750000Y-29500000D01*
X51250000Y-14250000D02*
X51250000Y-28750000D01*
X50500000Y-14750000D02*
X50500000Y-13500000D01*
X50750000Y-15000000D02*
X50500000Y-14750000D01*
X50750000Y-37750000D02*
X50750000Y-15000000D01*
X59250000Y-41750000D02*
X48750000Y-41750000D01*
X48250000Y-38500000D02*
X48750000Y-38000000D01*
X48750000Y-41750000D02*
X48250000Y-41250000D01*
X48250000Y-41250000D02*
X48250000Y-38500000D01*
X48750000Y-38000000D02*
X50500000Y-38000000D01*
X50500000Y-38000000D02*
X50750000Y-37750000D01*
X64000000Y-19750000D02*
X64750000Y-19750000D01*
X52500000Y-13000000D02*
X57250000Y-13000000D01*
X57250000Y-13000000D02*
X64000000Y-19750000D01*
X65750000Y-34500000D02*
X68500000Y-34500000D01*
X65500000Y-34250000D02*
X65750000Y-34500000D01*
X65500000Y-33250000D02*
X65500000Y-34250000D01*
X54750000Y-31000000D02*
X59500000Y-31000000D01*
X59500000Y-31000000D02*
X61500000Y-33000000D01*
X65250000Y-33000000D02*
X65500000Y-33250000D01*
X61500000Y-33000000D02*
X65250000Y-33000000D01*
X68500000Y-14500000D02*
X65250000Y-14500000D01*
X65250000Y-14500000D02*
X65000000Y-14250000D01*
X68500000Y-31500000D02*
X65250000Y-31500000D01*
X65250000Y-31500000D02*
X65000000Y-31250000D01*
X65000000Y-25500000D02*
X68500000Y-25500000D01*
X68500000Y-28500000D02*
X65000000Y-28500000D01*
X68500000Y-17500000D02*
X64500000Y-17500000D01*
X62500000Y-27000000D02*
X62500000Y-27202304D01*
X63797696Y-28500000D02*
X65000000Y-28500000D01*
X62500000Y-27202304D02*
X63797696Y-28500000D01*
X63750000Y-25500000D02*
X65000000Y-25500000D01*
X62500000Y-27000000D02*
X62500000Y-26750000D01*
X62500000Y-26750000D02*
X63750000Y-25500000D01*
X53000000Y-27000000D02*
X62500000Y-27000000D01*
X62000000Y-31250000D02*
X65000000Y-31250000D01*
X65250000Y-37500000D02*
X65000000Y-37250000D01*
X68500000Y-37500000D02*
X65250000Y-37500000D01*
X63800000Y-12500000D02*
X68500000Y-12500000D01*
X63750000Y-14250000D02*
X64500000Y-13500000D01*
X64500000Y-13500000D02*
X68500000Y-13500000D01*
D14*
X59500000Y-10000000D02*
X63750000Y-14250000D01*
X43000000Y-10750000D02*
X43750000Y-10000000D01*
X43750000Y-10000000D02*
X59500000Y-10000000D01*
X43000000Y-26500000D02*
X43000000Y-10750000D01*
X43000000Y-28950000D02*
X43000000Y-26500000D01*
D13*
X63000000Y-20500000D02*
X68500000Y-20500000D01*
X53000000Y-21500000D02*
X62000000Y-21500000D01*
X62000000Y-21500000D02*
X63000000Y-20500000D01*
G04 #@! TA.AperFunction,Conductor*
G36*
X63692539Y-270185D02*
G01*
X63738294Y-322989D01*
X63749500Y-374500D01*
X63749500Y-10463115D01*
X63747117Y-10487306D01*
X63744592Y-10500000D01*
X63746974Y-10511977D01*
X63746974Y-10513761D01*
X63747718Y-10518773D01*
X63760359Y-10647124D01*
X63803274Y-10788593D01*
X63806145Y-10793965D01*
X63806147Y-10793969D01*
X63819740Y-10819399D01*
X63872963Y-10918973D01*
X63966749Y-11033251D01*
X64081027Y-11127037D01*
X64086404Y-11129911D01*
X64206031Y-11193853D01*
X64206035Y-11193855D01*
X64211407Y-11196726D01*
X64352876Y-11239641D01*
X64481227Y-11252282D01*
X64486239Y-11253026D01*
X64488023Y-11253026D01*
X64500000Y-11255408D01*
X64512694Y-11252883D01*
X64536885Y-11250500D01*
X65600366Y-11250500D01*
X65667405Y-11270185D01*
X65714927Y-11327047D01*
X65726716Y-11355508D01*
X65735094Y-11386776D01*
X65748439Y-11488143D01*
X65749500Y-11504328D01*
X65749500Y-11660590D01*
X65749833Y-11662853D01*
X65750000Y-11667419D01*
X65750000Y-13000500D01*
X65730315Y-13067539D01*
X65677511Y-13113294D01*
X65626000Y-13124500D01*
X64553281Y-13124500D01*
X64529356Y-13121954D01*
X64527952Y-13121888D01*
X64517934Y-13119731D01*
X64507761Y-13120935D01*
X64507759Y-13120935D01*
X64484898Y-13123641D01*
X64479016Y-13123988D01*
X64479023Y-13124078D01*
X64473918Y-13124500D01*
X64468807Y-13124500D01*
X64449947Y-13127639D01*
X64444168Y-13128461D01*
X64403968Y-13133219D01*
X64403966Y-13133220D01*
X64393790Y-13134424D01*
X64385623Y-13138346D01*
X64376687Y-13139833D01*
X64332043Y-13163922D01*
X64326840Y-13166574D01*
X64281100Y-13188537D01*
X64276869Y-13192094D01*
X64274983Y-13193980D01*
X64273053Y-13195751D01*
X64273000Y-13195779D01*
X64272883Y-13195652D01*
X64272326Y-13196143D01*
X64266671Y-13199194D01*
X64259711Y-13206723D01*
X64259710Y-13206724D01*
X64230447Y-13238381D01*
X64227072Y-13241891D01*
X63905470Y-13563493D01*
X63844147Y-13596978D01*
X63817141Y-13599810D01*
X63787475Y-13599655D01*
X63720539Y-13579621D01*
X63700442Y-13563338D01*
X59842667Y-9705564D01*
X59832969Y-9694651D01*
X59817611Y-9675170D01*
X59811872Y-9667890D01*
X59763554Y-9634495D01*
X59760454Y-9632281D01*
X59713184Y-9597366D01*
X59706368Y-9594973D01*
X59700431Y-9590869D01*
X59644481Y-9573174D01*
X59640791Y-9571943D01*
X59594116Y-9555552D01*
X59594112Y-9555551D01*
X59585369Y-9552481D01*
X59578265Y-9552202D01*
X59578014Y-9552153D01*
X59571270Y-9550020D01*
X59564663Y-9549500D01*
X59511932Y-9549500D01*
X59507063Y-9549404D01*
X59459273Y-9547526D01*
X59459272Y-9547526D01*
X59450006Y-9547162D01*
X59442922Y-9549040D01*
X59434562Y-9549500D01*
X43784102Y-9549500D01*
X43769528Y-9548641D01*
X43744894Y-9545725D01*
X43744891Y-9545725D01*
X43735689Y-9544636D01*
X43692737Y-9552481D01*
X43677965Y-9555179D01*
X43674124Y-9555818D01*
X43616038Y-9564551D01*
X43609525Y-9567679D01*
X43602427Y-9568975D01*
X43594201Y-9573248D01*
X43550331Y-9596036D01*
X43546857Y-9597771D01*
X43493921Y-9623191D01*
X43488699Y-9628018D01*
X43488486Y-9628161D01*
X43482211Y-9631421D01*
X43477172Y-9635725D01*
X43439903Y-9672994D01*
X43436393Y-9676369D01*
X43401251Y-9708853D01*
X43401249Y-9708856D01*
X43394444Y-9715146D01*
X43390763Y-9721484D01*
X43385172Y-9727725D01*
X42705564Y-10407333D01*
X42694651Y-10417031D01*
X42667890Y-10438128D01*
X42635735Y-10484654D01*
X42634510Y-10486426D01*
X42632281Y-10489546D01*
X42597366Y-10536816D01*
X42594973Y-10543632D01*
X42590869Y-10549569D01*
X42588074Y-10558408D01*
X42573175Y-10605516D01*
X42571943Y-10609209D01*
X42555552Y-10655884D01*
X42555551Y-10655888D01*
X42552481Y-10664631D01*
X42552202Y-10671735D01*
X42552153Y-10671986D01*
X42550020Y-10678730D01*
X42549500Y-10685337D01*
X42549500Y-10738068D01*
X42549404Y-10742937D01*
X42547162Y-10799994D01*
X42549040Y-10807078D01*
X42549500Y-10815438D01*
X42549500Y-25974777D01*
X42529815Y-26041816D01*
X42518204Y-26057023D01*
X42513034Y-26061533D01*
X42422501Y-26190348D01*
X42365309Y-26337039D01*
X42344758Y-26493138D01*
X42345578Y-26500566D01*
X42345578Y-26500568D01*
X42352767Y-26565683D01*
X42362035Y-26649633D01*
X42364601Y-26656645D01*
X42364602Y-26656649D01*
X42374321Y-26683206D01*
X42416143Y-26797490D01*
X42503958Y-26928172D01*
X42509488Y-26933204D01*
X42514372Y-26938862D01*
X42513272Y-26939811D01*
X42545290Y-26992395D01*
X42549500Y-27024432D01*
X42549500Y-28424777D01*
X42529815Y-28491816D01*
X42518204Y-28507023D01*
X42513034Y-28511533D01*
X42422501Y-28640348D01*
X42365309Y-28787039D01*
X42344758Y-28943138D01*
X42345578Y-28950566D01*
X42345578Y-28950568D01*
X42347474Y-28967744D01*
X42362035Y-29099633D01*
X42364601Y-29106645D01*
X42364602Y-29106649D01*
X42373893Y-29132037D01*
X42416143Y-29247490D01*
X42503958Y-29378172D01*
X42526183Y-29398395D01*
X42614878Y-29479102D01*
X42614882Y-29479105D01*
X42620410Y-29484135D01*
X42758776Y-29559262D01*
X42861031Y-29586088D01*
X42903841Y-29597319D01*
X42903843Y-29597319D01*
X42911069Y-29599215D01*
X42988127Y-29600425D01*
X43061025Y-29601571D01*
X43061028Y-29601571D01*
X43068495Y-29601688D01*
X43075776Y-29600020D01*
X43075780Y-29600020D01*
X43214681Y-29568207D01*
X43221968Y-29566538D01*
X43362625Y-29495795D01*
X43368306Y-29490943D01*
X43368309Y-29490941D01*
X43476666Y-29398395D01*
X43476667Y-29398394D01*
X43482348Y-29393542D01*
X43493393Y-29378172D01*
X43521246Y-29339410D01*
X43574224Y-29265683D01*
X43632950Y-29119598D01*
X43634793Y-29106649D01*
X43654562Y-28967744D01*
X43654562Y-28967740D01*
X43655134Y-28963723D01*
X43655278Y-28950000D01*
X43653551Y-28935727D01*
X43637262Y-28801119D01*
X43637261Y-28801115D01*
X43636363Y-28793694D01*
X43597896Y-28691893D01*
X43583354Y-28653408D01*
X43583352Y-28653405D01*
X43580710Y-28646412D01*
X43541676Y-28589617D01*
X43495768Y-28522821D01*
X43495765Y-28522818D01*
X43491531Y-28516657D01*
X43485945Y-28511680D01*
X43481488Y-28506625D01*
X43451918Y-28443321D01*
X43450500Y-28424620D01*
X43450500Y-27025195D01*
X43470185Y-26958156D01*
X43479756Y-26945756D01*
X43482348Y-26943542D01*
X43574224Y-26815683D01*
X43632950Y-26669598D01*
X43634793Y-26656649D01*
X43654562Y-26517744D01*
X43654562Y-26517740D01*
X43655134Y-26513723D01*
X43655278Y-26500000D01*
X43646387Y-26426530D01*
X43637262Y-26351119D01*
X43637261Y-26351115D01*
X43636363Y-26343694D01*
X43621529Y-26304436D01*
X43583354Y-26203408D01*
X43583352Y-26203405D01*
X43580710Y-26196412D01*
X43572337Y-26184229D01*
X43495768Y-26072821D01*
X43495765Y-26072818D01*
X43491531Y-26066657D01*
X43485945Y-26061680D01*
X43481488Y-26056625D01*
X43451918Y-25993321D01*
X43450500Y-25974620D01*
X43450500Y-10987965D01*
X43470185Y-10920926D01*
X43486819Y-10900284D01*
X43900284Y-10486819D01*
X43961607Y-10453334D01*
X43987965Y-10450500D01*
X49982123Y-10450500D01*
X50049162Y-10470185D01*
X50094917Y-10522989D01*
X50104861Y-10592147D01*
X50075836Y-10655703D01*
X50044068Y-10679965D01*
X50044689Y-10680927D01*
X50038135Y-10685159D01*
X50031100Y-10688537D01*
X50026869Y-10692094D01*
X50024983Y-10693980D01*
X50023053Y-10695751D01*
X50023000Y-10695779D01*
X50022883Y-10695652D01*
X50022326Y-10696143D01*
X50016671Y-10699194D01*
X50009711Y-10706723D01*
X50009710Y-10706724D01*
X49980447Y-10738381D01*
X49977072Y-10741891D01*
X48272161Y-12446802D01*
X48253432Y-12461929D01*
X48252398Y-12462870D01*
X48243790Y-12468428D01*
X48237448Y-12476473D01*
X48223193Y-12494555D01*
X48219280Y-12498958D01*
X48219350Y-12499017D01*
X48216043Y-12502920D01*
X48212425Y-12506538D01*
X48209451Y-12510700D01*
X48201321Y-12522077D01*
X48197830Y-12526728D01*
X48166397Y-12566600D01*
X48163395Y-12575149D01*
X48158128Y-12582519D01*
X48155191Y-12592340D01*
X48143594Y-12631118D01*
X48141788Y-12636676D01*
X48124977Y-12684548D01*
X48124500Y-12690055D01*
X48124500Y-12692739D01*
X48124387Y-12695341D01*
X48124365Y-12695415D01*
X48124196Y-12695408D01*
X48124150Y-12696133D01*
X48122310Y-12702287D01*
X48122712Y-12712526D01*
X48122712Y-12712529D01*
X48124404Y-12755581D01*
X48124500Y-12760449D01*
X48124500Y-20407915D01*
X48104815Y-20474954D01*
X48082015Y-20501357D01*
X48013034Y-20561533D01*
X47922501Y-20690348D01*
X47865309Y-20837039D01*
X47844758Y-20993138D01*
X47845578Y-21000566D01*
X47845578Y-21000568D01*
X47854898Y-21084983D01*
X47862035Y-21149633D01*
X47864601Y-21156645D01*
X47864602Y-21156649D01*
X47879484Y-21197314D01*
X47916143Y-21297490D01*
X48003958Y-21428172D01*
X48026183Y-21448395D01*
X48114878Y-21529102D01*
X48114882Y-21529105D01*
X48120410Y-21534135D01*
X48258776Y-21609262D01*
X48360319Y-21635901D01*
X48403841Y-21647319D01*
X48403843Y-21647319D01*
X48411069Y-21649215D01*
X48488127Y-21650425D01*
X48561025Y-21651571D01*
X48561028Y-21651571D01*
X48568495Y-21651688D01*
X48575776Y-21650020D01*
X48575780Y-21650020D01*
X48714681Y-21618207D01*
X48721968Y-21616538D01*
X48862625Y-21545795D01*
X48868306Y-21540943D01*
X48868309Y-21540941D01*
X48976666Y-21448395D01*
X48976667Y-21448394D01*
X48982348Y-21443542D01*
X48993393Y-21428172D01*
X49025168Y-21383952D01*
X49074224Y-21315683D01*
X49132950Y-21169598D01*
X49135257Y-21153390D01*
X49154562Y-21017744D01*
X49154562Y-21017740D01*
X49155134Y-21013723D01*
X49155278Y-21000000D01*
X49151576Y-20969409D01*
X49137262Y-20851119D01*
X49137261Y-20851115D01*
X49136363Y-20843694D01*
X49111956Y-20779102D01*
X49083354Y-20703408D01*
X49083352Y-20703405D01*
X49080710Y-20696412D01*
X49035251Y-20630269D01*
X48995768Y-20572821D01*
X48995765Y-20572818D01*
X48991531Y-20566657D01*
X48917011Y-20500262D01*
X48880052Y-20440968D01*
X48875500Y-20407679D01*
X48875500Y-20075344D01*
X48895185Y-20008305D01*
X48947989Y-19962550D01*
X49017147Y-19952606D01*
X49030966Y-19955403D01*
X49141188Y-19984319D01*
X49141190Y-19984319D01*
X49148416Y-19986215D01*
X49225474Y-19987425D01*
X49298372Y-19988571D01*
X49298375Y-19988571D01*
X49305842Y-19988688D01*
X49313123Y-19987020D01*
X49313127Y-19987020D01*
X49452028Y-19955207D01*
X49459315Y-19953538D01*
X49599972Y-19882795D01*
X49605655Y-19877942D01*
X49605660Y-19877938D01*
X49669969Y-19823013D01*
X49733730Y-19794442D01*
X49802816Y-19804879D01*
X49855292Y-19851010D01*
X49874500Y-19917303D01*
X49874500Y-24543101D01*
X49854815Y-24610140D01*
X49838181Y-24630782D01*
X48905469Y-25563494D01*
X48844146Y-25596979D01*
X48817143Y-25599811D01*
X48709988Y-25599250D01*
X48682158Y-25599104D01*
X48682157Y-25599104D01*
X48674684Y-25599065D01*
X48667421Y-25600809D01*
X48667418Y-25600809D01*
X48598136Y-25617443D01*
X48521588Y-25635820D01*
X48381679Y-25708032D01*
X48263034Y-25811533D01*
X48172501Y-25940348D01*
X48115309Y-26087039D01*
X48094758Y-26243138D01*
X48095578Y-26250566D01*
X48095578Y-26250568D01*
X48105077Y-26336605D01*
X48112035Y-26399633D01*
X48166143Y-26547490D01*
X48170314Y-26553697D01*
X48234781Y-26649633D01*
X48253958Y-26678172D01*
X48276183Y-26698395D01*
X48364878Y-26779102D01*
X48364882Y-26779105D01*
X48370410Y-26784135D01*
X48376980Y-26787702D01*
X48376981Y-26787703D01*
X48502208Y-26855696D01*
X48508776Y-26859262D01*
X48611031Y-26886088D01*
X48653841Y-26897319D01*
X48653843Y-26897319D01*
X48661069Y-26899215D01*
X48738127Y-26900425D01*
X48811025Y-26901571D01*
X48811028Y-26901571D01*
X48818495Y-26901688D01*
X48825776Y-26900020D01*
X48825780Y-26900020D01*
X48964681Y-26868207D01*
X48971968Y-26866538D01*
X49112625Y-26795795D01*
X49118306Y-26790943D01*
X49118309Y-26790941D01*
X49226666Y-26698395D01*
X49226667Y-26698394D01*
X49232348Y-26693542D01*
X49243393Y-26678172D01*
X49269237Y-26642205D01*
X49324224Y-26565683D01*
X49382950Y-26419598D01*
X49384793Y-26406649D01*
X49404562Y-26267744D01*
X49404562Y-26267740D01*
X49405134Y-26263723D01*
X49405278Y-26250000D01*
X49399116Y-26199077D01*
X49410604Y-26130159D01*
X49434537Y-26096500D01*
X50162819Y-25368218D01*
X50224142Y-25334733D01*
X50293834Y-25339717D01*
X50349767Y-25381589D01*
X50374184Y-25447053D01*
X50374500Y-25455899D01*
X50374500Y-37500500D01*
X50354815Y-37567539D01*
X50302011Y-37613294D01*
X50250500Y-37624500D01*
X48803284Y-37624500D01*
X48779349Y-37621953D01*
X48777948Y-37621887D01*
X48767934Y-37619731D01*
X48757761Y-37620935D01*
X48734898Y-37623641D01*
X48729010Y-37623988D01*
X48729018Y-37624079D01*
X48723923Y-37624500D01*
X48718807Y-37624500D01*
X48713764Y-37625339D01*
X48713756Y-37625340D01*
X48699928Y-37627641D01*
X48694150Y-37628463D01*
X48666207Y-37631771D01*
X48643791Y-37634424D01*
X48635625Y-37638345D01*
X48626687Y-37639833D01*
X48617671Y-37644698D01*
X48617667Y-37644699D01*
X48582023Y-37663931D01*
X48576818Y-37666583D01*
X48538135Y-37685158D01*
X48538130Y-37685161D01*
X48531100Y-37688537D01*
X48526869Y-37692094D01*
X48524984Y-37693979D01*
X48523053Y-37695751D01*
X48523000Y-37695779D01*
X48522883Y-37695652D01*
X48522326Y-37696143D01*
X48516671Y-37699194D01*
X48509711Y-37706723D01*
X48509710Y-37706724D01*
X48480447Y-37738381D01*
X48477072Y-37741891D01*
X48022161Y-38196802D01*
X48003432Y-38211929D01*
X48002398Y-38212870D01*
X47993790Y-38218428D01*
X47987448Y-38226473D01*
X47973193Y-38244555D01*
X47969280Y-38248958D01*
X47969350Y-38249017D01*
X47966043Y-38252920D01*
X47962425Y-38256538D01*
X47955491Y-38266241D01*
X47951321Y-38272077D01*
X47947830Y-38276728D01*
X47916397Y-38316600D01*
X47913395Y-38325149D01*
X47908128Y-38332519D01*
X47905191Y-38342340D01*
X47893594Y-38381118D01*
X47891788Y-38386676D01*
X47879946Y-38420399D01*
X47874977Y-38434548D01*
X47874500Y-38440055D01*
X47874500Y-38442739D01*
X47874387Y-38445341D01*
X47874365Y-38445415D01*
X47874196Y-38445408D01*
X47874150Y-38446133D01*
X47872310Y-38452287D01*
X47872712Y-38462526D01*
X47872712Y-38462529D01*
X47874404Y-38505581D01*
X47874500Y-38510449D01*
X47874500Y-41196716D01*
X47871953Y-41220651D01*
X47871887Y-41222052D01*
X47869731Y-41232066D01*
X47870935Y-41242239D01*
X47873641Y-41265102D01*
X47873988Y-41270984D01*
X47874078Y-41270977D01*
X47874500Y-41276082D01*
X47874500Y-41281193D01*
X47875339Y-41286233D01*
X47877639Y-41300053D01*
X47878461Y-41305832D01*
X47879860Y-41317649D01*
X47884424Y-41356210D01*
X47888346Y-41364377D01*
X47889833Y-41373313D01*
X47913922Y-41417957D01*
X47916574Y-41423160D01*
X47938537Y-41468900D01*
X47942094Y-41473131D01*
X47943980Y-41475017D01*
X47945751Y-41476947D01*
X47945779Y-41477000D01*
X47945652Y-41477117D01*
X47946143Y-41477674D01*
X47949194Y-41483329D01*
X47956723Y-41490289D01*
X47956724Y-41490290D01*
X47988380Y-41519552D01*
X47991890Y-41522927D01*
X48446805Y-41977842D01*
X48461907Y-41996542D01*
X48462867Y-41997597D01*
X48468428Y-42006210D01*
X48476479Y-42012557D01*
X48494551Y-42026804D01*
X48498962Y-42030724D01*
X48499021Y-42030654D01*
X48502921Y-42033959D01*
X48506538Y-42037576D01*
X48510691Y-42040544D01*
X48510702Y-42040553D01*
X48522100Y-42048697D01*
X48526775Y-42052207D01*
X48551570Y-42071754D01*
X48566600Y-42083603D01*
X48575148Y-42086605D01*
X48582519Y-42091872D01*
X48592336Y-42094808D01*
X48592338Y-42094809D01*
X48631127Y-42106409D01*
X48636685Y-42108215D01*
X48677186Y-42122438D01*
X48677188Y-42122439D01*
X48684548Y-42125023D01*
X48690055Y-42125500D01*
X48692738Y-42125500D01*
X48695337Y-42125613D01*
X48695415Y-42125636D01*
X48695408Y-42125804D01*
X48696129Y-42125849D01*
X48702287Y-42127691D01*
X48712525Y-42127289D01*
X48712527Y-42127289D01*
X48755606Y-42125596D01*
X48760474Y-42125500D01*
X58652907Y-42125500D01*
X58719946Y-42145185D01*
X58746771Y-42168472D01*
X58749790Y-42171969D01*
X58753958Y-42178172D01*
X58759488Y-42183204D01*
X58759489Y-42183205D01*
X58864878Y-42279102D01*
X58864882Y-42279105D01*
X58870410Y-42284135D01*
X59008776Y-42359262D01*
X59111031Y-42386088D01*
X59153841Y-42397319D01*
X59153843Y-42397319D01*
X59161069Y-42399215D01*
X59238127Y-42400425D01*
X59311025Y-42401571D01*
X59311028Y-42401571D01*
X59318495Y-42401688D01*
X59325776Y-42400020D01*
X59325780Y-42400020D01*
X59464681Y-42368207D01*
X59471968Y-42366538D01*
X59612625Y-42295795D01*
X59618306Y-42290943D01*
X59618309Y-42290941D01*
X59726666Y-42198395D01*
X59726667Y-42198394D01*
X59732348Y-42193542D01*
X59743393Y-42178172D01*
X59779667Y-42127691D01*
X59824224Y-42065683D01*
X59882950Y-41919598D01*
X59893276Y-41847042D01*
X59904562Y-41767744D01*
X59904562Y-41767740D01*
X59905134Y-41763723D01*
X59905278Y-41750000D01*
X59886363Y-41593694D01*
X59877276Y-41569646D01*
X59833354Y-41453408D01*
X59833352Y-41453405D01*
X59830710Y-41446412D01*
X59800365Y-41402260D01*
X59745768Y-41322821D01*
X59745765Y-41322818D01*
X59741531Y-41316657D01*
X59660647Y-41244592D01*
X59629559Y-41216893D01*
X59629558Y-41216892D01*
X59623976Y-41211919D01*
X59484831Y-41138245D01*
X59332128Y-41099889D01*
X59250329Y-41099461D01*
X59182158Y-41099104D01*
X59182157Y-41099104D01*
X59174684Y-41099065D01*
X59167421Y-41100809D01*
X59167418Y-41100809D01*
X59115707Y-41113224D01*
X59021588Y-41135820D01*
X58881679Y-41208032D01*
X58876048Y-41212945D01*
X58876047Y-41212945D01*
X58772895Y-41302931D01*
X58763034Y-41311533D01*
X58758736Y-41317649D01*
X58755820Y-41321798D01*
X58701168Y-41365329D01*
X58654367Y-41374500D01*
X48956899Y-41374500D01*
X48889860Y-41354815D01*
X48869218Y-41338181D01*
X48661819Y-41130782D01*
X48628334Y-41069459D01*
X48625500Y-41043101D01*
X48625500Y-39640403D01*
X48645185Y-39573364D01*
X48697989Y-39527609D01*
X48767147Y-39517665D01*
X48808667Y-39531430D01*
X48826776Y-39541262D01*
X48910750Y-39563292D01*
X48971841Y-39579319D01*
X48971843Y-39579319D01*
X48979069Y-39581215D01*
X49056127Y-39582425D01*
X49129025Y-39583571D01*
X49129028Y-39583571D01*
X49136495Y-39583688D01*
X49143776Y-39582020D01*
X49143780Y-39582020D01*
X49282681Y-39550207D01*
X49289968Y-39548538D01*
X49430625Y-39477795D01*
X49436306Y-39472943D01*
X49436309Y-39472941D01*
X49544666Y-39380395D01*
X49544667Y-39380394D01*
X49550348Y-39375542D01*
X49565688Y-39354195D01*
X49612215Y-39289445D01*
X49642224Y-39247683D01*
X49700950Y-39101598D01*
X49716857Y-38989826D01*
X49717967Y-38982029D01*
X49746901Y-38918431D01*
X49805625Y-38880573D01*
X49840730Y-38875500D01*
X50016347Y-38875500D01*
X50083386Y-38895185D01*
X50129141Y-38947989D01*
X50139085Y-39017147D01*
X50131877Y-39044542D01*
X50118026Y-39080069D01*
X50115309Y-39087039D01*
X50094758Y-39243138D01*
X50095578Y-39250566D01*
X50095578Y-39250568D01*
X50099149Y-39282916D01*
X50112035Y-39399633D01*
X50114601Y-39406645D01*
X50114602Y-39406649D01*
X50124814Y-39434554D01*
X50166143Y-39547490D01*
X50170314Y-39553697D01*
X50240648Y-39658364D01*
X50253958Y-39678172D01*
X50276183Y-39698395D01*
X50364878Y-39779102D01*
X50364882Y-39779105D01*
X50370410Y-39784135D01*
X50376980Y-39787702D01*
X50376981Y-39787703D01*
X50502208Y-39855696D01*
X50508776Y-39859262D01*
X50611031Y-39886088D01*
X50653841Y-39897319D01*
X50653843Y-39897319D01*
X50661069Y-39899215D01*
X50738127Y-39900425D01*
X50811025Y-39901571D01*
X50811028Y-39901571D01*
X50818495Y-39901688D01*
X50825776Y-39900020D01*
X50825780Y-39900020D01*
X50964681Y-39868207D01*
X50971968Y-39866538D01*
X51112625Y-39795795D01*
X51118306Y-39790943D01*
X51118309Y-39790941D01*
X51226666Y-39698395D01*
X51226667Y-39698394D01*
X51232348Y-39693542D01*
X51243393Y-39678172D01*
X51302489Y-39595930D01*
X51324224Y-39565683D01*
X51382950Y-39419598D01*
X51384793Y-39406649D01*
X51404562Y-39267744D01*
X51404562Y-39267740D01*
X51405134Y-39263723D01*
X51405278Y-39250000D01*
X51400521Y-39210688D01*
X51399116Y-39199077D01*
X51410604Y-39130159D01*
X51434537Y-39096500D01*
X51694960Y-38836078D01*
X51977843Y-38553195D01*
X51996545Y-38538091D01*
X51997599Y-38537132D01*
X52006210Y-38531572D01*
X52026804Y-38505449D01*
X52030724Y-38501038D01*
X52030654Y-38500979D01*
X52033959Y-38497079D01*
X52037576Y-38493462D01*
X52040544Y-38489309D01*
X52040553Y-38489298D01*
X52048697Y-38477900D01*
X52052207Y-38473225D01*
X52077258Y-38441449D01*
X52077259Y-38441447D01*
X52083603Y-38433400D01*
X52086605Y-38424852D01*
X52091872Y-38417481D01*
X52096381Y-38402406D01*
X52106409Y-38368873D01*
X52108215Y-38363315D01*
X52122438Y-38322814D01*
X52122439Y-38322812D01*
X52125023Y-38315452D01*
X52125500Y-38309945D01*
X52125500Y-38307262D01*
X52125613Y-38304663D01*
X52125636Y-38304585D01*
X52125804Y-38304592D01*
X52125849Y-38303871D01*
X52127691Y-38297713D01*
X52126868Y-38276752D01*
X52125596Y-38244394D01*
X52125500Y-38239526D01*
X52125500Y-30749500D01*
X52145185Y-30682461D01*
X52197989Y-30636706D01*
X52249500Y-30625500D01*
X52766347Y-30625500D01*
X52833386Y-30645185D01*
X52879141Y-30697989D01*
X52889085Y-30767147D01*
X52881877Y-30794542D01*
X52869122Y-30827258D01*
X52865309Y-30837039D01*
X52844758Y-30993138D01*
X52862035Y-31149633D01*
X52916143Y-31297490D01*
X53003958Y-31428172D01*
X53083955Y-31500963D01*
X53120290Y-31560640D01*
X53124500Y-31592676D01*
X53124500Y-39269718D01*
X53121953Y-39293653D01*
X53121887Y-39295054D01*
X53119731Y-39305068D01*
X53120935Y-39315241D01*
X53123641Y-39338104D01*
X53123988Y-39343986D01*
X53124078Y-39343979D01*
X53124500Y-39349084D01*
X53124500Y-39354195D01*
X53125339Y-39359235D01*
X53127639Y-39373055D01*
X53128461Y-39378834D01*
X53133219Y-39419034D01*
X53134424Y-39429212D01*
X53138346Y-39437379D01*
X53139833Y-39446315D01*
X53163922Y-39490959D01*
X53166574Y-39496162D01*
X53188537Y-39541902D01*
X53192094Y-39546133D01*
X53193980Y-39548019D01*
X53195751Y-39549949D01*
X53195779Y-39550002D01*
X53195652Y-39550119D01*
X53196143Y-39550676D01*
X53199194Y-39556331D01*
X53206723Y-39563291D01*
X53206724Y-39563292D01*
X53238381Y-39592555D01*
X53241891Y-39595930D01*
X54098801Y-40452840D01*
X54113928Y-40471569D01*
X54114869Y-40472603D01*
X54120427Y-40481211D01*
X54128472Y-40487553D01*
X54146554Y-40501808D01*
X54150957Y-40505721D01*
X54151016Y-40505651D01*
X54154919Y-40508958D01*
X54158537Y-40512576D01*
X54162699Y-40515550D01*
X54174076Y-40523680D01*
X54178727Y-40527171D01*
X54218599Y-40558604D01*
X54227148Y-40561606D01*
X54234518Y-40566873D01*
X54244340Y-40569810D01*
X54244339Y-40569810D01*
X54283113Y-40581406D01*
X54288671Y-40583212D01*
X54329182Y-40597439D01*
X54329192Y-40597441D01*
X54336547Y-40600024D01*
X54342054Y-40600501D01*
X54344737Y-40600501D01*
X54347339Y-40600614D01*
X54347414Y-40600636D01*
X54347407Y-40600805D01*
X54348131Y-40600851D01*
X54354285Y-40602691D01*
X54364524Y-40602289D01*
X54364527Y-40602289D01*
X54407579Y-40600597D01*
X54412447Y-40600501D01*
X60898713Y-40600501D01*
X60922648Y-40603048D01*
X60924049Y-40603114D01*
X60934063Y-40605270D01*
X60944236Y-40604066D01*
X60967099Y-40601360D01*
X60972981Y-40601013D01*
X60972974Y-40600923D01*
X60978079Y-40600501D01*
X60983190Y-40600501D01*
X61002050Y-40597362D01*
X61007829Y-40596540D01*
X61048029Y-40591782D01*
X61048031Y-40591781D01*
X61058207Y-40590577D01*
X61066374Y-40586655D01*
X61075310Y-40585168D01*
X61119955Y-40561078D01*
X61125160Y-40558426D01*
X61163864Y-40539841D01*
X61163863Y-40539841D01*
X61170897Y-40536464D01*
X61175128Y-40532907D01*
X61177014Y-40531021D01*
X61178944Y-40529250D01*
X61178997Y-40529222D01*
X61179114Y-40529349D01*
X61179671Y-40528858D01*
X61185326Y-40525807D01*
X61194808Y-40515550D01*
X61221550Y-40486620D01*
X61224925Y-40483110D01*
X64796216Y-36911819D01*
X64857539Y-36878334D01*
X64883897Y-36875500D01*
X65626000Y-36875500D01*
X65693039Y-36895185D01*
X65738794Y-36947989D01*
X65750000Y-36999500D01*
X65750000Y-38332519D01*
X65749833Y-38337126D01*
X65749500Y-38339410D01*
X65749500Y-38660590D01*
X65749833Y-38662853D01*
X65750000Y-38667419D01*
X65750000Y-39332519D01*
X65749833Y-39337126D01*
X65749500Y-39339410D01*
X65749500Y-39660590D01*
X65749833Y-39662853D01*
X65750000Y-39667419D01*
X65750000Y-40332519D01*
X65749833Y-40337126D01*
X65749500Y-40339410D01*
X65749500Y-40660590D01*
X65749833Y-40662853D01*
X65750000Y-40667419D01*
X65750000Y-40991874D01*
X65748939Y-41008059D01*
X65735094Y-41113224D01*
X65726716Y-41144492D01*
X65714927Y-41172953D01*
X65671086Y-41227356D01*
X65600366Y-41249500D01*
X64536885Y-41249500D01*
X64512694Y-41247117D01*
X64512655Y-41247109D01*
X64500000Y-41244592D01*
X64488023Y-41246974D01*
X64486239Y-41246974D01*
X64481227Y-41247718D01*
X64352876Y-41260359D01*
X64211407Y-41303274D01*
X64206035Y-41306145D01*
X64206031Y-41306147D01*
X64114980Y-41354815D01*
X64081027Y-41372963D01*
X63966749Y-41466749D01*
X63872963Y-41581027D01*
X63870089Y-41586404D01*
X63806147Y-41706031D01*
X63806145Y-41706035D01*
X63803274Y-41711407D01*
X63760359Y-41852876D01*
X63753462Y-41922900D01*
X63747718Y-41981224D01*
X63746974Y-41986239D01*
X63746974Y-41988023D01*
X63744592Y-42000000D01*
X63746975Y-42011979D01*
X63747117Y-42012694D01*
X63749500Y-42036885D01*
X63749500Y-52625500D01*
X63729815Y-52692539D01*
X63677011Y-52738294D01*
X63625500Y-52749500D01*
X374500Y-52749500D01*
X307461Y-52729815D01*
X261706Y-52677011D01*
X250500Y-52625500D01*
X250500Y-45867996D01*
X38471314Y-45867996D01*
X38481023Y-46077767D01*
X38530224Y-46281918D01*
X38532664Y-46287286D01*
X38532666Y-46287290D01*
X38578143Y-46387311D01*
X38617140Y-46473081D01*
X38738637Y-46644360D01*
X38742904Y-46648444D01*
X38742905Y-46648446D01*
X38886064Y-46785491D01*
X38886068Y-46785495D01*
X38890331Y-46789575D01*
X39066746Y-46903485D01*
X39072221Y-46905692D01*
X39072224Y-46905693D01*
X39256039Y-46979773D01*
X39256044Y-46979774D01*
X39261519Y-46981981D01*
X39467622Y-47022230D01*
X39473143Y-47022500D01*
X39627969Y-47022500D01*
X39784546Y-47007561D01*
X39790206Y-47005901D01*
X39790209Y-47005900D01*
X39885297Y-46978004D01*
X39986049Y-46948447D01*
X40073348Y-46903485D01*
X40167496Y-46854996D01*
X40167501Y-46854993D01*
X40172739Y-46852295D01*
X40337879Y-46722576D01*
X40405752Y-46644360D01*
X40471646Y-46568424D01*
X40471647Y-46568423D01*
X40475510Y-46563971D01*
X40494370Y-46531370D01*
X40577710Y-46387311D01*
X40577711Y-46387309D01*
X40580666Y-46382201D01*
X40649553Y-46183826D01*
X40679686Y-45976004D01*
X40674220Y-45857916D01*
X41216609Y-45857916D01*
X41225239Y-46087791D01*
X41226316Y-46092925D01*
X41226317Y-46092931D01*
X41264768Y-46276185D01*
X41272477Y-46312926D01*
X41356973Y-46526882D01*
X41476310Y-46723543D01*
X41627076Y-46897286D01*
X41804960Y-47043142D01*
X42004877Y-47156941D01*
X42221109Y-47235430D01*
X42447475Y-47276363D01*
X42451550Y-47276555D01*
X42451557Y-47276556D01*
X42470132Y-47277432D01*
X42470150Y-47277432D01*
X42471583Y-47277500D01*
X42633260Y-47277500D01*
X42635876Y-47277278D01*
X42635877Y-47277278D01*
X42799480Y-47263396D01*
X42804713Y-47262952D01*
X43027372Y-47205161D01*
X43237111Y-47110681D01*
X43427932Y-46982212D01*
X43594380Y-46823429D01*
X43731695Y-46638871D01*
X43791116Y-46521999D01*
X43833568Y-46438502D01*
X43833570Y-46438497D01*
X43835950Y-46433816D01*
X43850391Y-46387311D01*
X43902606Y-46219150D01*
X43904166Y-46214126D01*
X43904857Y-46208914D01*
X43933702Y-45991286D01*
X43933702Y-45991280D01*
X43934391Y-45986084D01*
X43925761Y-45756209D01*
X43899254Y-45629874D01*
X43879603Y-45536220D01*
X43879602Y-45536217D01*
X43878523Y-45531074D01*
X43794027Y-45317118D01*
X43674690Y-45120457D01*
X43523924Y-44946714D01*
X43346040Y-44800858D01*
X43146123Y-44687059D01*
X42929891Y-44608570D01*
X42703525Y-44567637D01*
X42699450Y-44567445D01*
X42699443Y-44567444D01*
X42680868Y-44566568D01*
X42680850Y-44566568D01*
X42679417Y-44566500D01*
X42517740Y-44566500D01*
X42515124Y-44566722D01*
X42515123Y-44566722D01*
X42495772Y-44568364D01*
X42346287Y-44581048D01*
X42123628Y-44638839D01*
X41913889Y-44733319D01*
X41723068Y-44861788D01*
X41556620Y-45020571D01*
X41419305Y-45205129D01*
X41416926Y-45209807D01*
X41416926Y-45209808D01*
X41332283Y-45376290D01*
X41315050Y-45410184D01*
X41313491Y-45415204D01*
X41313490Y-45415207D01*
X41269552Y-45556710D01*
X41246834Y-45629874D01*
X41246143Y-45635084D01*
X41246143Y-45635086D01*
X41227979Y-45772134D01*
X41216609Y-45857916D01*
X40674220Y-45857916D01*
X40669977Y-45766233D01*
X40667561Y-45756209D01*
X40622158Y-45567815D01*
X40622157Y-45567812D01*
X40620776Y-45562082D01*
X40609018Y-45536220D01*
X40536302Y-45376290D01*
X40533860Y-45370919D01*
X40412363Y-45199640D01*
X40408095Y-45195554D01*
X40264936Y-45058509D01*
X40264932Y-45058505D01*
X40260669Y-45054425D01*
X40084254Y-44940515D01*
X40078779Y-44938308D01*
X40078776Y-44938307D01*
X39894961Y-44864227D01*
X39894956Y-44864226D01*
X39889481Y-44862019D01*
X39683378Y-44821770D01*
X39677857Y-44821500D01*
X39523031Y-44821500D01*
X39366454Y-44836439D01*
X39360794Y-44838099D01*
X39360791Y-44838100D01*
X39267700Y-44865410D01*
X39164951Y-44895553D01*
X39159702Y-44898256D01*
X39159703Y-44898256D01*
X38983504Y-44989004D01*
X38983499Y-44989007D01*
X38978261Y-44991705D01*
X38813121Y-45121424D01*
X38809256Y-45125878D01*
X38809255Y-45125879D01*
X38744138Y-45200920D01*
X38675490Y-45280029D01*
X38672537Y-45285134D01*
X38672536Y-45285135D01*
X38654034Y-45317118D01*
X38570334Y-45461799D01*
X38501447Y-45660174D01*
X38471314Y-45867996D01*
X250500Y-45867996D01*
X250500Y-35743138D01*
X40844758Y-35743138D01*
X40845578Y-35750566D01*
X40845578Y-35750568D01*
X40858814Y-35870459D01*
X40862035Y-35899633D01*
X40864601Y-35906645D01*
X40864602Y-35906649D01*
X40875883Y-35937474D01*
X40916143Y-36047490D01*
X41003958Y-36178172D01*
X41058693Y-36227977D01*
X41114878Y-36279102D01*
X41114882Y-36279105D01*
X41120410Y-36284135D01*
X41258776Y-36359262D01*
X41361031Y-36386088D01*
X41403841Y-36397319D01*
X41403843Y-36397319D01*
X41411069Y-36399215D01*
X41488127Y-36400425D01*
X41561025Y-36401571D01*
X41561028Y-36401571D01*
X41568495Y-36401688D01*
X41575776Y-36400020D01*
X41575780Y-36400020D01*
X41714681Y-36368207D01*
X41721968Y-36366538D01*
X41862625Y-36295795D01*
X41868306Y-36290943D01*
X41868309Y-36290941D01*
X41976666Y-36198395D01*
X41976667Y-36198394D01*
X41982348Y-36193542D01*
X41994133Y-36177141D01*
X42049237Y-36134187D01*
X42094831Y-36125500D01*
X42402907Y-36125500D01*
X42469946Y-36145185D01*
X42496771Y-36168472D01*
X42499790Y-36171969D01*
X42503958Y-36178172D01*
X42509488Y-36183204D01*
X42509489Y-36183205D01*
X42614878Y-36279102D01*
X42614882Y-36279105D01*
X42620410Y-36284135D01*
X42758776Y-36359262D01*
X42861031Y-36386088D01*
X42903841Y-36397319D01*
X42903843Y-36397319D01*
X42911069Y-36399215D01*
X42988127Y-36400425D01*
X43061025Y-36401571D01*
X43061028Y-36401571D01*
X43068495Y-36401688D01*
X43075776Y-36400020D01*
X43075780Y-36400020D01*
X43214681Y-36368207D01*
X43221968Y-36366538D01*
X43362625Y-36295795D01*
X43368306Y-36290943D01*
X43368309Y-36290941D01*
X43476666Y-36198395D01*
X43476667Y-36198394D01*
X43482348Y-36193542D01*
X43493393Y-36178172D01*
X43523673Y-36136032D01*
X43574224Y-36065683D01*
X43632950Y-35919598D01*
X43634793Y-35906649D01*
X43654562Y-35767744D01*
X43654562Y-35767740D01*
X43655134Y-35763723D01*
X43655278Y-35750000D01*
X43653313Y-35733759D01*
X43637262Y-35601119D01*
X43637261Y-35601115D01*
X43636363Y-35593694D01*
X43601174Y-35500568D01*
X43583354Y-35453408D01*
X43583352Y-35453405D01*
X43580710Y-35446412D01*
X43507169Y-35339410D01*
X43495768Y-35322821D01*
X43495765Y-35322818D01*
X43491531Y-35316657D01*
X43373976Y-35211919D01*
X43234831Y-35138245D01*
X43135496Y-35113294D01*
X43089378Y-35101710D01*
X43082128Y-35099889D01*
X43000329Y-35099461D01*
X42932158Y-35099104D01*
X42932157Y-35099104D01*
X42924684Y-35099065D01*
X42917421Y-35100809D01*
X42917418Y-35100809D01*
X42848136Y-35117443D01*
X42771588Y-35135820D01*
X42631679Y-35208032D01*
X42513034Y-35311533D01*
X42508736Y-35317649D01*
X42505820Y-35321798D01*
X42451168Y-35365329D01*
X42404367Y-35374500D01*
X42096525Y-35374500D01*
X42029486Y-35354815D01*
X42001522Y-35327705D01*
X42000707Y-35328424D01*
X41995767Y-35322821D01*
X41991531Y-35316657D01*
X41873976Y-35211919D01*
X41734831Y-35138245D01*
X41635496Y-35113294D01*
X41589378Y-35101710D01*
X41582128Y-35099889D01*
X41500329Y-35099461D01*
X41432158Y-35099104D01*
X41432157Y-35099104D01*
X41424684Y-35099065D01*
X41417421Y-35100809D01*
X41417418Y-35100809D01*
X41348136Y-35117443D01*
X41271588Y-35135820D01*
X41131679Y-35208032D01*
X41013034Y-35311533D01*
X40922501Y-35440348D01*
X40865309Y-35587039D01*
X40844758Y-35743138D01*
X250500Y-35743138D01*
X250500Y-7127996D01*
X38471314Y-7127996D01*
X38481023Y-7337767D01*
X38530224Y-7541918D01*
X38532664Y-7547286D01*
X38532666Y-7547290D01*
X38578143Y-7647311D01*
X38617140Y-7733081D01*
X38738637Y-7904360D01*
X38742904Y-7908444D01*
X38742905Y-7908446D01*
X38886064Y-8045491D01*
X38886068Y-8045495D01*
X38890331Y-8049575D01*
X39066746Y-8163485D01*
X39072221Y-8165692D01*
X39072224Y-8165693D01*
X39256039Y-8239773D01*
X39256044Y-8239774D01*
X39261519Y-8241981D01*
X39467622Y-8282230D01*
X39473143Y-8282500D01*
X39627969Y-8282500D01*
X39784546Y-8267561D01*
X39790206Y-8265901D01*
X39790209Y-8265900D01*
X39885297Y-8238004D01*
X39986049Y-8208447D01*
X40073348Y-8163485D01*
X40167496Y-8114996D01*
X40167501Y-8114993D01*
X40172739Y-8112295D01*
X40337879Y-7982576D01*
X40405752Y-7904360D01*
X40471646Y-7828424D01*
X40471647Y-7828423D01*
X40475510Y-7823971D01*
X40494370Y-7791370D01*
X40577710Y-7647311D01*
X40577711Y-7647309D01*
X40580666Y-7642201D01*
X40649553Y-7443826D01*
X40679686Y-7236004D01*
X40674220Y-7117916D01*
X41216609Y-7117916D01*
X41225239Y-7347791D01*
X41226316Y-7352925D01*
X41226317Y-7352931D01*
X41264768Y-7536185D01*
X41272477Y-7572926D01*
X41356973Y-7786882D01*
X41476310Y-7983543D01*
X41627076Y-8157286D01*
X41804960Y-8303142D01*
X42004877Y-8416941D01*
X42221109Y-8495430D01*
X42447475Y-8536363D01*
X42451550Y-8536555D01*
X42451557Y-8536556D01*
X42470132Y-8537432D01*
X42470150Y-8537432D01*
X42471583Y-8537500D01*
X42633260Y-8537500D01*
X42635876Y-8537278D01*
X42635877Y-8537278D01*
X42799480Y-8523396D01*
X42804713Y-8522952D01*
X43027372Y-8465161D01*
X43237111Y-8370681D01*
X43427932Y-8242212D01*
X43594380Y-8083429D01*
X43731695Y-7898871D01*
X43791116Y-7781999D01*
X43833568Y-7698502D01*
X43833570Y-7698497D01*
X43835950Y-7693816D01*
X43850391Y-7647311D01*
X43902606Y-7479150D01*
X43904166Y-7474126D01*
X43904857Y-7468914D01*
X43933702Y-7251286D01*
X43933702Y-7251280D01*
X43934391Y-7246084D01*
X43925761Y-7016209D01*
X43899254Y-6889874D01*
X43879603Y-6796220D01*
X43879602Y-6796217D01*
X43878523Y-6791074D01*
X43794027Y-6577118D01*
X43674690Y-6380457D01*
X43523924Y-6206714D01*
X43346040Y-6060858D01*
X43146123Y-5947059D01*
X42929891Y-5868570D01*
X42703525Y-5827637D01*
X42699450Y-5827445D01*
X42699443Y-5827444D01*
X42680868Y-5826568D01*
X42680850Y-5826568D01*
X42679417Y-5826500D01*
X42517740Y-5826500D01*
X42515124Y-5826722D01*
X42515123Y-5826722D01*
X42495772Y-5828364D01*
X42346287Y-5841048D01*
X42123628Y-5898839D01*
X41913889Y-5993319D01*
X41723068Y-6121788D01*
X41556620Y-6280571D01*
X41419305Y-6465129D01*
X41416926Y-6469807D01*
X41416926Y-6469808D01*
X41332283Y-6636290D01*
X41315050Y-6670184D01*
X41313491Y-6675204D01*
X41313490Y-6675207D01*
X41269552Y-6816710D01*
X41246834Y-6889874D01*
X41246143Y-6895084D01*
X41246143Y-6895086D01*
X41227979Y-7032134D01*
X41216609Y-7117916D01*
X40674220Y-7117916D01*
X40669977Y-7026233D01*
X40667561Y-7016209D01*
X40622158Y-6827815D01*
X40622157Y-6827812D01*
X40620776Y-6822082D01*
X40609018Y-6796220D01*
X40536302Y-6636290D01*
X40533860Y-6630919D01*
X40412363Y-6459640D01*
X40408095Y-6455554D01*
X40264936Y-6318509D01*
X40264932Y-6318505D01*
X40260669Y-6314425D01*
X40084254Y-6200515D01*
X40078779Y-6198308D01*
X40078776Y-6198307D01*
X39894961Y-6124227D01*
X39894956Y-6124226D01*
X39889481Y-6122019D01*
X39683378Y-6081770D01*
X39677857Y-6081500D01*
X39523031Y-6081500D01*
X39366454Y-6096439D01*
X39360794Y-6098099D01*
X39360791Y-6098100D01*
X39267700Y-6125410D01*
X39164951Y-6155553D01*
X39159702Y-6158256D01*
X39159703Y-6158256D01*
X38983504Y-6249004D01*
X38983499Y-6249007D01*
X38978261Y-6251705D01*
X38813121Y-6381424D01*
X38809256Y-6385878D01*
X38809255Y-6385879D01*
X38744138Y-6460920D01*
X38675490Y-6540029D01*
X38672537Y-6545134D01*
X38672536Y-6545135D01*
X38654034Y-6577118D01*
X38570334Y-6721799D01*
X38501447Y-6920174D01*
X38471314Y-7127996D01*
X250500Y-7127996D01*
X250500Y-374500D01*
X270185Y-307461D01*
X322989Y-261706D01*
X374500Y-250500D01*
X63625500Y-250500D01*
X63692539Y-270185D01*
G37*
G04 #@! TD.AperFunction*
G04 #@! TA.AperFunction,Conductor*
G36*
X54210581Y-31368657D02*
G01*
X54227549Y-31388872D01*
X54242969Y-31411819D01*
X54253958Y-31428172D01*
X54276183Y-31448395D01*
X54364878Y-31529102D01*
X54364882Y-31529105D01*
X54370410Y-31534135D01*
X54376980Y-31537702D01*
X54376981Y-31537703D01*
X54502208Y-31605696D01*
X54508776Y-31609262D01*
X54611031Y-31636088D01*
X54653841Y-31647319D01*
X54653843Y-31647319D01*
X54661069Y-31649215D01*
X54738127Y-31650425D01*
X54811025Y-31651571D01*
X54811028Y-31651571D01*
X54818495Y-31651688D01*
X54825776Y-31650020D01*
X54825780Y-31650020D01*
X54964681Y-31618207D01*
X54971968Y-31616538D01*
X55112625Y-31545795D01*
X55118306Y-31540943D01*
X55118309Y-31540941D01*
X55226666Y-31448395D01*
X55226667Y-31448394D01*
X55232348Y-31443542D01*
X55244133Y-31427141D01*
X55299237Y-31384187D01*
X55344831Y-31375500D01*
X59293101Y-31375500D01*
X59360140Y-31395185D01*
X59380782Y-31411819D01*
X61196802Y-33227839D01*
X61211929Y-33246568D01*
X61212870Y-33247602D01*
X61218428Y-33256210D01*
X61226473Y-33262552D01*
X61244555Y-33276807D01*
X61248958Y-33280720D01*
X61249017Y-33280650D01*
X61252920Y-33283957D01*
X61256538Y-33287575D01*
X61260700Y-33290549D01*
X61272077Y-33298679D01*
X61276728Y-33302170D01*
X61316600Y-33333603D01*
X61325149Y-33336605D01*
X61332519Y-33341872D01*
X61342341Y-33344809D01*
X61342340Y-33344809D01*
X61381114Y-33356405D01*
X61386672Y-33358211D01*
X61427183Y-33372438D01*
X61427193Y-33372440D01*
X61434548Y-33375023D01*
X61440055Y-33375500D01*
X61442738Y-33375500D01*
X61445340Y-33375613D01*
X61445415Y-33375635D01*
X61445408Y-33375804D01*
X61446132Y-33375850D01*
X61452286Y-33377690D01*
X61462525Y-33377288D01*
X61462528Y-33377288D01*
X61505580Y-33375596D01*
X61510448Y-33375500D01*
X65000500Y-33375500D01*
X65067539Y-33395185D01*
X65113294Y-33447989D01*
X65124500Y-33499500D01*
X65124500Y-34196716D01*
X65121953Y-34220651D01*
X65121887Y-34222052D01*
X65119731Y-34232066D01*
X65120935Y-34242239D01*
X65123641Y-34265102D01*
X65123988Y-34270984D01*
X65124078Y-34270977D01*
X65124500Y-34276082D01*
X65124500Y-34281193D01*
X65125339Y-34286233D01*
X65127639Y-34300053D01*
X65128461Y-34305832D01*
X65133219Y-34346032D01*
X65134424Y-34356210D01*
X65138346Y-34364377D01*
X65139833Y-34373313D01*
X65163922Y-34417957D01*
X65166574Y-34423160D01*
X65188537Y-34468900D01*
X65192094Y-34473131D01*
X65193980Y-34475017D01*
X65195751Y-34476947D01*
X65195779Y-34477000D01*
X65195652Y-34477117D01*
X65196143Y-34477674D01*
X65199194Y-34483329D01*
X65206723Y-34490289D01*
X65206724Y-34490290D01*
X65238381Y-34519553D01*
X65241891Y-34522928D01*
X65446802Y-34727839D01*
X65461929Y-34746568D01*
X65462870Y-34747602D01*
X65468428Y-34756210D01*
X65476473Y-34762552D01*
X65494555Y-34776807D01*
X65498958Y-34780720D01*
X65499017Y-34780650D01*
X65502920Y-34783957D01*
X65506538Y-34787575D01*
X65510700Y-34790549D01*
X65522077Y-34798679D01*
X65526728Y-34802170D01*
X65566600Y-34833603D01*
X65575149Y-34836605D01*
X65582519Y-34841872D01*
X65592341Y-34844809D01*
X65592340Y-34844809D01*
X65631114Y-34856405D01*
X65636673Y-34858211D01*
X65667087Y-34868892D01*
X65723817Y-34909678D01*
X65749491Y-34974660D01*
X65750000Y-34985887D01*
X65750000Y-35000500D01*
X65730315Y-35067539D01*
X65677511Y-35113294D01*
X65626000Y-35124500D01*
X58096525Y-35124500D01*
X58029486Y-35104815D01*
X58001522Y-35077705D01*
X58000707Y-35078424D01*
X57995768Y-35072822D01*
X57991531Y-35066657D01*
X57945251Y-35025423D01*
X57879559Y-34966893D01*
X57879558Y-34966892D01*
X57873976Y-34961919D01*
X57734831Y-34888245D01*
X57582128Y-34849889D01*
X57500329Y-34849461D01*
X57432158Y-34849104D01*
X57432157Y-34849104D01*
X57424684Y-34849065D01*
X57417421Y-34850809D01*
X57417418Y-34850809D01*
X57348136Y-34867442D01*
X57271588Y-34885820D01*
X57131679Y-34958032D01*
X57013034Y-35061533D01*
X56922501Y-35190348D01*
X56865309Y-35337039D01*
X56844758Y-35493138D01*
X56862035Y-35649633D01*
X56864601Y-35656645D01*
X56864602Y-35656649D01*
X56892821Y-35733759D01*
X56916143Y-35797490D01*
X56920314Y-35803697D01*
X56984781Y-35899633D01*
X57003958Y-35928172D01*
X57025737Y-35947989D01*
X57114878Y-36029102D01*
X57114882Y-36029105D01*
X57120410Y-36034135D01*
X57126980Y-36037702D01*
X57126981Y-36037703D01*
X57165745Y-36058750D01*
X57258776Y-36109262D01*
X57353785Y-36134187D01*
X57403841Y-36147319D01*
X57403843Y-36147319D01*
X57411069Y-36149215D01*
X57488127Y-36150425D01*
X57561025Y-36151571D01*
X57561028Y-36151571D01*
X57568495Y-36151688D01*
X57575776Y-36150020D01*
X57575780Y-36150020D01*
X57714681Y-36118207D01*
X57721968Y-36116538D01*
X57862625Y-36045795D01*
X57868306Y-36040943D01*
X57868309Y-36040941D01*
X57976666Y-35948395D01*
X57976667Y-35948394D01*
X57982348Y-35943542D01*
X57994133Y-35927141D01*
X58049237Y-35884187D01*
X58094831Y-35875500D01*
X64655771Y-35875500D01*
X64690363Y-35885657D01*
X64716525Y-35875835D01*
X64725637Y-35875500D01*
X65626000Y-35875500D01*
X65693039Y-35895185D01*
X65738794Y-35947989D01*
X65750000Y-35999500D01*
X65750000Y-36000500D01*
X65730315Y-36067539D01*
X65677511Y-36113294D01*
X65626000Y-36124500D01*
X64730282Y-36124500D01*
X64704185Y-36121723D01*
X64699540Y-36120723D01*
X64692859Y-36117093D01*
X64690706Y-36118477D01*
X64670346Y-36122640D01*
X64661897Y-36123640D01*
X64656013Y-36123987D01*
X64656021Y-36124078D01*
X64650916Y-36124500D01*
X64645805Y-36124500D01*
X64626945Y-36127639D01*
X64621166Y-36128461D01*
X64580966Y-36133219D01*
X64580964Y-36133220D01*
X64570788Y-36134424D01*
X64562621Y-36138346D01*
X64553685Y-36139833D01*
X64509041Y-36163922D01*
X64503838Y-36166574D01*
X64458098Y-36188537D01*
X64453867Y-36192094D01*
X64451981Y-36193980D01*
X64450051Y-36195751D01*
X64449998Y-36195779D01*
X64449881Y-36195652D01*
X64449324Y-36196143D01*
X64443669Y-36199194D01*
X64436709Y-36206723D01*
X64436708Y-36206724D01*
X64407445Y-36238381D01*
X64404070Y-36241891D01*
X60832779Y-39813182D01*
X60771456Y-39846667D01*
X60745098Y-39849501D01*
X57994122Y-39849501D01*
X57927083Y-39829816D01*
X57881328Y-39777012D01*
X57871384Y-39707854D01*
X57879070Y-39679251D01*
X57880163Y-39676533D01*
X57880165Y-39676527D01*
X57882950Y-39669598D01*
X57884549Y-39658364D01*
X57904562Y-39517744D01*
X57904562Y-39517740D01*
X57905134Y-39513723D01*
X57905278Y-39500000D01*
X57899873Y-39455335D01*
X57887262Y-39351119D01*
X57887261Y-39351115D01*
X57886363Y-39343694D01*
X57857004Y-39265997D01*
X57833354Y-39203408D01*
X57833352Y-39203405D01*
X57830710Y-39196412D01*
X57743646Y-39069734D01*
X57721896Y-39003337D01*
X57739497Y-38935720D01*
X57790860Y-38888354D01*
X57845837Y-38875500D01*
X60196716Y-38875500D01*
X60220651Y-38878047D01*
X60222052Y-38878113D01*
X60232066Y-38880269D01*
X60242239Y-38879065D01*
X60265102Y-38876359D01*
X60270984Y-38876012D01*
X60270977Y-38875922D01*
X60276082Y-38875500D01*
X60281193Y-38875500D01*
X60300053Y-38872361D01*
X60305832Y-38871539D01*
X60346032Y-38866781D01*
X60346034Y-38866780D01*
X60356210Y-38865576D01*
X60364377Y-38861654D01*
X60373313Y-38860167D01*
X60417958Y-38836077D01*
X60423163Y-38833425D01*
X60461867Y-38814840D01*
X60461866Y-38814840D01*
X60468900Y-38811463D01*
X60473131Y-38807906D01*
X60475017Y-38806020D01*
X60476947Y-38804249D01*
X60477000Y-38804221D01*
X60477117Y-38804348D01*
X60477674Y-38803857D01*
X60483329Y-38800806D01*
X60492885Y-38790469D01*
X60519553Y-38761619D01*
X60522928Y-38758109D01*
X60845146Y-38435891D01*
X60906469Y-38402406D01*
X60934772Y-38399587D01*
X61002218Y-38400647D01*
X61061025Y-38401571D01*
X61061028Y-38401571D01*
X61068495Y-38401688D01*
X61075776Y-38400020D01*
X61075780Y-38400020D01*
X61214681Y-38368207D01*
X61221968Y-38366538D01*
X61362625Y-38295795D01*
X61368306Y-38290943D01*
X61368309Y-38290941D01*
X61476666Y-38198395D01*
X61476667Y-38198394D01*
X61482348Y-38193542D01*
X61574224Y-38065683D01*
X61632950Y-37919598D01*
X61637412Y-37888245D01*
X61654562Y-37767744D01*
X61654562Y-37767740D01*
X61655134Y-37763723D01*
X61655278Y-37750000D01*
X61650041Y-37706724D01*
X61637262Y-37601119D01*
X61637261Y-37601115D01*
X61636363Y-37593694D01*
X61580710Y-37446412D01*
X61572337Y-37434229D01*
X61495768Y-37322821D01*
X61495765Y-37322818D01*
X61491531Y-37316657D01*
X61373976Y-37211919D01*
X61234831Y-37138245D01*
X61082128Y-37099889D01*
X61000329Y-37099461D01*
X60932158Y-37099104D01*
X60932157Y-37099104D01*
X60924684Y-37099065D01*
X60917421Y-37100809D01*
X60917418Y-37100809D01*
X60848136Y-37117443D01*
X60771588Y-37135820D01*
X60631679Y-37208032D01*
X60513034Y-37311533D01*
X60422501Y-37440348D01*
X60365309Y-37587039D01*
X60344758Y-37743138D01*
X60345578Y-37750566D01*
X60345578Y-37750569D01*
X60351255Y-37801991D01*
X60339046Y-37870785D01*
X60315685Y-37903278D01*
X60130782Y-38088181D01*
X60069459Y-38121666D01*
X60043101Y-38124500D01*
X56596525Y-38124500D01*
X56529486Y-38104815D01*
X56501522Y-38077705D01*
X56500707Y-38078424D01*
X56495768Y-38072822D01*
X56491531Y-38066657D01*
X56445251Y-38025423D01*
X56379559Y-37966893D01*
X56379558Y-37966892D01*
X56373976Y-37961919D01*
X56234831Y-37888245D01*
X56082128Y-37849889D01*
X56000329Y-37849461D01*
X55932158Y-37849104D01*
X55932157Y-37849104D01*
X55924684Y-37849065D01*
X55917421Y-37850809D01*
X55917418Y-37850809D01*
X55874246Y-37861174D01*
X55771588Y-37885820D01*
X55631679Y-37958032D01*
X55626048Y-37962945D01*
X55626047Y-37962945D01*
X55572357Y-38009782D01*
X55513034Y-38061533D01*
X55422501Y-38190348D01*
X55419785Y-38197313D01*
X55419785Y-38197314D01*
X55401367Y-38244555D01*
X55365309Y-38337039D01*
X55344758Y-38493138D01*
X55345578Y-38500566D01*
X55345578Y-38500568D01*
X55346401Y-38508024D01*
X55362035Y-38649633D01*
X55364601Y-38656645D01*
X55364602Y-38656649D01*
X55392821Y-38733759D01*
X55416143Y-38797490D01*
X55454989Y-38855299D01*
X55503958Y-38928172D01*
X55502143Y-38929392D01*
X55526541Y-38983080D01*
X55516470Y-39052220D01*
X55470618Y-39104939D01*
X55403771Y-39124500D01*
X55346525Y-39124500D01*
X55279486Y-39104815D01*
X55251522Y-39077705D01*
X55250707Y-39078424D01*
X55245768Y-39072822D01*
X55241531Y-39066657D01*
X55185962Y-39017147D01*
X55129559Y-38966893D01*
X55129558Y-38966892D01*
X55123976Y-38961919D01*
X54984831Y-38888245D01*
X54873047Y-38860167D01*
X54839378Y-38851710D01*
X54832128Y-38849889D01*
X54750329Y-38849461D01*
X54682158Y-38849104D01*
X54682157Y-38849104D01*
X54674684Y-38849065D01*
X54667421Y-38850809D01*
X54667418Y-38850809D01*
X54600891Y-38866781D01*
X54521588Y-38885820D01*
X54381679Y-38958032D01*
X54263034Y-39061533D01*
X54172501Y-39190348D01*
X54169786Y-39197311D01*
X54169782Y-39197319D01*
X54164570Y-39210688D01*
X54121878Y-39265997D01*
X54056060Y-39289445D01*
X53988014Y-39273587D01*
X53961360Y-39253325D01*
X53911819Y-39203784D01*
X53878334Y-39142461D01*
X53875500Y-39116103D01*
X53875500Y-31591964D01*
X53895185Y-31524925D01*
X53918968Y-31497674D01*
X53976666Y-31448395D01*
X53982348Y-31443542D01*
X54023932Y-31385672D01*
X54079035Y-31342719D01*
X54148616Y-31336375D01*
X54210581Y-31368657D01*
G37*
G04 #@! TD.AperFunction*
G04 #@! TA.AperFunction,Conductor*
G36*
X62473730Y-30145185D02*
G01*
X62494372Y-30161819D01*
X63060392Y-30727839D01*
X63075519Y-30746568D01*
X63076460Y-30747602D01*
X63082018Y-30756210D01*
X63103435Y-30773094D01*
X63108145Y-30776807D01*
X63112548Y-30780720D01*
X63112607Y-30780650D01*
X63116510Y-30783957D01*
X63120128Y-30787575D01*
X63124290Y-30790549D01*
X63135667Y-30798679D01*
X63140318Y-30802170D01*
X63180190Y-30833603D01*
X63188739Y-30836605D01*
X63196109Y-30841872D01*
X63205931Y-30844809D01*
X63205930Y-30844809D01*
X63244704Y-30856405D01*
X63250262Y-30858211D01*
X63290773Y-30872438D01*
X63290783Y-30872440D01*
X63298138Y-30875023D01*
X63303645Y-30875500D01*
X63306328Y-30875500D01*
X63308930Y-30875613D01*
X63309005Y-30875635D01*
X63308998Y-30875804D01*
X63309722Y-30875850D01*
X63315876Y-30877690D01*
X63326115Y-30877288D01*
X63326118Y-30877288D01*
X63369170Y-30875596D01*
X63374038Y-30875500D01*
X65626000Y-30875500D01*
X65693039Y-30895185D01*
X65738794Y-30947989D01*
X65750000Y-30999500D01*
X65750000Y-32000500D01*
X65730315Y-32067539D01*
X65677511Y-32113294D01*
X65626000Y-32124500D01*
X61956899Y-32124500D01*
X61889860Y-32104815D01*
X61869218Y-32088181D01*
X60118218Y-30337181D01*
X60084733Y-30275858D01*
X60089717Y-30206166D01*
X60131589Y-30150233D01*
X60197053Y-30125816D01*
X60205899Y-30125500D01*
X62406691Y-30125500D01*
X62473730Y-30145185D01*
G37*
G04 #@! TD.AperFunction*
G04 #@! TA.AperFunction,Conductor*
G36*
X65693039Y-27895185D02*
G01*
X65738794Y-27947989D01*
X65750000Y-27999500D01*
X65750000Y-29000500D01*
X65730315Y-29067539D01*
X65677511Y-29113294D01*
X65626000Y-29124500D01*
X64803285Y-29124500D01*
X64779349Y-29121953D01*
X64777954Y-29121887D01*
X64767934Y-29119730D01*
X64757759Y-29120934D01*
X64757754Y-29120934D01*
X64734891Y-29123640D01*
X64729014Y-29123987D01*
X64729022Y-29124079D01*
X64723927Y-29124500D01*
X64718807Y-29124500D01*
X64713760Y-29125340D01*
X64713749Y-29125341D01*
X64699981Y-29127633D01*
X64694198Y-29128456D01*
X64643792Y-29134422D01*
X64643528Y-29132195D01*
X64587486Y-29132037D01*
X64528815Y-29094096D01*
X64506762Y-29056989D01*
X64458177Y-28928411D01*
X64458176Y-28928409D01*
X64455532Y-28921412D01*
X64451295Y-28915247D01*
X64370590Y-28797821D01*
X64370587Y-28797818D01*
X64366353Y-28791657D01*
X64248798Y-28686919D01*
X64147951Y-28633523D01*
X64097915Y-28584756D01*
X64082187Y-28516680D01*
X64105761Y-28450907D01*
X64161152Y-28408321D01*
X64207923Y-28399951D01*
X64212314Y-28400020D01*
X64311025Y-28401571D01*
X64311028Y-28401571D01*
X64318495Y-28401688D01*
X64325776Y-28400020D01*
X64325780Y-28400020D01*
X64464681Y-28368207D01*
X64471968Y-28366538D01*
X64612625Y-28295795D01*
X64618306Y-28290943D01*
X64618309Y-28290941D01*
X64726666Y-28198395D01*
X64726667Y-28198394D01*
X64732348Y-28193542D01*
X64743393Y-28178172D01*
X64763798Y-28149775D01*
X64824224Y-28065683D01*
X64827010Y-28058752D01*
X64827013Y-28058747D01*
X64869422Y-27953250D01*
X64912691Y-27898390D01*
X64984474Y-27875500D01*
X65626000Y-27875500D01*
X65693039Y-27895185D01*
G37*
G04 #@! TD.AperFunction*
G04 #@! TA.AperFunction,Conductor*
G36*
X65693039Y-24895185D02*
G01*
X65738794Y-24947989D01*
X65750000Y-24999500D01*
X65750000Y-26000500D01*
X65730315Y-26067539D01*
X65677511Y-26113294D01*
X65626000Y-26124500D01*
X64983705Y-26124500D01*
X64916666Y-26104815D01*
X64870911Y-26052011D01*
X64867710Y-26044330D01*
X64833355Y-25953411D01*
X64833354Y-25953409D01*
X64830710Y-25946412D01*
X64822337Y-25934229D01*
X64745768Y-25822821D01*
X64745765Y-25822818D01*
X64741531Y-25816657D01*
X64623976Y-25711919D01*
X64484831Y-25638245D01*
X64332128Y-25599889D01*
X64250329Y-25599461D01*
X64182158Y-25599104D01*
X64182157Y-25599104D01*
X64174684Y-25599065D01*
X64167421Y-25600809D01*
X64167418Y-25600809D01*
X64098136Y-25617443D01*
X64021588Y-25635820D01*
X63881679Y-25708032D01*
X63763034Y-25811533D01*
X63672501Y-25940348D01*
X63615309Y-26087039D01*
X63594758Y-26243138D01*
X63595578Y-26250566D01*
X63595578Y-26250568D01*
X63605077Y-26336605D01*
X63612035Y-26399633D01*
X63666143Y-26547490D01*
X63670314Y-26553697D01*
X63734781Y-26649633D01*
X63753958Y-26678172D01*
X63776183Y-26698395D01*
X63864878Y-26779102D01*
X63864882Y-26779105D01*
X63870410Y-26784135D01*
X63876980Y-26787702D01*
X63876981Y-26787703D01*
X64002208Y-26855696D01*
X64008776Y-26859262D01*
X64068942Y-26875046D01*
X64087840Y-26880004D01*
X64147690Y-26916056D01*
X64178548Y-26978742D01*
X64170616Y-27048160D01*
X64126414Y-27102270D01*
X64085321Y-27120519D01*
X64080306Y-27121723D01*
X64021588Y-27135820D01*
X63881679Y-27208032D01*
X63763034Y-27311533D01*
X63672501Y-27440348D01*
X63615309Y-27587039D01*
X63594758Y-27743138D01*
X63595578Y-27750566D01*
X63595578Y-27750568D01*
X63608814Y-27870459D01*
X63612035Y-27899633D01*
X63614601Y-27906645D01*
X63614602Y-27906649D01*
X63629731Y-27947989D01*
X63666143Y-28047490D01*
X63753958Y-28178172D01*
X63776183Y-28198395D01*
X63864878Y-28279102D01*
X63864882Y-28279105D01*
X63870410Y-28284135D01*
X63876980Y-28287702D01*
X63876981Y-28287703D01*
X63976444Y-28341707D01*
X64025967Y-28390994D01*
X64040981Y-28459232D01*
X64016720Y-28524754D01*
X63960886Y-28566758D01*
X63916627Y-28574678D01*
X63891359Y-28574546D01*
X63806980Y-28574104D01*
X63806979Y-28574104D01*
X63799506Y-28574065D01*
X63734728Y-28589617D01*
X63664948Y-28586126D01*
X63630738Y-28567757D01*
X63481908Y-28454613D01*
X63480185Y-28453279D01*
X63441450Y-28422743D01*
X63433400Y-28416397D01*
X63409213Y-28407904D01*
X63392478Y-28400602D01*
X63378873Y-28393431D01*
X63378874Y-28393431D01*
X63369803Y-28388650D01*
X63359679Y-28387066D01*
X63359676Y-28387065D01*
X63353211Y-28386054D01*
X63331293Y-28380539D01*
X63322817Y-28377562D01*
X63322807Y-28377560D01*
X63315452Y-28374977D01*
X63309945Y-28374500D01*
X63289011Y-28374500D01*
X63269843Y-28373010D01*
X63256421Y-28370910D01*
X63246297Y-28369326D01*
X63227668Y-28372613D01*
X63206122Y-28374500D01*
X52249500Y-28374500D01*
X52182461Y-28354815D01*
X52136706Y-28302011D01*
X52125500Y-28250500D01*
X52125500Y-26436297D01*
X52145185Y-26369258D01*
X52197989Y-26323503D01*
X52267147Y-26313559D01*
X52308873Y-26327512D01*
X52316600Y-26333603D01*
X52325149Y-26336605D01*
X52332519Y-26341872D01*
X52342341Y-26344809D01*
X52342340Y-26344809D01*
X52381114Y-26356405D01*
X52386672Y-26358211D01*
X52427183Y-26372438D01*
X52427193Y-26372440D01*
X52434548Y-26375023D01*
X52440055Y-26375500D01*
X52442738Y-26375500D01*
X52445340Y-26375613D01*
X52445415Y-26375635D01*
X52445408Y-26375804D01*
X52446132Y-26375850D01*
X52452286Y-26377690D01*
X52462525Y-26377288D01*
X52462528Y-26377288D01*
X52505580Y-26375596D01*
X52510448Y-26375500D01*
X61446716Y-26375500D01*
X61470651Y-26378047D01*
X61472052Y-26378113D01*
X61482066Y-26380269D01*
X61492239Y-26379065D01*
X61515102Y-26376359D01*
X61520984Y-26376012D01*
X61520977Y-26375922D01*
X61526082Y-26375500D01*
X61531193Y-26375500D01*
X61550053Y-26372361D01*
X61555832Y-26371539D01*
X61596032Y-26366781D01*
X61596034Y-26366780D01*
X61606210Y-26365576D01*
X61614377Y-26361654D01*
X61623313Y-26360167D01*
X61667958Y-26336077D01*
X61673163Y-26333425D01*
X61711867Y-26314840D01*
X61711866Y-26314840D01*
X61718900Y-26311463D01*
X61723131Y-26307906D01*
X61725017Y-26306020D01*
X61726947Y-26304249D01*
X61727000Y-26304221D01*
X61727117Y-26304348D01*
X61727674Y-26303857D01*
X61733329Y-26300806D01*
X61769553Y-26261619D01*
X61772928Y-26258109D01*
X63119218Y-24911819D01*
X63180541Y-24878334D01*
X63206899Y-24875500D01*
X65626000Y-24875500D01*
X65693039Y-24895185D01*
G37*
G04 #@! TD.AperFunction*
G04 #@! TA.AperFunction,Conductor*
G36*
X55625267Y-22395185D02*
G01*
X55671022Y-22447989D01*
X55680966Y-22517147D01*
X55651941Y-22580703D01*
X55587175Y-22620074D01*
X55521588Y-22635820D01*
X55381679Y-22708032D01*
X55263034Y-22811533D01*
X55172501Y-22940348D01*
X55115309Y-23087039D01*
X55094758Y-23243138D01*
X55095578Y-23250566D01*
X55095578Y-23250568D01*
X55097238Y-23265604D01*
X55112035Y-23399633D01*
X55166143Y-23547490D01*
X55253958Y-23678172D01*
X55276183Y-23698395D01*
X55364878Y-23779102D01*
X55364882Y-23779105D01*
X55370410Y-23784135D01*
X55376980Y-23787702D01*
X55376981Y-23787703D01*
X55485271Y-23846500D01*
X55508776Y-23859262D01*
X55611031Y-23886088D01*
X55653841Y-23897319D01*
X55653843Y-23897319D01*
X55661069Y-23899215D01*
X55738127Y-23900425D01*
X55811025Y-23901571D01*
X55811028Y-23901571D01*
X55818495Y-23901688D01*
X55825776Y-23900020D01*
X55825780Y-23900020D01*
X55964681Y-23868207D01*
X55971968Y-23866538D01*
X56112625Y-23795795D01*
X56118306Y-23790943D01*
X56118309Y-23790941D01*
X56226666Y-23698395D01*
X56226667Y-23698394D01*
X56232348Y-23693542D01*
X56243393Y-23678172D01*
X56263798Y-23649775D01*
X56324224Y-23565683D01*
X56382950Y-23419598D01*
X56384793Y-23406649D01*
X56404562Y-23267744D01*
X56404562Y-23267740D01*
X56405134Y-23263723D01*
X56405278Y-23250000D01*
X56400041Y-23206724D01*
X56399116Y-23199077D01*
X56410604Y-23130159D01*
X56434537Y-23096500D01*
X56619218Y-22911819D01*
X56680541Y-22878334D01*
X56706899Y-22875500D01*
X62728772Y-22875500D01*
X62763364Y-22885657D01*
X62789527Y-22875835D01*
X62798639Y-22875500D01*
X65626000Y-22875500D01*
X65693039Y-22895185D01*
X65738794Y-22947989D01*
X65750000Y-22999500D01*
X65750000Y-23000500D01*
X65730315Y-23067539D01*
X65677511Y-23113294D01*
X65626000Y-23124500D01*
X62803284Y-23124500D01*
X62777187Y-23121723D01*
X62772542Y-23120723D01*
X62765860Y-23117093D01*
X62763707Y-23118477D01*
X62743345Y-23122641D01*
X62734895Y-23123641D01*
X62729010Y-23123988D01*
X62729018Y-23124079D01*
X62723923Y-23124500D01*
X62718807Y-23124500D01*
X62713762Y-23125340D01*
X62713758Y-23125340D01*
X62699960Y-23127636D01*
X62694180Y-23128458D01*
X62653970Y-23133217D01*
X62653963Y-23133219D01*
X62643791Y-23134423D01*
X62635622Y-23138346D01*
X62626687Y-23139833D01*
X62617667Y-23144700D01*
X62582047Y-23163920D01*
X62576841Y-23166572D01*
X62538139Y-23185156D01*
X62538133Y-23185160D01*
X62531100Y-23188537D01*
X62526869Y-23192094D01*
X62524983Y-23193980D01*
X62523053Y-23195751D01*
X62523000Y-23195779D01*
X62522883Y-23195652D01*
X62522326Y-23196143D01*
X62516671Y-23199194D01*
X62509711Y-23206723D01*
X62509710Y-23206724D01*
X62480447Y-23238381D01*
X62477072Y-23241891D01*
X60880782Y-24838181D01*
X60819459Y-24871666D01*
X60793101Y-24874500D01*
X53596525Y-24874500D01*
X53529486Y-24854815D01*
X53501522Y-24827705D01*
X53500707Y-24828424D01*
X53495768Y-24822822D01*
X53491531Y-24816657D01*
X53379353Y-24716709D01*
X53342394Y-24657416D01*
X53343358Y-24587553D01*
X53381310Y-24529837D01*
X53476666Y-24448395D01*
X53476667Y-24448394D01*
X53482348Y-24443542D01*
X53574224Y-24315683D01*
X53632950Y-24169598D01*
X53637956Y-24134424D01*
X53654562Y-24017744D01*
X53654562Y-24017740D01*
X53655134Y-24013723D01*
X53655278Y-24000000D01*
X53649116Y-23949077D01*
X53660604Y-23880159D01*
X53684537Y-23846500D01*
X55119218Y-22411819D01*
X55180541Y-22378334D01*
X55206899Y-22375500D01*
X55558228Y-22375500D01*
X55625267Y-22395185D01*
G37*
G04 #@! TD.AperFunction*
G04 #@! TA.AperFunction,Conductor*
G36*
X65693039Y-16895185D02*
G01*
X65738794Y-16947989D01*
X65750000Y-16999500D01*
X65750000Y-18000500D01*
X65730315Y-18067539D01*
X65677511Y-18113294D01*
X65626000Y-18124500D01*
X64456899Y-18124500D01*
X64389860Y-18104815D01*
X64369218Y-18088181D01*
X63368218Y-17087181D01*
X63334733Y-17025858D01*
X63339717Y-16956166D01*
X63381589Y-16900233D01*
X63447053Y-16875816D01*
X63455899Y-16875500D01*
X65626000Y-16875500D01*
X65693039Y-16895185D01*
G37*
G04 #@! TD.AperFunction*
G04 #@! TA.AperFunction,Conductor*
G36*
X51972109Y-12395185D02*
G01*
X52017864Y-12447989D01*
X52027808Y-12517147D01*
X52006522Y-12570799D01*
X51922501Y-12690348D01*
X51865309Y-12837039D01*
X51844758Y-12993138D01*
X51845578Y-13000566D01*
X51845578Y-13000568D01*
X51852742Y-13065459D01*
X51862035Y-13149633D01*
X51864601Y-13156645D01*
X51864602Y-13156649D01*
X51880172Y-13199194D01*
X51916143Y-13297490D01*
X52003958Y-13428172D01*
X52026183Y-13448395D01*
X52114878Y-13529102D01*
X52114882Y-13529105D01*
X52120410Y-13534135D01*
X52126980Y-13537702D01*
X52126981Y-13537703D01*
X52241441Y-13599850D01*
X52258776Y-13609262D01*
X52361031Y-13636088D01*
X52403841Y-13647319D01*
X52403843Y-13647319D01*
X52411069Y-13649215D01*
X52488127Y-13650425D01*
X52561025Y-13651571D01*
X52561028Y-13651571D01*
X52568495Y-13651688D01*
X52575776Y-13650020D01*
X52575780Y-13650020D01*
X52714681Y-13618207D01*
X52721968Y-13616538D01*
X52862625Y-13545795D01*
X52868306Y-13540943D01*
X52868309Y-13540941D01*
X52976666Y-13448395D01*
X52976667Y-13448394D01*
X52982348Y-13443542D01*
X52994133Y-13427141D01*
X53049237Y-13384187D01*
X53094831Y-13375500D01*
X57043101Y-13375500D01*
X57110140Y-13395185D01*
X57130782Y-13411819D01*
X59629720Y-15910757D01*
X59663205Y-15972080D01*
X59658221Y-16041772D01*
X59616349Y-16097705D01*
X59546908Y-16122342D01*
X59496025Y-16124341D01*
X59494419Y-16124404D01*
X59489551Y-16124500D01*
X53596525Y-16124500D01*
X53529486Y-16104815D01*
X53501522Y-16077705D01*
X53500707Y-16078424D01*
X53495768Y-16072822D01*
X53491531Y-16066657D01*
X53379353Y-15966709D01*
X53342394Y-15907416D01*
X53343358Y-15837553D01*
X53381310Y-15779837D01*
X53476666Y-15698395D01*
X53476667Y-15698394D01*
X53482348Y-15693542D01*
X53493393Y-15678172D01*
X53531241Y-15625500D01*
X53574224Y-15565683D01*
X53632950Y-15419598D01*
X53634951Y-15405538D01*
X53654562Y-15267744D01*
X53654562Y-15267740D01*
X53655134Y-15263723D01*
X53655278Y-15250000D01*
X53636363Y-15093694D01*
X53580710Y-14946412D01*
X53548272Y-14899215D01*
X53495768Y-14822821D01*
X53495765Y-14822818D01*
X53491531Y-14816657D01*
X53373976Y-14711919D01*
X53234831Y-14638245D01*
X53082128Y-14599889D01*
X53000329Y-14599461D01*
X52932158Y-14599104D01*
X52932157Y-14599104D01*
X52924684Y-14599065D01*
X52917421Y-14600809D01*
X52917418Y-14600809D01*
X52848136Y-14617443D01*
X52771588Y-14635820D01*
X52631679Y-14708032D01*
X52513034Y-14811533D01*
X52508736Y-14817649D01*
X52505820Y-14821798D01*
X52451168Y-14865329D01*
X52404367Y-14874500D01*
X52053280Y-14874500D01*
X52029355Y-14871954D01*
X52027951Y-14871888D01*
X52017933Y-14869731D01*
X52007760Y-14870935D01*
X52007758Y-14870935D01*
X51984897Y-14873641D01*
X51979016Y-14873988D01*
X51979023Y-14874078D01*
X51973917Y-14874500D01*
X51968807Y-14874500D01*
X51949953Y-14877638D01*
X51944190Y-14878459D01*
X51934295Y-14879630D01*
X51903967Y-14883219D01*
X51903964Y-14883220D01*
X51893790Y-14884424D01*
X51885623Y-14888346D01*
X51876687Y-14889833D01*
X51867667Y-14894700D01*
X51860348Y-14897206D01*
X51790547Y-14900299D01*
X51730154Y-14865163D01*
X51698345Y-14802955D01*
X51705217Y-14733424D01*
X51728186Y-14697097D01*
X51732348Y-14693542D01*
X51824224Y-14565683D01*
X51882950Y-14419598D01*
X51884003Y-14412201D01*
X51904562Y-14267744D01*
X51904562Y-14267740D01*
X51905134Y-14263723D01*
X51905278Y-14250000D01*
X51903242Y-14233173D01*
X51887262Y-14101119D01*
X51887261Y-14101115D01*
X51886363Y-14093694D01*
X51830710Y-13946412D01*
X51806935Y-13911819D01*
X51745768Y-13822821D01*
X51745765Y-13822818D01*
X51741531Y-13816657D01*
X51623976Y-13711919D01*
X51484831Y-13638245D01*
X51361657Y-13607306D01*
X51339378Y-13601710D01*
X51332128Y-13599889D01*
X51309828Y-13599772D01*
X51276580Y-13599598D01*
X51209645Y-13579563D01*
X51164167Y-13526520D01*
X51154128Y-13490497D01*
X51137262Y-13351119D01*
X51137261Y-13351115D01*
X51136363Y-13343694D01*
X51127276Y-13319646D01*
X51083354Y-13203408D01*
X51083352Y-13203405D01*
X51080710Y-13196412D01*
X51072977Y-13185160D01*
X50995768Y-13072821D01*
X50995765Y-13072818D01*
X50991531Y-13066657D01*
X50945251Y-13025423D01*
X50879559Y-12966893D01*
X50879558Y-12966892D01*
X50873976Y-12961919D01*
X50734831Y-12888245D01*
X50673592Y-12872863D01*
X50613368Y-12837440D01*
X50581855Y-12775080D01*
X50589059Y-12705583D01*
X50616119Y-12664918D01*
X50676223Y-12604815D01*
X50869219Y-12411819D01*
X50930542Y-12378334D01*
X50956900Y-12375500D01*
X51905070Y-12375500D01*
X51972109Y-12395185D01*
G37*
G04 #@! TD.AperFunction*
G04 #@! TA.AperFunction,Conductor*
G36*
X59329074Y-10470185D02*
G01*
X59349716Y-10486819D01*
X63062567Y-14199670D01*
X63096052Y-14260993D01*
X63098137Y-14273742D01*
X63112035Y-14399633D01*
X63114602Y-14406648D01*
X63114603Y-14406652D01*
X63124203Y-14432885D01*
X63128756Y-14502606D01*
X63094892Y-14563720D01*
X63033362Y-14596825D01*
X63007107Y-14599496D01*
X62932158Y-14599104D01*
X62932157Y-14599104D01*
X62924684Y-14599065D01*
X62917421Y-14600809D01*
X62917418Y-14600809D01*
X62848136Y-14617443D01*
X62771588Y-14635820D01*
X62631679Y-14708032D01*
X62513034Y-14811533D01*
X62422501Y-14940348D01*
X62365309Y-15087039D01*
X62362466Y-15085930D01*
X62333838Y-15133995D01*
X62271306Y-15165164D01*
X62201849Y-15157578D01*
X62161815Y-15130778D01*
X57803198Y-10772161D01*
X57788071Y-10753432D01*
X57787130Y-10752398D01*
X57781572Y-10743790D01*
X57755445Y-10723193D01*
X57751042Y-10719280D01*
X57750983Y-10719350D01*
X57747080Y-10716043D01*
X57743462Y-10712425D01*
X57727920Y-10701319D01*
X57723248Y-10697811D01*
X57690353Y-10671878D01*
X57649893Y-10614915D01*
X57646653Y-10545121D01*
X57681660Y-10484654D01*
X57743801Y-10452713D01*
X57767122Y-10450500D01*
X59262035Y-10450500D01*
X59329074Y-10470185D01*
G37*
G04 #@! TD.AperFunction*
G04 #@! TA.AperFunction,Conductor*
G36*
X65693039Y-13895185D02*
G01*
X65738794Y-13947989D01*
X65750000Y-13999500D01*
X65750000Y-15000500D01*
X65730315Y-15067539D01*
X65677511Y-15113294D01*
X65626000Y-15124500D01*
X63942488Y-15124500D01*
X63875449Y-15104815D01*
X63829694Y-15052011D01*
X63819750Y-14982853D01*
X63848775Y-14919297D01*
X63907553Y-14881523D01*
X63914805Y-14879630D01*
X63923512Y-14877636D01*
X63943030Y-14873166D01*
X63964681Y-14868207D01*
X63971968Y-14866538D01*
X64112625Y-14795795D01*
X64118306Y-14790943D01*
X64118309Y-14790941D01*
X64226666Y-14698395D01*
X64226667Y-14698394D01*
X64232348Y-14693542D01*
X64324224Y-14565683D01*
X64382950Y-14419598D01*
X64384003Y-14412201D01*
X64404562Y-14267744D01*
X64404562Y-14267740D01*
X64405134Y-14263723D01*
X64405278Y-14250000D01*
X64403242Y-14233173D01*
X64399116Y-14199077D01*
X64410604Y-14130159D01*
X64434537Y-14096500D01*
X64619218Y-13911819D01*
X64680541Y-13878334D01*
X64706899Y-13875500D01*
X65626000Y-13875500D01*
X65693039Y-13895185D01*
G37*
G04 #@! TD.AperFunction*
M02*
