G04 #@! TF.GenerationSoftware,KiCad,Pcbnew,6.0.11+dfsg-1*
G04 #@! TF.CreationDate,2023-03-13T19:25:43+00:00*
G04 #@! TF.ProjectId,TP770_IDE,54503737-305f-4494-9445-2e6b69636164,rev?*
G04 #@! TF.SameCoordinates,PX6cb8080PY3197500*
G04 #@! TF.FileFunction,Copper,L1,Top*
G04 #@! TF.FilePolarity,Positive*
%FSLAX46Y46*%
G04 Gerber Fmt 4.6, Leading zero omitted, Abs format (unit mm)*
G04 Created by KiCad (PCBNEW 6.0.11+dfsg-1) date 2023-03-13 19:25:43*
%MOMM*%
%LPD*%
G01*
G04 APERTURE LIST*
G04 Aperture macros list*
%AMRoundRect*
0 Rectangle with rounded corners*
0 $1 Rounding radius*
0 $2 $3 $4 $5 $6 $7 $8 $9 X,Y pos of 4 corners*
0 Add a 4 corners polygon primitive as box body*
4,1,4,$2,$3,$4,$5,$6,$7,$8,$9,$2,$3,0*
0 Add four circle primitives for the rounded corners*
1,1,$1+$1,$2,$3*
1,1,$1+$1,$4,$5*
1,1,$1+$1,$6,$7*
1,1,$1+$1,$8,$9*
0 Add four rect primitives between the rounded corners*
20,1,$1+$1,$2,$3,$4,$5,0*
20,1,$1+$1,$4,$5,$6,$7,0*
20,1,$1+$1,$6,$7,$8,$9,0*
20,1,$1+$1,$8,$9,$2,$3,0*%
G04 Aperture macros list end*
G04 #@! TA.AperFunction,SMDPad,CuDef*
%ADD10R,3.510000X0.410000*%
G04 #@! TD*
G04 #@! TA.AperFunction,ComponentPad*
%ADD11C,3.990000*%
G04 #@! TD*
G04 #@! TA.AperFunction,SMDPad,CuDef*
%ADD12R,4.570000X2.490000*%
G04 #@! TD*
G04 #@! TA.AperFunction,ConnectorPad*
%ADD13RoundRect,0.125000X2.125000X0.125000X-2.125000X0.125000X-2.125000X-0.125000X2.125000X-0.125000X0*%
G04 #@! TD*
G04 #@! TA.AperFunction,ConnectorPad*
%ADD14RoundRect,0.125000X2.375000X0.125000X-2.375000X0.125000X-2.375000X-0.125000X2.375000X-0.125000X0*%
G04 #@! TD*
G04 #@! TA.AperFunction,ViaPad*
%ADD15C,0.800000*%
G04 #@! TD*
G04 #@! TA.AperFunction,Conductor*
%ADD16C,0.250000*%
G04 #@! TD*
G04 #@! TA.AperFunction,Conductor*
%ADD17C,0.400000*%
G04 #@! TD*
G04 APERTURE END LIST*
D10*
X45575500Y-42112000D03*
X45575500Y-41472000D03*
X45575500Y-40842000D03*
X45575500Y-40202000D03*
X45575500Y-39572000D03*
X45575500Y-38932000D03*
X45575500Y-38302000D03*
X45575500Y-37662000D03*
X45575500Y-37032000D03*
X45575500Y-36392000D03*
X45575500Y-35762000D03*
X45575500Y-35122000D03*
X45575500Y-34492000D03*
X45575500Y-33852000D03*
X45575500Y-33222000D03*
X45575500Y-32582000D03*
X45575500Y-31952000D03*
X45575500Y-31312000D03*
X45575500Y-30682000D03*
X45575500Y-30042000D03*
X45575500Y-29412000D03*
X45575500Y-28772000D03*
X45575500Y-28142000D03*
X45575500Y-27502000D03*
X45575500Y-26872000D03*
X45575500Y-26232000D03*
X45575500Y-25602000D03*
X45575500Y-24962000D03*
X45575500Y-24332000D03*
X45575500Y-23692000D03*
X45575500Y-23062000D03*
X45575500Y-22422000D03*
X45575500Y-21792000D03*
X45575500Y-21152000D03*
X45575500Y-20522000D03*
X45575500Y-19882000D03*
X45575500Y-19252000D03*
X45575500Y-18612000D03*
X45575500Y-17982000D03*
X45575500Y-17342000D03*
X45575500Y-16712000D03*
X45575500Y-16072000D03*
X45575500Y-15442000D03*
X45575500Y-14802000D03*
X45575500Y-14172000D03*
X45575500Y-13532000D03*
X45575500Y-12902000D03*
X45575500Y-12262000D03*
X45575500Y-11632000D03*
X45575500Y-10992000D03*
D11*
X42575500Y-7182000D03*
X42575500Y-45922000D03*
D12*
X39905500Y-49892000D03*
X39905500Y-3212000D03*
D13*
X68250000Y-12000000D03*
D14*
X68500000Y-13000000D03*
X68500000Y-14000000D03*
X68500000Y-15000000D03*
X68500000Y-16000000D03*
X68500000Y-17000000D03*
X68500000Y-18000000D03*
X68500000Y-19000000D03*
X68500000Y-20000000D03*
X68500000Y-21000000D03*
X68500000Y-22000000D03*
X68500000Y-23000000D03*
X68500000Y-24000000D03*
X68500000Y-25000000D03*
X68500000Y-26000000D03*
X68500000Y-27000000D03*
X68500000Y-28000000D03*
X68500000Y-29000000D03*
X68500000Y-30000000D03*
X68500000Y-31000000D03*
X68500000Y-32000000D03*
X68500000Y-33000000D03*
X68500000Y-34000000D03*
X68500000Y-35000000D03*
X68500000Y-36000000D03*
X68500000Y-37000000D03*
X68500000Y-38000000D03*
X68500000Y-39000000D03*
X68500000Y-40000000D03*
D13*
X68250000Y-41000000D03*
D15*
X54750000Y-39500000D03*
X57250000Y-39500000D03*
X50750000Y-39250000D03*
X49068000Y-38932000D03*
X61000000Y-37750000D03*
X56000000Y-38500000D03*
X57500000Y-35500000D03*
X64250000Y-27750000D03*
X43000000Y-35750000D03*
X41500000Y-35750000D03*
X63000000Y-15250000D03*
X55750000Y-23250000D03*
X53000000Y-25250000D03*
X48750000Y-26250000D03*
X53000000Y-24000000D03*
X48500000Y-21000000D03*
X53000000Y-22750000D03*
X49237347Y-19337000D03*
X60250000Y-19684315D03*
X53000000Y-20250000D03*
X57750000Y-19000000D03*
X53000000Y-19000000D03*
X64250000Y-26250000D03*
X62000000Y-20250000D03*
X53000000Y-17750000D03*
X62000000Y-19000000D03*
X53000000Y-16500000D03*
X63874822Y-29225000D03*
X53000000Y-15250000D03*
X53500000Y-31000000D03*
X51250000Y-14250000D03*
X50500000Y-13500000D03*
X59250000Y-41750000D03*
X52500000Y-13000000D03*
X64750000Y-19750000D03*
X54750000Y-31000000D03*
X65000000Y-14250000D03*
X65000000Y-31250000D03*
X65000000Y-25500000D03*
X65000000Y-28500000D03*
X64500000Y-17500000D03*
X62500000Y-27000000D03*
X53000000Y-27000000D03*
X56500000Y-41000000D03*
X56250000Y-14500000D03*
X60500000Y-12500000D03*
X62000000Y-31250000D03*
X49750000Y-30250000D03*
X49750000Y-27000000D03*
X52625000Y-34250000D03*
X43000000Y-40000000D03*
X48500000Y-10993363D03*
X54750000Y-34250000D03*
X48825000Y-42575000D03*
X65000000Y-37250000D03*
X48500000Y-24250000D03*
X58950000Y-39375000D03*
X63500000Y-36475000D03*
X62500000Y-44000000D03*
X40750000Y-43250000D03*
X40750000Y-22750000D03*
X59325000Y-23825000D03*
X63800000Y-12500000D03*
X48175000Y-32525000D03*
X64250000Y-34000000D03*
X58750000Y-34250000D03*
X49750000Y-34250000D03*
X63750000Y-14250000D03*
X43000000Y-26500000D03*
X43000000Y-28950000D03*
X53000000Y-21500000D03*
D16*
X63750000Y-35000000D02*
X68500000Y-35000000D01*
X63636410Y-32000000D02*
X68500000Y-32000000D01*
X45575500Y-40842000D02*
X54794410Y-40842000D01*
X54794410Y-40842000D02*
X63636410Y-32000000D01*
X63750000Y-33000000D02*
X68500000Y-33000000D01*
X57250000Y-39500000D02*
X63750000Y-33000000D01*
X54000000Y-40202000D02*
X45575500Y-40202000D01*
X54750000Y-39500000D02*
X54000000Y-40202000D01*
X45575500Y-39572000D02*
X47580500Y-39572000D01*
X47580500Y-39572000D02*
X47758500Y-39750000D01*
X47758500Y-39750000D02*
X50250000Y-39750000D01*
X50250000Y-39750000D02*
X50750000Y-39250000D01*
X45575500Y-38932000D02*
X49068000Y-38932000D01*
X55612010Y-38112010D02*
X56000000Y-38500000D01*
X47770490Y-38112010D02*
X55612010Y-38112010D01*
X45575500Y-38302000D02*
X47580500Y-38302000D01*
X47580500Y-38302000D02*
X47770490Y-38112010D01*
X61000000Y-37750000D02*
X63750000Y-35000000D01*
X64750000Y-30000000D02*
X68500000Y-30000000D01*
X45575500Y-37662000D02*
X57088000Y-37662000D01*
X57088000Y-37662000D02*
X64750000Y-30000000D01*
X47968000Y-37032000D02*
X45575500Y-37032000D01*
X48750000Y-36250000D02*
X47968000Y-37032000D01*
X57500000Y-35500000D02*
X56750000Y-36250000D01*
X56750000Y-36250000D02*
X48750000Y-36250000D01*
X63522820Y-27750000D02*
X64250000Y-27750000D01*
X55500000Y-35750000D02*
X63522820Y-27750000D01*
X47858000Y-36392000D02*
X48500000Y-35750000D01*
X45575500Y-36392000D02*
X47858000Y-36392000D01*
X48500000Y-35750000D02*
X55500000Y-35750000D01*
X45563500Y-35750000D02*
X45575500Y-35762000D01*
X43000000Y-35750000D02*
X45563500Y-35750000D01*
X68500000Y-38000000D02*
X66000000Y-38000000D01*
X41500000Y-40750000D02*
X41500000Y-35750000D01*
X48250000Y-43500000D02*
X47750000Y-43000000D01*
X43750000Y-43000000D02*
X41500000Y-40750000D01*
X60500000Y-43500000D02*
X48250000Y-43500000D01*
X66000000Y-38000000D02*
X60500000Y-43500000D01*
X47750000Y-43000000D02*
X43750000Y-43000000D01*
X55390972Y-35122000D02*
X56500000Y-34012972D01*
X45575500Y-35122000D02*
X55390972Y-35122000D01*
X56500000Y-34012972D02*
X63636410Y-27000000D01*
X63636410Y-27000000D02*
X68500000Y-27000000D01*
X65500000Y-16500000D02*
X66000000Y-17000000D01*
X59000000Y-16500000D02*
X65500000Y-16500000D01*
X48250000Y-34496135D02*
X50000000Y-32750000D01*
X55750000Y-32750000D02*
X58500000Y-30000000D01*
X45575500Y-34492000D02*
X48250000Y-34496135D01*
X58500000Y-30000000D02*
X58500000Y-17000000D01*
X50000000Y-32750000D02*
X55750000Y-32750000D01*
X66000000Y-17000000D02*
X68500000Y-17000000D01*
X58500000Y-17000000D02*
X59000000Y-16500000D01*
X58250000Y-15250000D02*
X63000000Y-15250000D01*
X47898000Y-33852000D02*
X49500000Y-32250000D01*
X45575500Y-33852000D02*
X47898000Y-33852000D01*
X55500000Y-32246480D02*
X57024999Y-30750000D01*
X49500000Y-32250000D02*
X55500000Y-32246480D01*
X57000000Y-16500000D02*
X58250000Y-15250000D01*
X57024999Y-30175019D02*
X57000000Y-16500000D01*
X57024999Y-30750000D02*
X57024999Y-30175019D01*
X45575500Y-31312000D02*
X47580500Y-31312000D01*
X47580500Y-31312000D02*
X48018500Y-31750000D01*
X55750000Y-31250000D02*
X55250000Y-31750000D01*
X48018500Y-31750000D02*
X55250000Y-31750000D01*
X55750000Y-31250000D02*
X55750000Y-23250000D01*
X48208000Y-30042000D02*
X53000000Y-25250000D01*
X45575500Y-30042000D02*
X48208000Y-30042000D01*
X48750000Y-26332500D02*
X48750000Y-26250000D01*
X47580500Y-27502000D02*
X48750000Y-26332500D01*
X45575500Y-27502000D02*
X47580500Y-27502000D01*
X43250000Y-22422000D02*
X45575500Y-22422000D01*
X40750000Y-40750000D02*
X40750000Y-24987000D01*
X43500000Y-43500000D02*
X40750000Y-40750000D01*
X47500000Y-43500000D02*
X43500000Y-43500000D01*
X47999135Y-43999135D02*
X47500000Y-43500000D01*
X40750000Y-24987000D02*
X43250000Y-22422000D01*
X60750000Y-43996377D02*
X47999135Y-43999135D01*
X65750000Y-39000000D02*
X60750000Y-43996377D01*
X68500000Y-39000000D02*
X65750000Y-39000000D01*
X50428500Y-24000000D02*
X53000000Y-24000000D01*
X47580500Y-21152000D02*
X50428500Y-24000000D01*
X45575500Y-21152000D02*
X47580500Y-21152000D01*
X48022000Y-20522000D02*
X48500000Y-21000000D01*
X45575500Y-20522000D02*
X48022000Y-20522000D01*
X48709345Y-19882000D02*
X51577345Y-22750000D01*
X45575500Y-19882000D02*
X48709345Y-19882000D01*
X53000000Y-22750000D02*
X51577345Y-22750000D01*
X49237347Y-19337000D02*
X49150347Y-19250000D01*
X49150347Y-19250000D02*
X49148347Y-19252000D01*
X49148347Y-19252000D02*
X45575500Y-19252000D01*
X65500000Y-18500000D02*
X66000000Y-18000000D01*
X62573002Y-18500000D02*
X65500000Y-18500000D01*
X66000000Y-18000000D02*
X68500000Y-18000000D01*
X60250000Y-19684315D02*
X60250000Y-19676998D01*
X60250000Y-19676998D02*
X61651999Y-18274999D01*
X62348001Y-18274999D02*
X62573002Y-18500000D01*
X61651999Y-18274999D02*
X62348001Y-18274999D01*
X50732000Y-17982000D02*
X53000000Y-20250000D01*
X45575500Y-17982000D02*
X50732000Y-17982000D01*
X57750000Y-19000000D02*
X57750000Y-16750000D01*
X57750000Y-16750000D02*
X58500000Y-16000000D01*
X51342000Y-17342000D02*
X53000000Y-19000000D01*
X45575500Y-17342000D02*
X51342000Y-17342000D01*
X58500000Y-16000000D02*
X68500000Y-16000000D01*
X64250000Y-22500000D02*
X64250000Y-26250000D01*
X62000000Y-20250000D02*
X64250000Y-22500000D01*
X51962000Y-16712000D02*
X53000000Y-17750000D01*
X45575500Y-16712000D02*
X51962000Y-16712000D01*
X62000000Y-19000000D02*
X68500000Y-19000000D01*
X52572000Y-16072000D02*
X53000000Y-16500000D01*
X45575500Y-16072000D02*
X52572000Y-16072000D01*
X65348002Y-29225000D02*
X63874822Y-29225000D01*
X68500000Y-29000000D02*
X65573002Y-29000000D01*
X65573002Y-29000000D02*
X65348002Y-29225000D01*
X52808000Y-15442000D02*
X53000000Y-15250000D01*
X45575500Y-15442000D02*
X52808000Y-15442000D01*
X50052000Y-14802000D02*
X45575500Y-14802000D01*
X50225001Y-14975001D02*
X50052000Y-14802000D01*
X51701997Y-14975001D02*
X50225001Y-14975001D01*
X53500000Y-31000000D02*
X54250000Y-30250000D01*
X52250000Y-14500000D02*
X51701997Y-14975001D01*
X54250000Y-30250000D02*
X54250000Y-15250000D01*
X54250000Y-15250000D02*
X53500000Y-14500000D01*
X53500000Y-14500000D02*
X52250000Y-14500000D01*
X51250000Y-14250000D02*
X47563500Y-14250000D01*
X47485500Y-14172000D02*
X45575500Y-14172000D01*
X47563500Y-14250000D02*
X47485500Y-14172000D01*
X45575500Y-13532000D02*
X50468000Y-13532000D01*
X50468000Y-13532000D02*
X50500000Y-13500000D01*
X64250000Y-36926998D02*
X65176998Y-36000000D01*
X64250000Y-37750000D02*
X64250000Y-36926998D01*
X65176998Y-36000000D02*
X68500000Y-36000000D01*
X59250000Y-41750000D02*
X60250000Y-41750000D01*
X60250000Y-41750000D02*
X64250000Y-37750000D01*
X64750000Y-19750000D02*
X65000000Y-20000000D01*
X65000000Y-20000000D02*
X68500000Y-20000000D01*
X52000000Y-12500000D02*
X52500000Y-13000000D01*
X45575500Y-12902000D02*
X47598000Y-12902000D01*
X48000000Y-12500000D02*
X52000000Y-12500000D01*
X47598000Y-12902000D02*
X48000000Y-12500000D01*
X45575500Y-12262000D02*
X47488000Y-12262000D01*
X47488000Y-12262000D02*
X47750000Y-12000000D01*
X47750000Y-12000000D02*
X53750000Y-12000000D01*
X53750000Y-12000000D02*
X54750000Y-13000000D01*
X54750000Y-31000000D02*
X54750000Y-13082010D01*
X45575500Y-28142000D02*
X43570500Y-28142000D01*
D17*
X45575500Y-25602000D02*
X45575500Y-24332000D01*
X45575500Y-10992000D02*
X45575500Y-11632000D01*
D16*
X68500000Y-14000000D02*
X65250000Y-14000000D01*
X65250000Y-14000000D02*
X65000000Y-14250000D01*
X68250000Y-12000000D02*
X65500000Y-12000000D01*
X65500000Y-12000000D02*
X65000000Y-12500000D01*
X65000000Y-12500000D02*
X65000000Y-14250000D01*
X65500000Y-24000000D02*
X68500000Y-24000000D01*
X65000000Y-31250000D02*
X65250000Y-31000000D01*
X65250000Y-31000000D02*
X68500000Y-31000000D01*
X68500000Y-21000000D02*
X65750000Y-21000000D01*
X65750000Y-21000000D02*
X65500000Y-21250000D01*
X65500000Y-24000000D02*
X65500000Y-23000000D01*
X68500000Y-23000000D02*
X65500000Y-23000000D01*
X65500000Y-21250000D02*
X65500000Y-23000000D01*
X68500000Y-26000000D02*
X65750000Y-26000000D01*
X65000000Y-28500000D02*
X65000000Y-28250000D01*
X65000000Y-28250000D02*
X65250000Y-28000000D01*
X65250000Y-28000000D02*
X68500000Y-28000000D01*
X65000000Y-25500000D02*
X64700010Y-25500000D01*
X65500000Y-25000000D02*
X65500000Y-24000000D01*
X65500000Y-25000000D02*
X65000000Y-25500000D01*
X68500000Y-25000000D02*
X65500000Y-25000000D01*
X65500000Y-26000000D02*
X68500000Y-26000000D01*
X65500000Y-26000000D02*
X65000000Y-25500000D01*
X60250000Y-17500000D02*
X64500000Y-17500000D01*
X59250000Y-18500000D02*
X60250000Y-17500000D01*
X59250000Y-18500000D02*
X59250000Y-23750000D01*
X59250000Y-23750000D02*
X62500000Y-27000000D01*
D17*
X62000000Y-12500000D02*
X63800000Y-12500000D01*
X45575500Y-10992000D02*
X48500000Y-10993363D01*
X60500000Y-10998952D02*
X62000000Y-12500000D01*
D16*
X49318000Y-30682000D02*
X49750000Y-30250000D01*
X45575500Y-30682000D02*
X49318000Y-30682000D01*
D17*
X42500000Y-11750000D02*
X43250000Y-10992000D01*
X42500000Y-21000000D02*
X42500000Y-11750000D01*
X43250000Y-10992000D02*
X45575500Y-10992000D01*
X45575500Y-21792000D02*
X43292000Y-21792000D01*
X43292000Y-21792000D02*
X42500000Y-21000000D01*
X45575500Y-41472000D02*
X45575500Y-42112000D01*
D16*
X63409230Y-28500000D02*
X65000000Y-28500000D01*
X62000000Y-29909230D02*
X63409230Y-28500000D01*
X62000000Y-31250000D02*
X62000000Y-29909230D01*
X49750000Y-30250000D02*
X53000000Y-27000000D01*
D17*
X48500000Y-10993363D02*
X60500000Y-10998952D01*
D16*
X43250000Y-33000000D02*
X43250000Y-32000000D01*
X43250000Y-32000000D02*
X43250000Y-30750000D01*
X43570500Y-29412000D02*
X45575500Y-29412000D01*
X43250000Y-30750000D02*
X43250000Y-29750000D01*
X43250000Y-29750000D02*
X43570500Y-29412000D01*
X43298000Y-31952000D02*
X43250000Y-32000000D01*
X45575500Y-31952000D02*
X43298000Y-31952000D01*
X43318000Y-30682000D02*
X43250000Y-30750000D01*
X45575500Y-30682000D02*
X43318000Y-30682000D01*
X42274999Y-33975001D02*
X43250000Y-33000000D01*
X42274999Y-40176499D02*
X42274999Y-33975001D01*
D17*
X45575500Y-41472000D02*
X43570500Y-41472000D01*
D16*
X43570500Y-41472000D02*
X42274999Y-40176499D01*
X43472000Y-33222000D02*
X43250000Y-33000000D01*
X45575500Y-33222000D02*
X43472000Y-33222000D01*
X42000000Y-27250000D02*
X42000000Y-25500000D01*
X43250000Y-24250000D02*
X43250000Y-23250000D01*
X45575500Y-28142000D02*
X42892000Y-28142000D01*
X42000000Y-25500000D02*
X43250000Y-24250000D01*
X42892000Y-28142000D02*
X42000000Y-27250000D01*
X43332000Y-24332000D02*
X45575500Y-24332000D01*
X43250000Y-24250000D02*
X43332000Y-24332000D01*
X43438000Y-23062000D02*
X45575500Y-23062000D01*
X43250000Y-23250000D02*
X43438000Y-23062000D01*
X47580500Y-23062000D02*
X48000000Y-22642500D01*
X45575500Y-23062000D02*
X47580500Y-23062000D01*
X47580500Y-21792000D02*
X45575500Y-21792000D01*
X48000000Y-22211500D02*
X47580500Y-21792000D01*
X48000000Y-22642500D02*
X48000000Y-22211500D01*
X45575500Y-29412000D02*
X47588000Y-29412000D01*
X47588000Y-29412000D02*
X48000000Y-29000000D01*
X47580500Y-28142000D02*
X45575500Y-28142000D01*
X48000000Y-28561500D02*
X47580500Y-28142000D01*
X48000000Y-29000000D02*
X48000000Y-28561500D01*
D17*
X45575500Y-41472000D02*
X47580500Y-41472000D01*
X48362000Y-42112000D02*
X45575500Y-42112000D01*
X47722000Y-41472000D02*
X48362000Y-42112000D01*
D16*
X47580500Y-41472000D02*
X47722000Y-41472000D01*
D17*
X48825000Y-42575000D02*
X48362000Y-42112000D01*
D16*
X58250000Y-39250000D02*
X63500000Y-34000000D01*
X63500000Y-34000000D02*
X64250000Y-34000000D01*
X58250000Y-39250000D02*
X58250000Y-42575000D01*
D17*
X48825000Y-42575000D02*
X58250000Y-42575000D01*
X58250000Y-42575000D02*
X60375000Y-42575000D01*
D16*
X60375000Y-42575000D02*
X60400000Y-42600000D01*
X65250000Y-37000000D02*
X68500000Y-37000000D01*
D17*
X65000000Y-38000000D02*
X65000000Y-37250000D01*
X60400000Y-42600000D02*
X65000000Y-38000000D01*
D16*
X65000000Y-37250000D02*
X65250000Y-37000000D01*
X64250000Y-34000000D02*
X68500000Y-34000000D01*
D17*
X63800000Y-12500000D02*
X65000000Y-12500000D01*
D16*
X68500000Y-15000000D02*
X64500000Y-15000000D01*
X64500000Y-15000000D02*
X63750000Y-14250000D01*
D17*
X45575500Y-26232000D02*
X45575500Y-26872000D01*
X43000000Y-26500000D02*
X43372000Y-26872000D01*
X43372000Y-26872000D02*
X45575500Y-26872000D01*
X43000000Y-26500000D02*
X43268000Y-26232000D01*
X43268000Y-26232000D02*
X45575500Y-26232000D01*
X43178000Y-28772000D02*
X43000000Y-28950000D01*
X45575500Y-28772000D02*
X43178000Y-28772000D01*
D16*
X50112000Y-18612000D02*
X53000000Y-21500000D01*
X45575500Y-18612000D02*
X50112000Y-18612000D01*
G04 #@! TA.AperFunction,Conductor*
G36*
X63692539Y-270185D02*
G01*
X63738294Y-322989D01*
X63749500Y-374500D01*
X63749500Y-10463115D01*
X63747117Y-10487306D01*
X63744592Y-10500000D01*
X63746974Y-10511977D01*
X63746974Y-10513761D01*
X63747718Y-10518773D01*
X63760359Y-10647124D01*
X63803274Y-10788593D01*
X63806145Y-10793965D01*
X63806147Y-10793969D01*
X63819740Y-10819399D01*
X63872963Y-10918973D01*
X63966749Y-11033251D01*
X64081027Y-11127037D01*
X64086404Y-11129911D01*
X64206031Y-11193853D01*
X64206035Y-11193855D01*
X64211407Y-11196726D01*
X64352876Y-11239641D01*
X64481227Y-11252282D01*
X64486239Y-11253026D01*
X64488023Y-11253026D01*
X64500000Y-11255408D01*
X64512694Y-11252883D01*
X64536885Y-11250500D01*
X65600366Y-11250500D01*
X65667405Y-11270185D01*
X65714927Y-11327047D01*
X65726716Y-11355508D01*
X65735094Y-11386776D01*
X65748939Y-11491941D01*
X65750000Y-11508126D01*
X65750000Y-12832519D01*
X65749833Y-12837126D01*
X65749500Y-12839410D01*
X65749500Y-13160590D01*
X65749833Y-13162853D01*
X65750000Y-13167419D01*
X65750000Y-14500500D01*
X65730315Y-14567539D01*
X65677511Y-14613294D01*
X65626000Y-14624500D01*
X64706899Y-14624500D01*
X64639860Y-14604815D01*
X64619218Y-14588181D01*
X64435195Y-14404158D01*
X64401710Y-14342835D01*
X64400113Y-14299007D01*
X64404561Y-14267748D01*
X64405134Y-14263723D01*
X64405278Y-14250000D01*
X64401569Y-14219350D01*
X64387262Y-14101119D01*
X64387261Y-14101115D01*
X64386363Y-14093694D01*
X64330710Y-13946412D01*
X64326473Y-13940247D01*
X64245768Y-13822821D01*
X64245765Y-13822818D01*
X64241531Y-13816657D01*
X64123976Y-13711919D01*
X63984831Y-13638245D01*
X63869444Y-13609262D01*
X63839378Y-13601710D01*
X63832128Y-13599889D01*
X63750329Y-13599461D01*
X63682158Y-13599104D01*
X63682157Y-13599104D01*
X63674684Y-13599065D01*
X63667421Y-13600809D01*
X63667418Y-13600809D01*
X63598136Y-13617443D01*
X63521588Y-13635820D01*
X63381679Y-13708032D01*
X63263034Y-13811533D01*
X63172501Y-13940348D01*
X63115309Y-14087039D01*
X63094758Y-14243138D01*
X63095578Y-14250566D01*
X63095578Y-14250568D01*
X63107698Y-14360346D01*
X63112035Y-14399633D01*
X63114602Y-14406648D01*
X63114603Y-14406652D01*
X63124203Y-14432885D01*
X63128756Y-14502606D01*
X63094892Y-14563720D01*
X63033362Y-14596825D01*
X63007107Y-14599496D01*
X62932158Y-14599104D01*
X62932157Y-14599104D01*
X62924684Y-14599065D01*
X62917421Y-14600809D01*
X62917418Y-14600809D01*
X62848136Y-14617443D01*
X62771588Y-14635820D01*
X62631679Y-14708032D01*
X62513034Y-14811533D01*
X62508736Y-14817649D01*
X62505820Y-14821798D01*
X62451168Y-14865329D01*
X62404367Y-14874500D01*
X58303284Y-14874500D01*
X58279349Y-14871953D01*
X58277948Y-14871887D01*
X58267934Y-14869731D01*
X58257761Y-14870935D01*
X58234898Y-14873641D01*
X58229016Y-14873988D01*
X58229023Y-14874078D01*
X58223918Y-14874500D01*
X58218807Y-14874500D01*
X58199947Y-14877639D01*
X58194168Y-14878461D01*
X58153968Y-14883219D01*
X58153966Y-14883220D01*
X58143790Y-14884424D01*
X58135623Y-14888346D01*
X58126687Y-14889833D01*
X58082043Y-14913922D01*
X58076840Y-14916574D01*
X58031100Y-14938537D01*
X58026869Y-14942094D01*
X58024983Y-14943980D01*
X58023053Y-14945751D01*
X58023000Y-14945779D01*
X58022883Y-14945652D01*
X58022326Y-14946143D01*
X58016671Y-14949194D01*
X58009711Y-14956723D01*
X58009710Y-14956724D01*
X57980447Y-14988381D01*
X57977072Y-14991891D01*
X56771834Y-16197129D01*
X56752296Y-16212938D01*
X56751875Y-16213322D01*
X56743276Y-16218897D01*
X56736945Y-16226958D01*
X56723013Y-16244697D01*
X56719251Y-16248938D01*
X56719348Y-16249020D01*
X56716044Y-16252919D01*
X56712425Y-16256538D01*
X56701039Y-16272470D01*
X56697704Y-16276921D01*
X56666062Y-16317210D01*
X56663191Y-16325434D01*
X56658128Y-16332519D01*
X56655192Y-16342335D01*
X56655192Y-16342336D01*
X56643463Y-16381555D01*
X56641733Y-16386895D01*
X56631506Y-16416191D01*
X56624858Y-16435234D01*
X56624391Y-16440742D01*
X56624396Y-16443415D01*
X56624305Y-16445616D01*
X56624164Y-16446087D01*
X56624088Y-16446084D01*
X56624068Y-16446408D01*
X56622310Y-16452287D01*
X56622712Y-16462525D01*
X56622712Y-16462528D01*
X56624423Y-16506062D01*
X56624519Y-16510704D01*
X56629772Y-19384187D01*
X56636554Y-23093694D01*
X56636573Y-23104251D01*
X56617011Y-23171327D01*
X56564291Y-23217178D01*
X56495150Y-23227248D01*
X56431542Y-23198339D01*
X56393660Y-23139630D01*
X56389471Y-23119376D01*
X56388966Y-23115204D01*
X56386363Y-23093694D01*
X56366281Y-23040549D01*
X56333354Y-22953408D01*
X56333352Y-22953405D01*
X56330710Y-22946412D01*
X56326473Y-22940247D01*
X56245768Y-22822821D01*
X56245765Y-22822818D01*
X56241531Y-22816657D01*
X56162425Y-22746176D01*
X56129559Y-22716893D01*
X56129558Y-22716892D01*
X56123976Y-22711919D01*
X55984831Y-22638245D01*
X55832128Y-22599889D01*
X55750329Y-22599461D01*
X55682158Y-22599104D01*
X55682157Y-22599104D01*
X55674684Y-22599065D01*
X55667421Y-22600809D01*
X55667418Y-22600809D01*
X55620868Y-22611985D01*
X55521588Y-22635820D01*
X55381679Y-22708032D01*
X55376048Y-22712945D01*
X55376047Y-22712945D01*
X55331015Y-22752229D01*
X55267556Y-22781465D01*
X55198365Y-22771752D01*
X55145408Y-22726174D01*
X55125500Y-22658787D01*
X55125500Y-13053285D01*
X55128047Y-13029359D01*
X55128113Y-13027951D01*
X55130270Y-13017934D01*
X55128629Y-13004064D01*
X55121616Y-12944819D01*
X55115577Y-12893791D01*
X55111142Y-12884555D01*
X55111141Y-12884552D01*
X55064841Y-12788136D01*
X55061463Y-12781101D01*
X55057906Y-12776869D01*
X54053198Y-11772161D01*
X54038071Y-11753432D01*
X54037130Y-11752398D01*
X54031572Y-11743790D01*
X54005445Y-11723193D01*
X54001042Y-11719280D01*
X54000983Y-11719350D01*
X53997080Y-11716043D01*
X53993462Y-11712425D01*
X53977920Y-11701319D01*
X53973272Y-11697830D01*
X53933400Y-11666397D01*
X53924851Y-11663395D01*
X53917481Y-11658128D01*
X53868877Y-11643592D01*
X53863324Y-11641788D01*
X53822817Y-11627563D01*
X53822814Y-11627562D01*
X53815452Y-11624977D01*
X53809945Y-11624500D01*
X53807261Y-11624500D01*
X53804659Y-11624387D01*
X53804585Y-11624365D01*
X53804592Y-11624196D01*
X53803867Y-11624150D01*
X53797713Y-11622310D01*
X53787474Y-11622712D01*
X53787471Y-11622712D01*
X53744419Y-11624404D01*
X53739551Y-11624500D01*
X47803284Y-11624500D01*
X47779349Y-11621953D01*
X47777948Y-11621887D01*
X47767934Y-11619731D01*
X47757761Y-11620935D01*
X47734898Y-11623641D01*
X47729016Y-11623988D01*
X47729023Y-11624078D01*
X47723918Y-11624500D01*
X47718807Y-11624500D01*
X47700404Y-11627563D01*
X47699947Y-11627639D01*
X47694167Y-11628461D01*
X47682575Y-11629833D01*
X47613686Y-11618165D01*
X47562042Y-11571105D01*
X47544000Y-11506693D01*
X47544000Y-10611000D01*
X43607000Y-10611000D01*
X43607000Y-11888023D01*
X43592352Y-11936316D01*
X43595993Y-11937824D01*
X43591322Y-11949101D01*
X43584534Y-11959260D01*
X43570000Y-12032326D01*
X43570000Y-12491674D01*
X43571190Y-12497656D01*
X43583155Y-12557809D01*
X43583155Y-12606191D01*
X43570000Y-12672326D01*
X43570000Y-13131674D01*
X43582161Y-13192810D01*
X43582161Y-13241190D01*
X43570000Y-13302326D01*
X43570000Y-13761674D01*
X43571190Y-13767656D01*
X43583155Y-13827809D01*
X43583155Y-13876191D01*
X43570000Y-13942326D01*
X43570000Y-14401674D01*
X43582161Y-14462810D01*
X43582161Y-14511190D01*
X43570000Y-14572326D01*
X43570000Y-15031674D01*
X43571190Y-15037656D01*
X43583155Y-15097809D01*
X43583155Y-15146191D01*
X43570000Y-15212326D01*
X43570000Y-15671674D01*
X43582161Y-15732810D01*
X43582161Y-15781190D01*
X43570000Y-15842326D01*
X43570000Y-16301674D01*
X43571190Y-16307656D01*
X43583155Y-16367809D01*
X43583155Y-16416191D01*
X43576927Y-16447500D01*
X43570000Y-16482326D01*
X43570000Y-16941674D01*
X43582161Y-17002810D01*
X43582161Y-17051190D01*
X43570000Y-17112326D01*
X43570000Y-17571674D01*
X43571190Y-17577656D01*
X43583155Y-17637809D01*
X43583155Y-17686191D01*
X43581981Y-17692094D01*
X43570000Y-17752326D01*
X43570000Y-18211674D01*
X43582161Y-18272810D01*
X43582161Y-18321190D01*
X43570000Y-18382326D01*
X43570000Y-18841674D01*
X43571190Y-18847656D01*
X43583155Y-18907809D01*
X43583155Y-18956191D01*
X43570000Y-19022326D01*
X43570000Y-19481674D01*
X43582161Y-19542810D01*
X43582161Y-19591190D01*
X43570000Y-19652326D01*
X43570000Y-20111674D01*
X43571190Y-20117656D01*
X43583155Y-20177809D01*
X43583155Y-20226191D01*
X43578419Y-20250000D01*
X43570000Y-20292326D01*
X43570000Y-20751674D01*
X43582161Y-20812810D01*
X43582161Y-20861190D01*
X43570000Y-20922326D01*
X43570000Y-21381674D01*
X43584534Y-21454740D01*
X43591322Y-21464899D01*
X43595993Y-21476176D01*
X43592352Y-21477684D01*
X43607000Y-21525977D01*
X43607000Y-21922500D01*
X43587315Y-21989539D01*
X43534511Y-22035294D01*
X43483000Y-22046500D01*
X43300051Y-22046500D01*
X43275518Y-22044049D01*
X43263053Y-22041532D01*
X43252891Y-22042867D01*
X43247617Y-22043560D01*
X43230438Y-22045817D01*
X43224504Y-22046452D01*
X43223923Y-22046500D01*
X43218807Y-22046500D01*
X43213766Y-22047339D01*
X43213754Y-22047340D01*
X43196781Y-22050165D01*
X43192577Y-22050791D01*
X43139108Y-22057816D01*
X43133194Y-22060750D01*
X43126687Y-22061833D01*
X43079166Y-22087473D01*
X43075502Y-22089370D01*
X43027122Y-22113372D01*
X43022936Y-22116982D01*
X43021226Y-22118736D01*
X43016671Y-22121194D01*
X43009715Y-22128720D01*
X43009714Y-22128720D01*
X42978056Y-22162968D01*
X42975798Y-22165346D01*
X42039679Y-23125804D01*
X40765410Y-24433205D01*
X40520546Y-24684435D01*
X40508789Y-24694056D01*
X40502402Y-24699868D01*
X40493790Y-24705428D01*
X40471184Y-24734103D01*
X40463351Y-24743033D01*
X40462903Y-24743576D01*
X40459324Y-24747248D01*
X40456395Y-24751460D01*
X40450246Y-24760302D01*
X40445821Y-24766276D01*
X40416397Y-24803600D01*
X40413266Y-24812516D01*
X40413001Y-24812943D01*
X40411591Y-24815701D01*
X40411401Y-24816163D01*
X40406007Y-24823920D01*
X40403197Y-24833775D01*
X40392975Y-24869624D01*
X40390725Y-24876704D01*
X40374977Y-24921548D01*
X40374500Y-24927055D01*
X40374500Y-24929739D01*
X40374384Y-24932416D01*
X40374229Y-24932409D01*
X40374021Y-24936097D01*
X40371728Y-24944137D01*
X40372262Y-24954368D01*
X40374332Y-24994065D01*
X40374500Y-25000523D01*
X40374500Y-40696716D01*
X40371953Y-40720651D01*
X40371887Y-40722052D01*
X40369731Y-40732066D01*
X40370935Y-40742239D01*
X40373641Y-40765102D01*
X40373988Y-40770984D01*
X40374078Y-40770977D01*
X40374500Y-40776082D01*
X40374500Y-40781193D01*
X40375339Y-40786233D01*
X40377639Y-40800053D01*
X40378461Y-40805832D01*
X40383219Y-40846032D01*
X40384424Y-40856210D01*
X40388346Y-40864377D01*
X40389833Y-40873313D01*
X40413922Y-40917957D01*
X40416574Y-40923160D01*
X40438537Y-40968900D01*
X40442094Y-40973131D01*
X40443980Y-40975017D01*
X40445751Y-40976947D01*
X40445779Y-40977000D01*
X40445652Y-40977117D01*
X40446143Y-40977674D01*
X40449194Y-40983329D01*
X40456723Y-40990289D01*
X40456724Y-40990290D01*
X40488381Y-41019553D01*
X40491891Y-41022928D01*
X42947322Y-43478359D01*
X42980807Y-43539682D01*
X42975823Y-43609374D01*
X42933951Y-43665307D01*
X42868487Y-43689724D01*
X42851542Y-43689775D01*
X42575500Y-43671682D01*
X42571442Y-43671948D01*
X42285828Y-43690668D01*
X42285823Y-43690669D01*
X42281775Y-43690934D01*
X42277796Y-43691725D01*
X42277792Y-43691726D01*
X42049316Y-43737173D01*
X41993075Y-43748360D01*
X41714341Y-43842977D01*
X41450341Y-43973167D01*
X41274457Y-44090689D01*
X41208983Y-44134438D01*
X41205593Y-44136703D01*
X40984285Y-44330785D01*
X40790203Y-44552093D01*
X40626667Y-44796841D01*
X40606320Y-44838100D01*
X40497802Y-45058154D01*
X40450497Y-45109573D01*
X40382902Y-45127255D01*
X40316477Y-45105585D01*
X40300843Y-45092883D01*
X40264936Y-45058509D01*
X40264932Y-45058505D01*
X40260669Y-45054425D01*
X40084254Y-44940515D01*
X40078779Y-44938308D01*
X40078776Y-44938307D01*
X39894961Y-44864227D01*
X39894956Y-44864226D01*
X39889481Y-44862019D01*
X39683378Y-44821770D01*
X39677857Y-44821500D01*
X39523031Y-44821500D01*
X39366454Y-44836439D01*
X39360794Y-44838099D01*
X39360791Y-44838100D01*
X39265702Y-44865996D01*
X39164951Y-44895553D01*
X39159702Y-44898256D01*
X39159703Y-44898256D01*
X38983504Y-44989004D01*
X38983499Y-44989007D01*
X38978261Y-44991705D01*
X38813121Y-45121424D01*
X38675490Y-45280029D01*
X38672537Y-45285134D01*
X38672536Y-45285135D01*
X38638733Y-45343567D01*
X38570334Y-45461799D01*
X38501447Y-45660174D01*
X38471314Y-45867996D01*
X38481023Y-46077767D01*
X38482405Y-46083500D01*
X38513295Y-46211672D01*
X38530224Y-46281918D01*
X38617140Y-46473081D01*
X38738637Y-46644360D01*
X38742904Y-46648444D01*
X38742905Y-46648446D01*
X38886064Y-46785491D01*
X38886068Y-46785495D01*
X38890331Y-46789575D01*
X39066746Y-46903485D01*
X39072221Y-46905692D01*
X39072224Y-46905693D01*
X39256039Y-46979773D01*
X39256044Y-46979774D01*
X39261519Y-46981981D01*
X39467622Y-47022230D01*
X39473143Y-47022500D01*
X39627969Y-47022500D01*
X39784546Y-47007561D01*
X39790206Y-47005901D01*
X39790209Y-47005900D01*
X39885297Y-46978004D01*
X39986049Y-46948447D01*
X40079565Y-46900283D01*
X40167496Y-46854996D01*
X40167501Y-46854993D01*
X40172739Y-46852295D01*
X40310456Y-46744117D01*
X40375336Y-46718185D01*
X40443935Y-46731446D01*
X40494476Y-46779690D01*
X40498261Y-46786777D01*
X40626667Y-47047159D01*
X40790203Y-47291907D01*
X40984285Y-47513215D01*
X41205593Y-47707297D01*
X41450341Y-47870833D01*
X41714341Y-48001023D01*
X41993075Y-48095640D01*
X41997068Y-48096434D01*
X41997067Y-48096434D01*
X42277792Y-48152274D01*
X42277796Y-48152275D01*
X42281775Y-48153066D01*
X42285823Y-48153331D01*
X42285828Y-48153332D01*
X42571442Y-48172052D01*
X42575500Y-48172318D01*
X42579558Y-48172052D01*
X42865172Y-48153332D01*
X42865177Y-48153331D01*
X42869225Y-48153066D01*
X42873204Y-48152275D01*
X42873208Y-48152274D01*
X43153933Y-48096434D01*
X43153932Y-48096434D01*
X43157925Y-48095640D01*
X43436659Y-48001023D01*
X43700659Y-47870833D01*
X43945407Y-47707297D01*
X44166715Y-47513215D01*
X44360797Y-47291907D01*
X44524333Y-47047159D01*
X44654523Y-46783159D01*
X44749140Y-46504425D01*
X44792331Y-46287290D01*
X44805774Y-46219708D01*
X44805775Y-46219704D01*
X44806566Y-46215725D01*
X44815609Y-46077767D01*
X44825552Y-45926058D01*
X44825818Y-45922000D01*
X44806566Y-45628275D01*
X44749140Y-45339575D01*
X44671065Y-45109573D01*
X44655829Y-45064688D01*
X44655828Y-45064686D01*
X44654523Y-45060841D01*
X44524333Y-44796841D01*
X44360797Y-44552093D01*
X44166715Y-44330785D01*
X43945407Y-44136703D01*
X43942031Y-44134447D01*
X43942019Y-44134438D01*
X43894372Y-44102602D01*
X43849566Y-44048990D01*
X43840859Y-43979665D01*
X43871013Y-43916638D01*
X43930456Y-43879918D01*
X43963262Y-43875500D01*
X47293101Y-43875500D01*
X47360140Y-43895185D01*
X47380782Y-43911819D01*
X47695973Y-44227010D01*
X47711175Y-44245829D01*
X47712058Y-44246799D01*
X47717618Y-44255406D01*
X47725668Y-44261749D01*
X47743711Y-44275967D01*
X47748091Y-44279858D01*
X47748153Y-44279785D01*
X47752051Y-44283088D01*
X47755673Y-44286710D01*
X47759837Y-44289686D01*
X47759840Y-44289688D01*
X47771250Y-44297841D01*
X47775905Y-44301335D01*
X47815807Y-44332778D01*
X47824318Y-44335765D01*
X47831654Y-44341007D01*
X47841473Y-44343943D01*
X47841474Y-44343944D01*
X47880303Y-44355556D01*
X47885829Y-44357350D01*
X47894243Y-44360303D01*
X47924811Y-44371030D01*
X47933764Y-44374172D01*
X47939271Y-44374648D01*
X47941950Y-44374647D01*
X47944508Y-44374758D01*
X47944631Y-44374794D01*
X47944624Y-44374951D01*
X47945296Y-44374993D01*
X47951421Y-44376825D01*
X47961658Y-44376423D01*
X47961660Y-44376423D01*
X47979020Y-44375740D01*
X48004798Y-44374727D01*
X48009590Y-44374632D01*
X57866974Y-44372500D01*
X60696651Y-44371888D01*
X60720227Y-44374399D01*
X60721910Y-44374479D01*
X60731929Y-44376640D01*
X60765123Y-44372724D01*
X60771068Y-44372374D01*
X60771061Y-44372294D01*
X60776165Y-44371871D01*
X60781274Y-44371870D01*
X60786310Y-44371031D01*
X60786319Y-44371030D01*
X60799968Y-44368755D01*
X60805820Y-44367922D01*
X60845901Y-44363193D01*
X60845903Y-44363192D01*
X60856077Y-44361992D01*
X60864347Y-44358024D01*
X60873391Y-44356517D01*
X60917922Y-44332477D01*
X60923167Y-44329805D01*
X60926696Y-44328112D01*
X60968787Y-44307919D01*
X60973019Y-44304364D01*
X60974914Y-44302470D01*
X60976897Y-44300653D01*
X60977024Y-44300792D01*
X60977669Y-44300223D01*
X60983394Y-44297133D01*
X60990349Y-44289605D01*
X60990351Y-44289604D01*
X61019514Y-44258040D01*
X61022941Y-44254477D01*
X61031596Y-44245829D01*
X63555776Y-41723478D01*
X63617111Y-41690015D01*
X63686801Y-41695025D01*
X63742719Y-41736917D01*
X63767112Y-41802390D01*
X63762782Y-41840968D01*
X63763316Y-41841074D01*
X63762129Y-41847041D01*
X63760359Y-41852876D01*
X63755754Y-41899633D01*
X63747718Y-41981224D01*
X63746974Y-41986239D01*
X63746974Y-41988023D01*
X63744592Y-42000000D01*
X63746975Y-42011979D01*
X63747117Y-42012694D01*
X63749500Y-42036885D01*
X63749500Y-52625500D01*
X63729815Y-52692539D01*
X63677011Y-52738294D01*
X63625500Y-52749500D01*
X374500Y-52749500D01*
X307461Y-52729815D01*
X261706Y-52677011D01*
X250500Y-52625500D01*
X250500Y-51161674D01*
X37370000Y-51161674D01*
X37384534Y-51234740D01*
X37439899Y-51317601D01*
X37522760Y-51372966D01*
X37556813Y-51379740D01*
X37589847Y-51386311D01*
X37589850Y-51386311D01*
X37595826Y-51387500D01*
X42215174Y-51387500D01*
X42221150Y-51386311D01*
X42221153Y-51386311D01*
X42254187Y-51379740D01*
X42288240Y-51372966D01*
X42371101Y-51317601D01*
X42426466Y-51234740D01*
X42441000Y-51161674D01*
X42441000Y-48622326D01*
X42426466Y-48549260D01*
X42371101Y-48466399D01*
X42288240Y-48411034D01*
X42254187Y-48404260D01*
X42221153Y-48397689D01*
X42221150Y-48397689D01*
X42215174Y-48396500D01*
X37595826Y-48396500D01*
X37589850Y-48397689D01*
X37589847Y-48397689D01*
X37556813Y-48404260D01*
X37522760Y-48411034D01*
X37439899Y-48466399D01*
X37384534Y-48549260D01*
X37370000Y-48622326D01*
X37370000Y-51161674D01*
X250500Y-51161674D01*
X250500Y-7127996D01*
X38471314Y-7127996D01*
X38481023Y-7337767D01*
X38482405Y-7343500D01*
X38513295Y-7471672D01*
X38530224Y-7541918D01*
X38617140Y-7733081D01*
X38738637Y-7904360D01*
X38742904Y-7908444D01*
X38742905Y-7908446D01*
X38886064Y-8045491D01*
X38886068Y-8045495D01*
X38890331Y-8049575D01*
X39066746Y-8163485D01*
X39072221Y-8165692D01*
X39072224Y-8165693D01*
X39256039Y-8239773D01*
X39256044Y-8239774D01*
X39261519Y-8241981D01*
X39467622Y-8282230D01*
X39473143Y-8282500D01*
X39627969Y-8282500D01*
X39784546Y-8267561D01*
X39790206Y-8265901D01*
X39790209Y-8265900D01*
X39885297Y-8238004D01*
X39986049Y-8208447D01*
X40079565Y-8160283D01*
X40167496Y-8114996D01*
X40167501Y-8114993D01*
X40172739Y-8112295D01*
X40310456Y-8004117D01*
X40375336Y-7978185D01*
X40443935Y-7991446D01*
X40494476Y-8039690D01*
X40498261Y-8046777D01*
X40626667Y-8307159D01*
X40790203Y-8551907D01*
X40984285Y-8773215D01*
X41205593Y-8967297D01*
X41450341Y-9130833D01*
X41714341Y-9261023D01*
X41993075Y-9355640D01*
X41997068Y-9356434D01*
X41997067Y-9356434D01*
X42277792Y-9412274D01*
X42277796Y-9412275D01*
X42281775Y-9413066D01*
X42285823Y-9413331D01*
X42285828Y-9413332D01*
X42571442Y-9432052D01*
X42575500Y-9432318D01*
X42579558Y-9432052D01*
X42865172Y-9413332D01*
X42865177Y-9413331D01*
X42869225Y-9413066D01*
X42873204Y-9412275D01*
X42873208Y-9412274D01*
X43153933Y-9356434D01*
X43153932Y-9356434D01*
X43157925Y-9355640D01*
X43436659Y-9261023D01*
X43700659Y-9130833D01*
X43945407Y-8967297D01*
X44166715Y-8773215D01*
X44360797Y-8551907D01*
X44524333Y-8307159D01*
X44654523Y-8043159D01*
X44749140Y-7764425D01*
X44792331Y-7547290D01*
X44805774Y-7479708D01*
X44805775Y-7479704D01*
X44806566Y-7475725D01*
X44815609Y-7337767D01*
X44825552Y-7186058D01*
X44825818Y-7182000D01*
X44806566Y-6888275D01*
X44749140Y-6599575D01*
X44671065Y-6369573D01*
X44655829Y-6324688D01*
X44655828Y-6324686D01*
X44654523Y-6320841D01*
X44524333Y-6056841D01*
X44360797Y-5812093D01*
X44166715Y-5590785D01*
X43945407Y-5396703D01*
X43700659Y-5233167D01*
X43436659Y-5102977D01*
X43157925Y-5008360D01*
X43103865Y-4997607D01*
X42873208Y-4951726D01*
X42873204Y-4951725D01*
X42869225Y-4950934D01*
X42865177Y-4950669D01*
X42865172Y-4950668D01*
X42579558Y-4931948D01*
X42575500Y-4931682D01*
X42571442Y-4931948D01*
X42285828Y-4950668D01*
X42285823Y-4950669D01*
X42281775Y-4950934D01*
X42277796Y-4951725D01*
X42277792Y-4951726D01*
X42047135Y-4997607D01*
X41993075Y-5008360D01*
X41714341Y-5102977D01*
X41450341Y-5233167D01*
X41205593Y-5396703D01*
X40984285Y-5590785D01*
X40790203Y-5812093D01*
X40626667Y-6056841D01*
X40606320Y-6098100D01*
X40497802Y-6318154D01*
X40450497Y-6369573D01*
X40382902Y-6387255D01*
X40316477Y-6365585D01*
X40300843Y-6352883D01*
X40264936Y-6318509D01*
X40264932Y-6318505D01*
X40260669Y-6314425D01*
X40084254Y-6200515D01*
X40078779Y-6198308D01*
X40078776Y-6198307D01*
X39894961Y-6124227D01*
X39894956Y-6124226D01*
X39889481Y-6122019D01*
X39683378Y-6081770D01*
X39677857Y-6081500D01*
X39523031Y-6081500D01*
X39366454Y-6096439D01*
X39360794Y-6098099D01*
X39360791Y-6098100D01*
X39265703Y-6125996D01*
X39164951Y-6155553D01*
X39159702Y-6158256D01*
X39159703Y-6158256D01*
X38983504Y-6249004D01*
X38983499Y-6249007D01*
X38978261Y-6251705D01*
X38813121Y-6381424D01*
X38675490Y-6540029D01*
X38672537Y-6545134D01*
X38672536Y-6545135D01*
X38638733Y-6603567D01*
X38570334Y-6721799D01*
X38501447Y-6920174D01*
X38471314Y-7127996D01*
X250500Y-7127996D01*
X250500Y-4481674D01*
X37370000Y-4481674D01*
X37384534Y-4554740D01*
X37439899Y-4637601D01*
X37522760Y-4692966D01*
X37556813Y-4699740D01*
X37589847Y-4706311D01*
X37589850Y-4706311D01*
X37595826Y-4707500D01*
X42215174Y-4707500D01*
X42221150Y-4706311D01*
X42221153Y-4706311D01*
X42254187Y-4699740D01*
X42288240Y-4692966D01*
X42371101Y-4637601D01*
X42426466Y-4554740D01*
X42441000Y-4481674D01*
X42441000Y-1942326D01*
X42426466Y-1869260D01*
X42371101Y-1786399D01*
X42288240Y-1731034D01*
X42254187Y-1724260D01*
X42221153Y-1717689D01*
X42221150Y-1717689D01*
X42215174Y-1716500D01*
X37595826Y-1716500D01*
X37589850Y-1717689D01*
X37589847Y-1717689D01*
X37556813Y-1724260D01*
X37522760Y-1731034D01*
X37439899Y-1786399D01*
X37384534Y-1869260D01*
X37370000Y-1942326D01*
X37370000Y-4481674D01*
X250500Y-4481674D01*
X250500Y-374500D01*
X270185Y-307461D01*
X322989Y-261706D01*
X374500Y-250500D01*
X63625500Y-250500D01*
X63692539Y-270185D01*
G37*
G04 #@! TD.AperFunction*
G04 #@! TA.AperFunction,Conductor*
G36*
X65693039Y-33395185D02*
G01*
X65738794Y-33447989D01*
X65750000Y-33499500D01*
X65750000Y-34500500D01*
X65730315Y-34567539D01*
X65677511Y-34613294D01*
X65626000Y-34624500D01*
X63803280Y-34624500D01*
X63779355Y-34621954D01*
X63777951Y-34621888D01*
X63767933Y-34619731D01*
X63757760Y-34620935D01*
X63757758Y-34620935D01*
X63734897Y-34623641D01*
X63729016Y-34623988D01*
X63729023Y-34624078D01*
X63723917Y-34624500D01*
X63718807Y-34624500D01*
X63699953Y-34627638D01*
X63694190Y-34628459D01*
X63683059Y-34629776D01*
X63653967Y-34633219D01*
X63653964Y-34633220D01*
X63643790Y-34634424D01*
X63635623Y-34638346D01*
X63626687Y-34639833D01*
X63582043Y-34663922D01*
X63576840Y-34666574D01*
X63531100Y-34688537D01*
X63526869Y-34692094D01*
X63524983Y-34693980D01*
X63523053Y-34695751D01*
X63523000Y-34695779D01*
X63522883Y-34695652D01*
X63522326Y-34696143D01*
X63516671Y-34699194D01*
X63509711Y-34706723D01*
X63509710Y-34706724D01*
X63480447Y-34738381D01*
X63477072Y-34741891D01*
X61155469Y-37063494D01*
X61094146Y-37096979D01*
X61067143Y-37099811D01*
X60959988Y-37099250D01*
X60932158Y-37099104D01*
X60932157Y-37099104D01*
X60924684Y-37099065D01*
X60917421Y-37100809D01*
X60917418Y-37100809D01*
X60848136Y-37117443D01*
X60771588Y-37135820D01*
X60631679Y-37208032D01*
X60513034Y-37311533D01*
X60422501Y-37440348D01*
X60365309Y-37587039D01*
X60344758Y-37743138D01*
X60345578Y-37750566D01*
X60345578Y-37750568D01*
X60355386Y-37839410D01*
X60362035Y-37899633D01*
X60364601Y-37906645D01*
X60364602Y-37906649D01*
X60383324Y-37957809D01*
X60416143Y-38047490D01*
X60503958Y-38178172D01*
X60524004Y-38196412D01*
X60614878Y-38279102D01*
X60614882Y-38279105D01*
X60620410Y-38284135D01*
X60626980Y-38287702D01*
X60626981Y-38287703D01*
X60752208Y-38355696D01*
X60758776Y-38359262D01*
X60861031Y-38386088D01*
X60903841Y-38397319D01*
X60903843Y-38397319D01*
X60911069Y-38399215D01*
X60988127Y-38400425D01*
X61061025Y-38401571D01*
X61061028Y-38401571D01*
X61068495Y-38401688D01*
X61075776Y-38400020D01*
X61075780Y-38400020D01*
X61214681Y-38368207D01*
X61221968Y-38366538D01*
X61362625Y-38295795D01*
X61368306Y-38290943D01*
X61368309Y-38290941D01*
X61476666Y-38198395D01*
X61476667Y-38198394D01*
X61482348Y-38193542D01*
X61493393Y-38178172D01*
X61513798Y-38149775D01*
X61574224Y-38065683D01*
X61632950Y-37919598D01*
X61634793Y-37906649D01*
X61654562Y-37767744D01*
X61654562Y-37767740D01*
X61655134Y-37763723D01*
X61655278Y-37750000D01*
X61653551Y-37735727D01*
X61649116Y-37699077D01*
X61660604Y-37630159D01*
X61684537Y-37596500D01*
X63869218Y-35411819D01*
X63930541Y-35378334D01*
X63956899Y-35375500D01*
X65155771Y-35375500D01*
X65190361Y-35385657D01*
X65216522Y-35375835D01*
X65225634Y-35375500D01*
X65626000Y-35375500D01*
X65693039Y-35395185D01*
X65738794Y-35447989D01*
X65750000Y-35499500D01*
X65750000Y-35500500D01*
X65730315Y-35567539D01*
X65677511Y-35613294D01*
X65626000Y-35624500D01*
X65230279Y-35624500D01*
X65204187Y-35621724D01*
X65199535Y-35620722D01*
X65192857Y-35617094D01*
X65190706Y-35618477D01*
X65170346Y-35622640D01*
X65161897Y-35623640D01*
X65156013Y-35623987D01*
X65156021Y-35624078D01*
X65150916Y-35624500D01*
X65145805Y-35624500D01*
X65126945Y-35627639D01*
X65121166Y-35628461D01*
X65080966Y-35633219D01*
X65080964Y-35633220D01*
X65070788Y-35634424D01*
X65062621Y-35638346D01*
X65053685Y-35639833D01*
X65011317Y-35662694D01*
X65009041Y-35663922D01*
X65003838Y-35666574D01*
X64958098Y-35688537D01*
X64953867Y-35692094D01*
X64951981Y-35693980D01*
X64950051Y-35695751D01*
X64949998Y-35695779D01*
X64949881Y-35695652D01*
X64949324Y-35696143D01*
X64943669Y-35699194D01*
X64936709Y-35706723D01*
X64936708Y-35706724D01*
X64907445Y-35738381D01*
X64904070Y-35741891D01*
X64022161Y-36623800D01*
X64003432Y-36638927D01*
X64002398Y-36639868D01*
X63993790Y-36645426D01*
X63987448Y-36653471D01*
X63973193Y-36671553D01*
X63969280Y-36675956D01*
X63969350Y-36676015D01*
X63966043Y-36679918D01*
X63962425Y-36683536D01*
X63959451Y-36687698D01*
X63951321Y-36699075D01*
X63947830Y-36703726D01*
X63916397Y-36743598D01*
X63913395Y-36752147D01*
X63908128Y-36759517D01*
X63895326Y-36802326D01*
X63893594Y-36808116D01*
X63891788Y-36813674D01*
X63874977Y-36861546D01*
X63874500Y-36867053D01*
X63874500Y-36869737D01*
X63874387Y-36872339D01*
X63874365Y-36872413D01*
X63874196Y-36872406D01*
X63874150Y-36873131D01*
X63872310Y-36879285D01*
X63872712Y-36889524D01*
X63872712Y-36889527D01*
X63874404Y-36932579D01*
X63874500Y-36937447D01*
X63874500Y-37543101D01*
X63854815Y-37610140D01*
X63838181Y-37630782D01*
X60130782Y-41338181D01*
X60069459Y-41371666D01*
X60043101Y-41374500D01*
X59846525Y-41374500D01*
X59779486Y-41354815D01*
X59751522Y-41327705D01*
X59750707Y-41328424D01*
X59745768Y-41322822D01*
X59741531Y-41316657D01*
X59648489Y-41233759D01*
X59629559Y-41216893D01*
X59629558Y-41216892D01*
X59623976Y-41211919D01*
X59484831Y-41138245D01*
X59346978Y-41103619D01*
X59339378Y-41101710D01*
X59332128Y-41099889D01*
X59250329Y-41099461D01*
X59182158Y-41099104D01*
X59182157Y-41099104D01*
X59174684Y-41099065D01*
X59167421Y-41100809D01*
X59167418Y-41100809D01*
X59115707Y-41113224D01*
X59021588Y-41135820D01*
X58881679Y-41208032D01*
X58876048Y-41212945D01*
X58876047Y-41212945D01*
X58822380Y-41259762D01*
X58763034Y-41311533D01*
X58672501Y-41440348D01*
X58615309Y-41587039D01*
X58594758Y-41743138D01*
X58595578Y-41750566D01*
X58595578Y-41750568D01*
X58596919Y-41762711D01*
X58612035Y-41899633D01*
X58614601Y-41906645D01*
X58614602Y-41906649D01*
X58641893Y-41981224D01*
X58666143Y-42047490D01*
X58753958Y-42178172D01*
X58776183Y-42198395D01*
X58864878Y-42279102D01*
X58864882Y-42279105D01*
X58870410Y-42284135D01*
X59008776Y-42359262D01*
X59111031Y-42386088D01*
X59153841Y-42397319D01*
X59153843Y-42397319D01*
X59161069Y-42399215D01*
X59238127Y-42400425D01*
X59311025Y-42401571D01*
X59311028Y-42401571D01*
X59318495Y-42401688D01*
X59325776Y-42400020D01*
X59325780Y-42400020D01*
X59464681Y-42368207D01*
X59471968Y-42366538D01*
X59612625Y-42295795D01*
X59618306Y-42290943D01*
X59618309Y-42290941D01*
X59726666Y-42198395D01*
X59726667Y-42198394D01*
X59732348Y-42193542D01*
X59744133Y-42177141D01*
X59799237Y-42134187D01*
X59844831Y-42125500D01*
X60196716Y-42125500D01*
X60220651Y-42128047D01*
X60222052Y-42128113D01*
X60232066Y-42130269D01*
X60242239Y-42129065D01*
X60265102Y-42126359D01*
X60270984Y-42126012D01*
X60270977Y-42125922D01*
X60276082Y-42125500D01*
X60281193Y-42125500D01*
X60300053Y-42122361D01*
X60305832Y-42121539D01*
X60346032Y-42116781D01*
X60346034Y-42116780D01*
X60356210Y-42115576D01*
X60364377Y-42111654D01*
X60373313Y-42110167D01*
X60417958Y-42086077D01*
X60423163Y-42083425D01*
X60461867Y-42064840D01*
X60461866Y-42064840D01*
X60468900Y-42061463D01*
X60473131Y-42057906D01*
X60475017Y-42056020D01*
X60476947Y-42054249D01*
X60477000Y-42054221D01*
X60477117Y-42054348D01*
X60477674Y-42053857D01*
X60483329Y-42050806D01*
X60492885Y-42040469D01*
X60519553Y-42011619D01*
X60522928Y-42008109D01*
X64477839Y-38053198D01*
X64496568Y-38038071D01*
X64497602Y-38037130D01*
X64506210Y-38031572D01*
X64526807Y-38005445D01*
X64530720Y-38001042D01*
X64530650Y-38000983D01*
X64533957Y-37997080D01*
X64537575Y-37993462D01*
X64548681Y-37977920D01*
X64552170Y-37973272D01*
X64583603Y-37933400D01*
X64586605Y-37924851D01*
X64591872Y-37917481D01*
X64606405Y-37868885D01*
X64608211Y-37863328D01*
X64622438Y-37822817D01*
X64622440Y-37822807D01*
X64625023Y-37815452D01*
X64625500Y-37809945D01*
X64625500Y-37807262D01*
X64625613Y-37804660D01*
X64625635Y-37804585D01*
X64625804Y-37804592D01*
X64625850Y-37803868D01*
X64627690Y-37797714D01*
X64626513Y-37767744D01*
X64625596Y-37744420D01*
X64625500Y-37739552D01*
X64625500Y-37133897D01*
X64645185Y-37066858D01*
X64661819Y-37046216D01*
X65296216Y-36411819D01*
X65357539Y-36378334D01*
X65383897Y-36375500D01*
X65626000Y-36375500D01*
X65693039Y-36395185D01*
X65738794Y-36447989D01*
X65750000Y-36499500D01*
X65750000Y-37667601D01*
X65730315Y-37734640D01*
X65713681Y-37755282D01*
X60380782Y-43088181D01*
X60319459Y-43121666D01*
X60293101Y-43124500D01*
X48456899Y-43124500D01*
X48389860Y-43104815D01*
X48369218Y-43088181D01*
X48053198Y-42772161D01*
X48038071Y-42753432D01*
X48037130Y-42752398D01*
X48031572Y-42743790D01*
X48005445Y-42723193D01*
X48001042Y-42719280D01*
X48000983Y-42719350D01*
X47997080Y-42716043D01*
X47993462Y-42712425D01*
X47977920Y-42701319D01*
X47973272Y-42697830D01*
X47933400Y-42666397D01*
X47924851Y-42663395D01*
X47917481Y-42658128D01*
X47868877Y-42643592D01*
X47863324Y-42641788D01*
X47822817Y-42627563D01*
X47822814Y-42627562D01*
X47815452Y-42624977D01*
X47809945Y-42624500D01*
X47807261Y-42624500D01*
X47804659Y-42624387D01*
X47804585Y-42624365D01*
X47804592Y-42624196D01*
X47803867Y-42624150D01*
X47797713Y-42622310D01*
X47787474Y-42622712D01*
X47787471Y-42622712D01*
X47744419Y-42624404D01*
X47739551Y-42624500D01*
X47529338Y-42624500D01*
X47496985Y-42615000D01*
X47544000Y-42615000D01*
X47544000Y-41341500D01*
X47563685Y-41274461D01*
X47616489Y-41228706D01*
X47668000Y-41217500D01*
X54741126Y-41217500D01*
X54765061Y-41220047D01*
X54766462Y-41220113D01*
X54776476Y-41222269D01*
X54786649Y-41221065D01*
X54809512Y-41218359D01*
X54815394Y-41218012D01*
X54815387Y-41217922D01*
X54820492Y-41217500D01*
X54825603Y-41217500D01*
X54844463Y-41214361D01*
X54850242Y-41213539D01*
X54890442Y-41208781D01*
X54890444Y-41208780D01*
X54900620Y-41207576D01*
X54908787Y-41203654D01*
X54917723Y-41202167D01*
X54962368Y-41178077D01*
X54967573Y-41175425D01*
X54983694Y-41167684D01*
X55013310Y-41153463D01*
X55017541Y-41149906D01*
X55019427Y-41148020D01*
X55021357Y-41146249D01*
X55021410Y-41146221D01*
X55021527Y-41146348D01*
X55022084Y-41145857D01*
X55027739Y-41142806D01*
X55037027Y-41132759D01*
X55063963Y-41103619D01*
X55067338Y-41100109D01*
X56449425Y-39718022D01*
X56510748Y-39684537D01*
X56580440Y-39689521D01*
X56636373Y-39731393D01*
X56653554Y-39763089D01*
X56666143Y-39797490D01*
X56682448Y-39821754D01*
X56742549Y-39911193D01*
X56753958Y-39928172D01*
X56776183Y-39948395D01*
X56864878Y-40029102D01*
X56864882Y-40029105D01*
X56870410Y-40034135D01*
X57008776Y-40109262D01*
X57111031Y-40136088D01*
X57153841Y-40147319D01*
X57153843Y-40147319D01*
X57161069Y-40149215D01*
X57238127Y-40150425D01*
X57311025Y-40151571D01*
X57311028Y-40151571D01*
X57318495Y-40151688D01*
X57325776Y-40150020D01*
X57325780Y-40150020D01*
X57464681Y-40118207D01*
X57471968Y-40116538D01*
X57612625Y-40045795D01*
X57618306Y-40040943D01*
X57618309Y-40040941D01*
X57726666Y-39948395D01*
X57726667Y-39948394D01*
X57732348Y-39943542D01*
X57743393Y-39928172D01*
X57764168Y-39899260D01*
X57824224Y-39815683D01*
X57882950Y-39669598D01*
X57885257Y-39653390D01*
X57904562Y-39517744D01*
X57904562Y-39517740D01*
X57905134Y-39513723D01*
X57905278Y-39500000D01*
X57899116Y-39449077D01*
X57910604Y-39380159D01*
X57934537Y-39346500D01*
X63869218Y-33411819D01*
X63930541Y-33378334D01*
X63956899Y-33375500D01*
X65626000Y-33375500D01*
X65693039Y-33395185D01*
G37*
G04 #@! TD.AperFunction*
G04 #@! TA.AperFunction,Conductor*
G36*
X42299443Y-35842044D02*
G01*
X42353321Y-35886528D01*
X42367080Y-35913419D01*
X42416143Y-36047490D01*
X42503958Y-36178172D01*
X42526183Y-36198395D01*
X42614878Y-36279102D01*
X42614882Y-36279105D01*
X42620410Y-36284135D01*
X42626980Y-36287702D01*
X42626981Y-36287703D01*
X42752208Y-36355696D01*
X42758776Y-36359262D01*
X42831475Y-36378334D01*
X42903841Y-36397319D01*
X42903843Y-36397319D01*
X42911069Y-36399215D01*
X42988127Y-36400425D01*
X43061025Y-36401571D01*
X43061028Y-36401571D01*
X43068495Y-36401688D01*
X43075776Y-36400020D01*
X43075780Y-36400020D01*
X43214681Y-36368207D01*
X43221968Y-36366538D01*
X43362625Y-36295795D01*
X43368309Y-36290940D01*
X43374538Y-36286802D01*
X43375818Y-36288728D01*
X43429234Y-36264796D01*
X43498319Y-36275235D01*
X43550793Y-36321367D01*
X43570000Y-36387657D01*
X43570000Y-36621674D01*
X43571190Y-36627656D01*
X43583155Y-36687809D01*
X43583155Y-36736191D01*
X43579095Y-36756604D01*
X43570000Y-36802326D01*
X43570000Y-37261674D01*
X43582161Y-37322810D01*
X43582161Y-37371190D01*
X43570000Y-37432326D01*
X43570000Y-37891674D01*
X43571190Y-37897656D01*
X43583155Y-37957809D01*
X43583155Y-38006191D01*
X43574940Y-38047490D01*
X43570000Y-38072326D01*
X43570000Y-38531674D01*
X43582161Y-38592810D01*
X43582161Y-38641190D01*
X43570000Y-38702326D01*
X43570000Y-39161674D01*
X43571190Y-39167656D01*
X43583155Y-39227809D01*
X43583155Y-39276191D01*
X43573727Y-39323589D01*
X43570000Y-39342326D01*
X43570000Y-39801674D01*
X43582161Y-39862810D01*
X43582161Y-39911190D01*
X43570000Y-39972326D01*
X43570000Y-40431674D01*
X43571190Y-40437656D01*
X43583155Y-40497809D01*
X43583155Y-40546191D01*
X43578527Y-40569459D01*
X43570000Y-40612326D01*
X43570000Y-41071674D01*
X43571189Y-41077650D01*
X43571189Y-41077653D01*
X43575456Y-41099104D01*
X43584534Y-41144740D01*
X43591322Y-41154899D01*
X43595993Y-41166176D01*
X43592352Y-41167684D01*
X43607000Y-41215977D01*
X43607000Y-42026601D01*
X43587315Y-42093640D01*
X43534511Y-42139395D01*
X43465353Y-42149339D01*
X43401797Y-42120314D01*
X43395319Y-42114282D01*
X41911819Y-40630782D01*
X41878334Y-40569459D01*
X41875500Y-40543101D01*
X41875500Y-36341964D01*
X41895185Y-36274925D01*
X41918968Y-36247674D01*
X41976666Y-36198395D01*
X41982348Y-36193542D01*
X41993393Y-36178172D01*
X42031241Y-36125500D01*
X42074224Y-36065683D01*
X42132950Y-35919598D01*
X42133395Y-35919777D01*
X42167220Y-35864281D01*
X42230067Y-35833750D01*
X42299443Y-35842044D01*
G37*
G04 #@! TD.AperFunction*
G04 #@! TA.AperFunction,Conductor*
G36*
X63734058Y-28172014D02*
G01*
X63774012Y-28196420D01*
X63864878Y-28279102D01*
X63864882Y-28279105D01*
X63870410Y-28284135D01*
X63876980Y-28287702D01*
X63876981Y-28287703D01*
X63976444Y-28341707D01*
X64025967Y-28390994D01*
X64040981Y-28459232D01*
X64016720Y-28524754D01*
X63960886Y-28566758D01*
X63916627Y-28574678D01*
X63891359Y-28574546D01*
X63806980Y-28574104D01*
X63806979Y-28574104D01*
X63799506Y-28574065D01*
X63792243Y-28575809D01*
X63792240Y-28575809D01*
X63722958Y-28592443D01*
X63646410Y-28610820D01*
X63506501Y-28683032D01*
X63500870Y-28687945D01*
X63500869Y-28687945D01*
X63492135Y-28695564D01*
X63387856Y-28786533D01*
X63297323Y-28915348D01*
X63240131Y-29062039D01*
X63219580Y-29218138D01*
X63220400Y-29225566D01*
X63220400Y-29225568D01*
X63224829Y-29265683D01*
X63236857Y-29374633D01*
X63239423Y-29381645D01*
X63239424Y-29381649D01*
X63258780Y-29434541D01*
X63290965Y-29522490D01*
X63295136Y-29528697D01*
X63369817Y-29639833D01*
X63378780Y-29653172D01*
X63417646Y-29688537D01*
X63489700Y-29754102D01*
X63489704Y-29754105D01*
X63495232Y-29759135D01*
X63501802Y-29762702D01*
X63501803Y-29762703D01*
X63627030Y-29830696D01*
X63633598Y-29834262D01*
X63726431Y-29858616D01*
X63778663Y-29872319D01*
X63778665Y-29872319D01*
X63785891Y-29874215D01*
X63862949Y-29875425D01*
X63935847Y-29876571D01*
X63935850Y-29876571D01*
X63943317Y-29876688D01*
X63950598Y-29875020D01*
X63950602Y-29875020D01*
X64040653Y-29854395D01*
X64110395Y-29858616D01*
X64166784Y-29899872D01*
X64191916Y-29965065D01*
X64177812Y-30033497D01*
X64156017Y-30062946D01*
X58282072Y-35936891D01*
X58220749Y-35970376D01*
X58151057Y-35965392D01*
X58095124Y-35923520D01*
X58070707Y-35858056D01*
X58079339Y-35802959D01*
X58105299Y-35738381D01*
X58132950Y-35669598D01*
X58134003Y-35662201D01*
X58154562Y-35517744D01*
X58154562Y-35517740D01*
X58155134Y-35513723D01*
X58155278Y-35500000D01*
X58148984Y-35447989D01*
X58137262Y-35351119D01*
X58137261Y-35351115D01*
X58136363Y-35343694D01*
X58095216Y-35234800D01*
X58083354Y-35203408D01*
X58083352Y-35203405D01*
X58080710Y-35196412D01*
X58076473Y-35190247D01*
X57995768Y-35072821D01*
X57995765Y-35072818D01*
X57991531Y-35066657D01*
X57873976Y-34961919D01*
X57734831Y-34888245D01*
X57582128Y-34849889D01*
X57500329Y-34849461D01*
X57432158Y-34849104D01*
X57432157Y-34849104D01*
X57424684Y-34849065D01*
X57417421Y-34850809D01*
X57417418Y-34850809D01*
X57348136Y-34867442D01*
X57271588Y-34885820D01*
X57209065Y-34918090D01*
X57140466Y-34931345D01*
X57075589Y-34905408D01*
X57035033Y-34848513D01*
X57031675Y-34778724D01*
X57064638Y-34720095D01*
X63603003Y-28200328D01*
X63664374Y-28166930D01*
X63734058Y-28172014D01*
G37*
G04 #@! TD.AperFunction*
G04 #@! TA.AperFunction,Conductor*
G36*
X43550039Y-22817185D02*
G01*
X43595794Y-22869989D01*
X43607000Y-22921500D01*
X43607000Y-23318023D01*
X43592352Y-23366316D01*
X43595993Y-23367824D01*
X43591322Y-23379101D01*
X43584534Y-23389260D01*
X43579971Y-23412200D01*
X43575152Y-23436428D01*
X43570000Y-23462326D01*
X43570000Y-23921674D01*
X43584534Y-23994740D01*
X43591322Y-24004899D01*
X43595993Y-24016176D01*
X43592352Y-24017684D01*
X43607000Y-24065977D01*
X43607000Y-25657500D01*
X43587315Y-25724539D01*
X43534511Y-25770294D01*
X43483000Y-25781500D01*
X43302102Y-25781500D01*
X43287528Y-25780641D01*
X43262894Y-25777725D01*
X43262891Y-25777725D01*
X43253689Y-25776636D01*
X43195965Y-25787179D01*
X43192124Y-25787818D01*
X43134038Y-25796551D01*
X43127525Y-25799679D01*
X43120427Y-25800975D01*
X43112201Y-25805248D01*
X43068343Y-25828030D01*
X43064882Y-25829759D01*
X43049352Y-25837217D01*
X42995029Y-25849433D01*
X42932158Y-25849104D01*
X42932157Y-25849104D01*
X42924684Y-25849065D01*
X42917421Y-25850809D01*
X42917418Y-25850809D01*
X42848136Y-25867443D01*
X42771588Y-25885820D01*
X42631679Y-25958032D01*
X42513034Y-26061533D01*
X42422501Y-26190348D01*
X42365309Y-26337039D01*
X42344758Y-26493138D01*
X42345578Y-26500566D01*
X42345578Y-26500568D01*
X42352742Y-26565459D01*
X42362035Y-26649633D01*
X42364601Y-26656645D01*
X42364602Y-26656649D01*
X42378552Y-26694768D01*
X42416143Y-26797490D01*
X42503958Y-26928172D01*
X42550435Y-26970463D01*
X42614878Y-27029102D01*
X42614882Y-27029105D01*
X42620410Y-27034135D01*
X42758776Y-27109262D01*
X42861031Y-27136088D01*
X42903841Y-27147319D01*
X42903843Y-27147319D01*
X42911069Y-27149215D01*
X42951398Y-27149849D01*
X42959241Y-27149972D01*
X43025963Y-27170708D01*
X43047527Y-27190599D01*
X43047633Y-27190486D01*
X43054389Y-27196831D01*
X43060128Y-27204110D01*
X43108446Y-27237505D01*
X43111546Y-27239719D01*
X43158816Y-27274634D01*
X43165632Y-27277027D01*
X43171569Y-27281131D01*
X43227516Y-27298825D01*
X43231209Y-27300057D01*
X43277884Y-27316448D01*
X43277888Y-27316449D01*
X43286631Y-27319519D01*
X43293735Y-27319798D01*
X43293986Y-27319847D01*
X43300730Y-27321980D01*
X43307337Y-27322500D01*
X43360068Y-27322500D01*
X43364937Y-27322596D01*
X43421994Y-27324838D01*
X43429076Y-27322960D01*
X43437435Y-27322500D01*
X43446000Y-27322500D01*
X43513039Y-27342185D01*
X43558794Y-27394989D01*
X43570000Y-27446500D01*
X43570000Y-27731674D01*
X43584534Y-27804740D01*
X43591322Y-27814899D01*
X43595993Y-27826176D01*
X43592352Y-27827684D01*
X43607000Y-27875977D01*
X43607000Y-28197500D01*
X43587315Y-28264539D01*
X43534511Y-28310294D01*
X43483000Y-28321500D01*
X43212103Y-28321500D01*
X43197529Y-28320641D01*
X43172891Y-28317725D01*
X43163690Y-28316636D01*
X43163233Y-28316719D01*
X43138540Y-28314058D01*
X43082128Y-28299889D01*
X43000329Y-28299461D01*
X42932158Y-28299104D01*
X42932157Y-28299104D01*
X42924684Y-28299065D01*
X42917421Y-28300809D01*
X42917418Y-28300809D01*
X42862233Y-28314058D01*
X42771588Y-28335820D01*
X42631679Y-28408032D01*
X42513034Y-28511533D01*
X42422501Y-28640348D01*
X42365309Y-28787039D01*
X42344758Y-28943138D01*
X42362035Y-29099633D01*
X42364601Y-29106645D01*
X42364602Y-29106649D01*
X42383248Y-29157601D01*
X42416143Y-29247490D01*
X42503958Y-29378172D01*
X42558693Y-29427977D01*
X42614878Y-29479102D01*
X42614882Y-29479105D01*
X42620410Y-29484135D01*
X42626980Y-29487702D01*
X42626981Y-29487703D01*
X42727904Y-29542500D01*
X42758776Y-29559262D01*
X42857521Y-29585167D01*
X42903841Y-29597319D01*
X42903843Y-29597319D01*
X42911069Y-29599215D01*
X42988127Y-29600425D01*
X43061025Y-29601571D01*
X43061028Y-29601571D01*
X43068495Y-29601688D01*
X43075776Y-29600020D01*
X43075780Y-29600020D01*
X43214681Y-29568207D01*
X43221968Y-29566538D01*
X43362625Y-29495795D01*
X43368308Y-29490942D01*
X43368313Y-29490938D01*
X43402469Y-29461766D01*
X43466230Y-29433195D01*
X43535316Y-29443632D01*
X43587792Y-29489763D01*
X43607000Y-29556056D01*
X43607000Y-29668023D01*
X43592352Y-29716316D01*
X43595993Y-29717824D01*
X43591322Y-29729101D01*
X43584534Y-29739260D01*
X43570000Y-29812326D01*
X43570000Y-30271674D01*
X43571189Y-30277650D01*
X43571189Y-30277653D01*
X43574414Y-30293864D01*
X43584534Y-30344740D01*
X43591322Y-30354899D01*
X43595993Y-30366176D01*
X43592352Y-30367684D01*
X43607000Y-30415977D01*
X43607000Y-30938023D01*
X43592352Y-30986316D01*
X43595993Y-30987824D01*
X43591322Y-30999101D01*
X43584534Y-31009260D01*
X43580276Y-31030668D01*
X43571492Y-31074827D01*
X43570000Y-31082326D01*
X43570000Y-31541674D01*
X43584534Y-31614740D01*
X43591322Y-31624899D01*
X43595993Y-31636176D01*
X43592352Y-31637684D01*
X43607000Y-31685977D01*
X43607000Y-32208023D01*
X43592352Y-32256316D01*
X43595993Y-32257824D01*
X43591322Y-32269101D01*
X43584534Y-32279260D01*
X43582151Y-32291241D01*
X43571245Y-32346069D01*
X43570000Y-32352326D01*
X43570000Y-32811674D01*
X43584534Y-32884740D01*
X43591322Y-32894899D01*
X43595993Y-32906176D01*
X43592352Y-32907684D01*
X43607000Y-32955977D01*
X43607000Y-33478023D01*
X43592352Y-33526316D01*
X43595993Y-33527824D01*
X43591322Y-33539101D01*
X43584534Y-33549260D01*
X43570000Y-33622326D01*
X43570000Y-34081674D01*
X43571190Y-34087656D01*
X43583155Y-34147809D01*
X43583155Y-34196191D01*
X43570000Y-34262326D01*
X43570000Y-34721674D01*
X43582161Y-34782810D01*
X43582161Y-34831190D01*
X43570000Y-34892326D01*
X43570000Y-35112062D01*
X43550315Y-35179101D01*
X43497511Y-35224856D01*
X43428353Y-35234800D01*
X43376934Y-35214555D01*
X43373976Y-35211919D01*
X43234831Y-35138245D01*
X43082128Y-35099889D01*
X43000329Y-35099461D01*
X42932158Y-35099104D01*
X42932157Y-35099104D01*
X42924684Y-35099065D01*
X42917421Y-35100809D01*
X42917418Y-35100809D01*
X42870547Y-35112062D01*
X42771588Y-35135820D01*
X42631679Y-35208032D01*
X42626048Y-35212945D01*
X42626047Y-35212945D01*
X42621521Y-35216893D01*
X42513034Y-35311533D01*
X42422501Y-35440348D01*
X42419785Y-35447313D01*
X42419785Y-35447314D01*
X42395478Y-35509660D01*
X42365309Y-35587039D01*
X42362323Y-35585875D01*
X42334012Y-35633467D01*
X42271497Y-35664671D01*
X42202036Y-35657123D01*
X42147683Y-35613220D01*
X42133625Y-35586447D01*
X42083354Y-35453409D01*
X42080710Y-35446412D01*
X42056935Y-35411819D01*
X41995768Y-35322821D01*
X41995765Y-35322818D01*
X41991531Y-35316657D01*
X41873976Y-35211919D01*
X41734831Y-35138245D01*
X41582128Y-35099889D01*
X41500329Y-35099461D01*
X41432158Y-35099104D01*
X41432157Y-35099104D01*
X41424684Y-35099065D01*
X41417421Y-35100809D01*
X41417418Y-35100809D01*
X41278447Y-35134173D01*
X41208664Y-35130682D01*
X41151847Y-35090018D01*
X41126034Y-35025092D01*
X41125500Y-35013599D01*
X41125500Y-25190156D01*
X41145185Y-25123117D01*
X41160701Y-25103607D01*
X43088566Y-23125616D01*
X43371865Y-22834951D01*
X43432753Y-22800682D01*
X43460664Y-22797500D01*
X43483000Y-22797500D01*
X43550039Y-22817185D01*
G37*
G04 #@! TD.AperFunction*
G04 #@! TA.AperFunction,Conductor*
G36*
X65360140Y-16895185D02*
G01*
X65380782Y-16911819D01*
X65696805Y-17227842D01*
X65711907Y-17246541D01*
X65712865Y-17247594D01*
X65718428Y-17256210D01*
X65719864Y-17257342D01*
X65748274Y-17315759D01*
X65750000Y-17336378D01*
X65750000Y-17667601D01*
X65730315Y-17734640D01*
X65713681Y-17755282D01*
X65380782Y-18088181D01*
X65319459Y-18121666D01*
X65293101Y-18124500D01*
X62779901Y-18124500D01*
X62712862Y-18104815D01*
X62692220Y-18088181D01*
X62651199Y-18047160D01*
X62636072Y-18028431D01*
X62635131Y-18027397D01*
X62629573Y-18018789D01*
X62603446Y-17998192D01*
X62599043Y-17994279D01*
X62598984Y-17994349D01*
X62595081Y-17991042D01*
X62591463Y-17987424D01*
X62575921Y-17976318D01*
X62571273Y-17972829D01*
X62531401Y-17941396D01*
X62522852Y-17938394D01*
X62515482Y-17933127D01*
X62466878Y-17918591D01*
X62461325Y-17916787D01*
X62420818Y-17902562D01*
X62420815Y-17902561D01*
X62413453Y-17899976D01*
X62407946Y-17899499D01*
X62405262Y-17899499D01*
X62402660Y-17899386D01*
X62402586Y-17899364D01*
X62402593Y-17899195D01*
X62401868Y-17899149D01*
X62395714Y-17897309D01*
X62385475Y-17897711D01*
X62385472Y-17897711D01*
X62342420Y-17899403D01*
X62337552Y-17899499D01*
X61705283Y-17899499D01*
X61681348Y-17896952D01*
X61679947Y-17896886D01*
X61669933Y-17894730D01*
X61659760Y-17895934D01*
X61636897Y-17898640D01*
X61631015Y-17898987D01*
X61631022Y-17899077D01*
X61625917Y-17899499D01*
X61620806Y-17899499D01*
X61602403Y-17902562D01*
X61601946Y-17902638D01*
X61596167Y-17903460D01*
X61555967Y-17908218D01*
X61555965Y-17908219D01*
X61545789Y-17909423D01*
X61537622Y-17913345D01*
X61528686Y-17914832D01*
X61492006Y-17934624D01*
X61484042Y-17938921D01*
X61478839Y-17941573D01*
X61433099Y-17963536D01*
X61428868Y-17967093D01*
X61426982Y-17968979D01*
X61425052Y-17970750D01*
X61424999Y-17970778D01*
X61424882Y-17970651D01*
X61424325Y-17971142D01*
X61418670Y-17974193D01*
X61411710Y-17981722D01*
X61411709Y-17981723D01*
X61382446Y-18013380D01*
X61379071Y-18016890D01*
X60398191Y-18997770D01*
X60336868Y-19031255D01*
X60309861Y-19034087D01*
X60182158Y-19033419D01*
X60182157Y-19033419D01*
X60174684Y-19033380D01*
X60167421Y-19035124D01*
X60167418Y-19035124D01*
X60098136Y-19051757D01*
X60021588Y-19070135D01*
X59881679Y-19142347D01*
X59763034Y-19245848D01*
X59672501Y-19374663D01*
X59615309Y-19521354D01*
X59594758Y-19677453D01*
X59595578Y-19684881D01*
X59595578Y-19684883D01*
X59602830Y-19750568D01*
X59612035Y-19833948D01*
X59666143Y-19981805D01*
X59753958Y-20112487D01*
X59806823Y-20160590D01*
X59864878Y-20213417D01*
X59864882Y-20213420D01*
X59870410Y-20218450D01*
X59876980Y-20222017D01*
X59876981Y-20222018D01*
X59997957Y-20287703D01*
X60008776Y-20293577D01*
X60111031Y-20320403D01*
X60153841Y-20331634D01*
X60153843Y-20331634D01*
X60161069Y-20333530D01*
X60238127Y-20334740D01*
X60311025Y-20335886D01*
X60311028Y-20335886D01*
X60318495Y-20336003D01*
X60325776Y-20334335D01*
X60325780Y-20334335D01*
X60464681Y-20302522D01*
X60471968Y-20300853D01*
X60612625Y-20230110D01*
X60618306Y-20225258D01*
X60618309Y-20225256D01*
X60726666Y-20132710D01*
X60726667Y-20132709D01*
X60732348Y-20127857D01*
X60743393Y-20112487D01*
X60785637Y-20053697D01*
X60824224Y-19999998D01*
X60882950Y-19853913D01*
X60885014Y-19839410D01*
X60904562Y-19702059D01*
X60904562Y-19702055D01*
X60905134Y-19698038D01*
X60905278Y-19684315D01*
X60902185Y-19658754D01*
X60898326Y-19626866D01*
X60909814Y-19557947D01*
X60933747Y-19524288D01*
X61210299Y-19247736D01*
X61271622Y-19214251D01*
X61341314Y-19219235D01*
X61397247Y-19261107D01*
X61409686Y-19284058D01*
X61410179Y-19283807D01*
X61413574Y-19290469D01*
X61416143Y-19297490D01*
X61503958Y-19428172D01*
X61606364Y-19521354D01*
X61620410Y-19534135D01*
X61618175Y-19536591D01*
X61652202Y-19579785D01*
X61658902Y-19649333D01*
X61626937Y-19711462D01*
X61618637Y-19719409D01*
X61518669Y-19806616D01*
X61518664Y-19806622D01*
X61513034Y-19811533D01*
X61422501Y-19940348D01*
X61365309Y-20087039D01*
X61344758Y-20243138D01*
X61345578Y-20250566D01*
X61345578Y-20250568D01*
X61356452Y-20349065D01*
X61362035Y-20399633D01*
X61364601Y-20406645D01*
X61364602Y-20406649D01*
X61379731Y-20447989D01*
X61416143Y-20547490D01*
X61503958Y-20678172D01*
X61526183Y-20698395D01*
X61614878Y-20779102D01*
X61614882Y-20779105D01*
X61620410Y-20784135D01*
X61626980Y-20787702D01*
X61626981Y-20787703D01*
X61752208Y-20855696D01*
X61758776Y-20859262D01*
X61861031Y-20886088D01*
X61903841Y-20897319D01*
X61903843Y-20897319D01*
X61911069Y-20899215D01*
X62068495Y-20901688D01*
X62068453Y-20904357D01*
X62124801Y-20914671D01*
X62156696Y-20937733D01*
X63838181Y-22619218D01*
X63871666Y-22680541D01*
X63874500Y-22706899D01*
X63874500Y-25657915D01*
X63854815Y-25724954D01*
X63832015Y-25751357D01*
X63763034Y-25811533D01*
X63672501Y-25940348D01*
X63615309Y-26087039D01*
X63594758Y-26243138D01*
X63595578Y-26250566D01*
X63595578Y-26250568D01*
X63597474Y-26267744D01*
X63612035Y-26399633D01*
X63614601Y-26406646D01*
X63614603Y-26406653D01*
X63636897Y-26467572D01*
X63641451Y-26537294D01*
X63607588Y-26598409D01*
X63552937Y-26627814D01*
X63553445Y-26629622D01*
X63543576Y-26632396D01*
X63533394Y-26633511D01*
X63524851Y-26637522D01*
X63522407Y-26638283D01*
X63513097Y-26639833D01*
X63477051Y-26659282D01*
X63470372Y-26662886D01*
X63464191Y-26666001D01*
X63427299Y-26683322D01*
X63427293Y-26683326D01*
X63420236Y-26686639D01*
X63415974Y-26690159D01*
X63414070Y-26692030D01*
X63412076Y-26693827D01*
X63411969Y-26693709D01*
X63409905Y-26695512D01*
X63403081Y-26699194D01*
X63396127Y-26706717D01*
X63396123Y-26706720D01*
X63368413Y-26736697D01*
X63364270Y-26740969D01*
X62156735Y-27927617D01*
X56285316Y-33697478D01*
X56280880Y-33701510D01*
X56280896Y-33701528D01*
X56278906Y-33703354D01*
X56276869Y-33705066D01*
X56236082Y-33745853D01*
X56235314Y-33746615D01*
X56214559Y-33767011D01*
X56213713Y-33768173D01*
X56213078Y-33768857D01*
X55271754Y-34710181D01*
X55210431Y-34743666D01*
X55184073Y-34746500D01*
X48830538Y-34746500D01*
X48763499Y-34726815D01*
X48717744Y-34674011D01*
X48707800Y-34604853D01*
X48736825Y-34541297D01*
X48742954Y-34534722D01*
X50118992Y-33161722D01*
X50180352Y-33128305D01*
X50206576Y-33125500D01*
X55696716Y-33125500D01*
X55720651Y-33128047D01*
X55722052Y-33128113D01*
X55732066Y-33130269D01*
X55742239Y-33129065D01*
X55765102Y-33126359D01*
X55770984Y-33126012D01*
X55770977Y-33125922D01*
X55776082Y-33125500D01*
X55781193Y-33125500D01*
X55800053Y-33122361D01*
X55805832Y-33121539D01*
X55846032Y-33116781D01*
X55846034Y-33116780D01*
X55856210Y-33115576D01*
X55864377Y-33111654D01*
X55873313Y-33110167D01*
X55917958Y-33086077D01*
X55923163Y-33083425D01*
X55961867Y-33064840D01*
X55961866Y-33064840D01*
X55968900Y-33061463D01*
X55973131Y-33057906D01*
X55975017Y-33056020D01*
X55976947Y-33054249D01*
X55977000Y-33054221D01*
X55977117Y-33054348D01*
X55977674Y-33053857D01*
X55983329Y-33050806D01*
X56019553Y-33011619D01*
X56022928Y-33008109D01*
X58727839Y-30303198D01*
X58746568Y-30288071D01*
X58747602Y-30287130D01*
X58756210Y-30281572D01*
X58776807Y-30255445D01*
X58780720Y-30251042D01*
X58780650Y-30250983D01*
X58783957Y-30247080D01*
X58787575Y-30243462D01*
X58798681Y-30227920D01*
X58802170Y-30223272D01*
X58833603Y-30183400D01*
X58836605Y-30174851D01*
X58841872Y-30167481D01*
X58856405Y-30118885D01*
X58858211Y-30113328D01*
X58872438Y-30072817D01*
X58872440Y-30072807D01*
X58875023Y-30065452D01*
X58875500Y-30059945D01*
X58875500Y-30057262D01*
X58875613Y-30054660D01*
X58875635Y-30054585D01*
X58875804Y-30054592D01*
X58875850Y-30053868D01*
X58877690Y-30047714D01*
X58877132Y-30033497D01*
X58875596Y-29994420D01*
X58875500Y-29989552D01*
X58875500Y-17206899D01*
X58895185Y-17139860D01*
X58911819Y-17119218D01*
X59119219Y-16911819D01*
X59180542Y-16878334D01*
X59206900Y-16875500D01*
X65293101Y-16875500D01*
X65360140Y-16895185D01*
G37*
G04 #@! TD.AperFunction*
G04 #@! TA.AperFunction,Conductor*
G36*
X47744767Y-32012390D02*
G01*
X47763054Y-32026806D01*
X47767460Y-32030721D01*
X47767519Y-32030651D01*
X47771416Y-32033953D01*
X47775039Y-32037576D01*
X47779204Y-32040552D01*
X47790588Y-32048687D01*
X47795261Y-32052196D01*
X47835100Y-32083603D01*
X47843649Y-32086605D01*
X47851019Y-32091872D01*
X47860836Y-32094808D01*
X47860838Y-32094809D01*
X47899627Y-32106409D01*
X47905185Y-32108215D01*
X47945686Y-32122438D01*
X47945688Y-32122439D01*
X47953048Y-32125023D01*
X47958555Y-32125500D01*
X47961238Y-32125500D01*
X47963837Y-32125613D01*
X47963915Y-32125636D01*
X47963908Y-32125804D01*
X47964629Y-32125849D01*
X47970787Y-32127691D01*
X47981025Y-32127289D01*
X47981027Y-32127289D01*
X48024106Y-32125596D01*
X48028974Y-32125500D01*
X48794101Y-32125500D01*
X48861140Y-32145185D01*
X48906895Y-32197989D01*
X48916839Y-32267147D01*
X48887814Y-32330703D01*
X48881782Y-32337181D01*
X47778782Y-33440181D01*
X47717459Y-33473666D01*
X47691101Y-33476500D01*
X47668000Y-33476500D01*
X47600961Y-33456815D01*
X47555206Y-33404011D01*
X47544000Y-33352500D01*
X47544000Y-32955977D01*
X47558648Y-32907684D01*
X47555007Y-32906176D01*
X47559678Y-32894899D01*
X47566466Y-32884740D01*
X47581000Y-32811674D01*
X47581000Y-32352326D01*
X47579756Y-32346069D01*
X47568849Y-32291241D01*
X47566466Y-32279260D01*
X47559678Y-32269101D01*
X47555007Y-32257824D01*
X47558648Y-32256316D01*
X47544000Y-32208023D01*
X47544000Y-32109770D01*
X47563685Y-32042731D01*
X47616489Y-31996976D01*
X47685647Y-31987032D01*
X47744767Y-32012390D01*
G37*
G04 #@! TD.AperFunction*
G04 #@! TA.AperFunction,Conductor*
G36*
X65693039Y-30395185D02*
G01*
X65738794Y-30447989D01*
X65750000Y-30499500D01*
X65750000Y-31500500D01*
X65730315Y-31567539D01*
X65677511Y-31613294D01*
X65626000Y-31624500D01*
X63955899Y-31624500D01*
X63888860Y-31604815D01*
X63843105Y-31552011D01*
X63833161Y-31482853D01*
X63862186Y-31419297D01*
X63868218Y-31412819D01*
X64869218Y-30411819D01*
X64930541Y-30378334D01*
X64956899Y-30375500D01*
X65626000Y-30375500D01*
X65693039Y-30395185D01*
G37*
G04 #@! TD.AperFunction*
G04 #@! TA.AperFunction,Conductor*
G36*
X53799312Y-25342537D02*
G01*
X53853190Y-25387022D01*
X53874500Y-25456526D01*
X53874500Y-30043101D01*
X53854815Y-30110140D01*
X53838181Y-30130782D01*
X53655469Y-30313494D01*
X53594146Y-30346979D01*
X53567143Y-30349811D01*
X53459988Y-30349250D01*
X53432158Y-30349104D01*
X53432157Y-30349104D01*
X53424684Y-30349065D01*
X53417421Y-30350809D01*
X53417418Y-30350809D01*
X53353411Y-30366176D01*
X53271588Y-30385820D01*
X53131679Y-30458032D01*
X53126048Y-30462945D01*
X53126047Y-30462945D01*
X53083271Y-30500261D01*
X53013034Y-30561533D01*
X52922501Y-30690348D01*
X52865309Y-30837039D01*
X52844758Y-30993138D01*
X52845578Y-31000566D01*
X52845578Y-31000568D01*
X52851675Y-31055790D01*
X52862035Y-31149633D01*
X52864601Y-31156646D01*
X52864603Y-31156653D01*
X52883352Y-31207885D01*
X52887906Y-31277607D01*
X52854043Y-31338722D01*
X52792514Y-31371827D01*
X52766905Y-31374500D01*
X48225399Y-31374500D01*
X48158360Y-31354815D01*
X48137718Y-31338181D01*
X47883698Y-31084161D01*
X47868571Y-31065432D01*
X47867630Y-31064398D01*
X47862072Y-31055790D01*
X47835945Y-31035193D01*
X47831542Y-31031280D01*
X47831483Y-31031350D01*
X47827580Y-31028043D01*
X47823962Y-31024425D01*
X47808420Y-31013319D01*
X47803772Y-31009830D01*
X47763900Y-30978397D01*
X47755351Y-30975395D01*
X47747981Y-30970128D01*
X47699377Y-30955592D01*
X47693824Y-30953788D01*
X47653316Y-30939562D01*
X47653309Y-30939560D01*
X47645952Y-30936977D01*
X47640855Y-30936535D01*
X47580509Y-30903754D01*
X47546891Y-30842504D01*
X47544000Y-30815883D01*
X47544000Y-30541500D01*
X47563685Y-30474461D01*
X47616489Y-30428706D01*
X47668000Y-30417500D01*
X48154716Y-30417500D01*
X48178651Y-30420047D01*
X48180052Y-30420113D01*
X48190066Y-30422269D01*
X48200239Y-30421065D01*
X48223102Y-30418359D01*
X48228984Y-30418012D01*
X48228977Y-30417922D01*
X48234082Y-30417500D01*
X48239193Y-30417500D01*
X48258053Y-30414361D01*
X48263832Y-30413539D01*
X48304032Y-30408781D01*
X48304034Y-30408780D01*
X48314210Y-30407576D01*
X48322377Y-30403654D01*
X48331313Y-30402167D01*
X48375958Y-30378077D01*
X48381163Y-30375425D01*
X48397284Y-30367684D01*
X48426900Y-30353463D01*
X48431131Y-30349906D01*
X48433017Y-30348020D01*
X48434947Y-30346249D01*
X48435000Y-30346221D01*
X48435117Y-30346348D01*
X48435674Y-30345857D01*
X48441329Y-30342806D01*
X48450617Y-30332759D01*
X48477553Y-30303619D01*
X48480928Y-30300109D01*
X52845146Y-25935891D01*
X52906469Y-25902406D01*
X52934772Y-25899587D01*
X53002218Y-25900647D01*
X53061025Y-25901571D01*
X53061028Y-25901571D01*
X53068495Y-25901688D01*
X53075776Y-25900020D01*
X53075780Y-25900020D01*
X53214681Y-25868207D01*
X53221968Y-25866538D01*
X53362625Y-25795795D01*
X53368306Y-25790943D01*
X53368309Y-25790941D01*
X53476666Y-25698395D01*
X53476667Y-25698394D01*
X53482348Y-25693542D01*
X53574224Y-25565683D01*
X53618105Y-25456526D01*
X53630164Y-25426530D01*
X53630165Y-25426525D01*
X53632950Y-25419598D01*
X53633530Y-25419831D01*
X53667089Y-25364773D01*
X53729936Y-25334243D01*
X53799312Y-25342537D01*
G37*
G04 #@! TD.AperFunction*
G04 #@! TA.AperFunction,Conductor*
G36*
X47749203Y-21852186D02*
G01*
X47755681Y-21858218D01*
X50125302Y-24227839D01*
X50140429Y-24246568D01*
X50141370Y-24247602D01*
X50146928Y-24256210D01*
X50154973Y-24262552D01*
X50173055Y-24276807D01*
X50177458Y-24280720D01*
X50177517Y-24280650D01*
X50181420Y-24283957D01*
X50185038Y-24287575D01*
X50189200Y-24290549D01*
X50200577Y-24298679D01*
X50205228Y-24302170D01*
X50245100Y-24333603D01*
X50253649Y-24336605D01*
X50261019Y-24341872D01*
X50270841Y-24344809D01*
X50270840Y-24344809D01*
X50309614Y-24356405D01*
X50315172Y-24358211D01*
X50355683Y-24372438D01*
X50355693Y-24372440D01*
X50363048Y-24375023D01*
X50368555Y-24375500D01*
X50371238Y-24375500D01*
X50373840Y-24375613D01*
X50373915Y-24375635D01*
X50373908Y-24375804D01*
X50374632Y-24375850D01*
X50380786Y-24377690D01*
X50391025Y-24377288D01*
X50391028Y-24377288D01*
X50434080Y-24375596D01*
X50438948Y-24375500D01*
X52402907Y-24375500D01*
X52469946Y-24395185D01*
X52496771Y-24418472D01*
X52499790Y-24421969D01*
X52503958Y-24428172D01*
X52509488Y-24433204D01*
X52509489Y-24433205D01*
X52620410Y-24534135D01*
X52618175Y-24536591D01*
X52652202Y-24579785D01*
X52658902Y-24649333D01*
X52626937Y-24711462D01*
X52618637Y-24719409D01*
X52518669Y-24806616D01*
X52518664Y-24806622D01*
X52513034Y-24811533D01*
X52422501Y-24940348D01*
X52365309Y-25087039D01*
X52344758Y-25243138D01*
X52345578Y-25250566D01*
X52345578Y-25250569D01*
X52351255Y-25301991D01*
X52339046Y-25370785D01*
X52315685Y-25403278D01*
X48088782Y-29630181D01*
X48027459Y-29663666D01*
X48001101Y-29666500D01*
X47668000Y-29666500D01*
X47600961Y-29646815D01*
X47555206Y-29594011D01*
X47544000Y-29542500D01*
X47544000Y-29145977D01*
X47558648Y-29097684D01*
X47555007Y-29096176D01*
X47559678Y-29084899D01*
X47566466Y-29074740D01*
X47581000Y-29001674D01*
X47581000Y-28542326D01*
X47574643Y-28510365D01*
X47568849Y-28481241D01*
X47566466Y-28469260D01*
X47559678Y-28459101D01*
X47555007Y-28447824D01*
X47558648Y-28446316D01*
X47544000Y-28398023D01*
X47544000Y-27994656D01*
X47563685Y-27927617D01*
X47616489Y-27881862D01*
X47653424Y-27871516D01*
X47676532Y-27868781D01*
X47676534Y-27868780D01*
X47686710Y-27867576D01*
X47694877Y-27863654D01*
X47703813Y-27862167D01*
X47748458Y-27838077D01*
X47753663Y-27835425D01*
X47769784Y-27827684D01*
X47799400Y-27813463D01*
X47803631Y-27809906D01*
X47805517Y-27808020D01*
X47807447Y-27806249D01*
X47807500Y-27806221D01*
X47807617Y-27806348D01*
X47808174Y-27805857D01*
X47813829Y-27802806D01*
X47823117Y-27792759D01*
X47850053Y-27763619D01*
X47853428Y-27760109D01*
X48676370Y-26937168D01*
X48737693Y-26903683D01*
X48765997Y-26900864D01*
X48811024Y-26901571D01*
X48811027Y-26901571D01*
X48818495Y-26901688D01*
X48971968Y-26866538D01*
X49112625Y-26795795D01*
X49118306Y-26790943D01*
X49118309Y-26790941D01*
X49226666Y-26698395D01*
X49226667Y-26698394D01*
X49232348Y-26693542D01*
X49237309Y-26686639D01*
X49264771Y-26648421D01*
X49324224Y-26565683D01*
X49382950Y-26419598D01*
X49384003Y-26412201D01*
X49404562Y-26267744D01*
X49404562Y-26267740D01*
X49405134Y-26263723D01*
X49405278Y-26250000D01*
X49403551Y-26235727D01*
X49387262Y-26101119D01*
X49387261Y-26101115D01*
X49386363Y-26093694D01*
X49349579Y-25996347D01*
X49333354Y-25953408D01*
X49333352Y-25953405D01*
X49330710Y-25946412D01*
X49299972Y-25901688D01*
X49245768Y-25822821D01*
X49245765Y-25822818D01*
X49241531Y-25816657D01*
X49138606Y-25724954D01*
X49129559Y-25716893D01*
X49129558Y-25716892D01*
X49123976Y-25711919D01*
X48984831Y-25638245D01*
X48832128Y-25599889D01*
X48750329Y-25599461D01*
X48682158Y-25599104D01*
X48682157Y-25599104D01*
X48674684Y-25599065D01*
X48667421Y-25600809D01*
X48667418Y-25600809D01*
X48598136Y-25617443D01*
X48521588Y-25635820D01*
X48381679Y-25708032D01*
X48376048Y-25712945D01*
X48376047Y-25712945D01*
X48371521Y-25716893D01*
X48263034Y-25811533D01*
X48172501Y-25940348D01*
X48115309Y-26087039D01*
X48094758Y-26243138D01*
X48095578Y-26250566D01*
X48095578Y-26250568D01*
X48109458Y-26376287D01*
X48097249Y-26445081D01*
X48073888Y-26477575D01*
X47792681Y-26758782D01*
X47731358Y-26792267D01*
X47661666Y-26787283D01*
X47605733Y-26745411D01*
X47581316Y-26679947D01*
X47581000Y-26671101D01*
X47581000Y-26642326D01*
X47575225Y-26613294D01*
X47567845Y-26576191D01*
X47567845Y-26527809D01*
X47579810Y-26467656D01*
X47581000Y-26461674D01*
X47581000Y-26002326D01*
X47566466Y-25929260D01*
X47559678Y-25919101D01*
X47555007Y-25907824D01*
X47558648Y-25906316D01*
X47544000Y-25858023D01*
X47544000Y-24065977D01*
X47558648Y-24017684D01*
X47555007Y-24016176D01*
X47559678Y-24004899D01*
X47566466Y-23994740D01*
X47581000Y-23921674D01*
X47581000Y-23462326D01*
X47575849Y-23436428D01*
X47571029Y-23412200D01*
X47566466Y-23389260D01*
X47559678Y-23379101D01*
X47555007Y-23367824D01*
X47558648Y-23366316D01*
X47544000Y-23318023D01*
X47544000Y-22795977D01*
X47558648Y-22747684D01*
X47555007Y-22746176D01*
X47559678Y-22734899D01*
X47566466Y-22724740D01*
X47575258Y-22680541D01*
X47579811Y-22657653D01*
X47579811Y-22657650D01*
X47581000Y-22651674D01*
X47581000Y-22192326D01*
X47566466Y-22119260D01*
X47559678Y-22109101D01*
X47555007Y-22097824D01*
X47558648Y-22096316D01*
X47544000Y-22048023D01*
X47544000Y-21945899D01*
X47563685Y-21878860D01*
X47616489Y-21833105D01*
X47685647Y-21823161D01*
X47749203Y-21852186D01*
G37*
G04 #@! TD.AperFunction*
G04 #@! TA.AperFunction,Conductor*
G36*
X65693039Y-27395185D02*
G01*
X65738794Y-27447989D01*
X65750000Y-27499500D01*
X65750000Y-28500438D01*
X65730315Y-28567477D01*
X65677511Y-28613232D01*
X65608353Y-28623176D01*
X65601240Y-28621901D01*
X65600953Y-28621887D01*
X65590936Y-28619731D01*
X65580763Y-28620935D01*
X65557900Y-28623641D01*
X65552018Y-28623988D01*
X65552025Y-28624078D01*
X65546920Y-28624500D01*
X65541809Y-28624500D01*
X65522949Y-28627639D01*
X65517170Y-28628461D01*
X65476970Y-28633219D01*
X65476968Y-28633220D01*
X65466792Y-28634424D01*
X65458625Y-28638346D01*
X65449689Y-28639833D01*
X65405045Y-28663922D01*
X65399842Y-28666574D01*
X65354102Y-28688537D01*
X65349871Y-28692094D01*
X65347985Y-28693980D01*
X65346055Y-28695751D01*
X65346002Y-28695779D01*
X65345885Y-28695652D01*
X65345328Y-28696143D01*
X65339673Y-28699194D01*
X65332713Y-28706723D01*
X65332712Y-28706724D01*
X65303449Y-28738381D01*
X65300074Y-28741891D01*
X65228784Y-28813181D01*
X65167461Y-28846666D01*
X65141103Y-28849500D01*
X64471347Y-28849500D01*
X64404308Y-28829815D01*
X64376344Y-28802705D01*
X64375529Y-28803424D01*
X64370590Y-28797822D01*
X64366353Y-28791657D01*
X64271027Y-28706724D01*
X64254381Y-28691893D01*
X64254380Y-28691892D01*
X64248798Y-28686919D01*
X64147951Y-28633523D01*
X64097915Y-28584756D01*
X64082187Y-28516680D01*
X64105761Y-28450907D01*
X64161152Y-28408321D01*
X64207923Y-28399951D01*
X64212314Y-28400020D01*
X64311025Y-28401571D01*
X64311028Y-28401571D01*
X64318495Y-28401688D01*
X64325776Y-28400020D01*
X64325780Y-28400020D01*
X64464681Y-28368207D01*
X64471968Y-28366538D01*
X64612625Y-28295795D01*
X64618306Y-28290943D01*
X64618309Y-28290941D01*
X64726666Y-28198395D01*
X64726667Y-28198394D01*
X64732348Y-28193542D01*
X64743393Y-28178172D01*
X64781241Y-28125500D01*
X64824224Y-28065683D01*
X64882950Y-27919598D01*
X64888321Y-27881862D01*
X64904562Y-27767744D01*
X64904562Y-27767740D01*
X64905134Y-27763723D01*
X64905278Y-27750000D01*
X64886363Y-27593694D01*
X64867332Y-27543329D01*
X64862049Y-27473662D01*
X64895270Y-27412196D01*
X64956449Y-27378448D01*
X64983327Y-27375500D01*
X65626000Y-27375500D01*
X65693039Y-27395185D01*
G37*
G04 #@! TD.AperFunction*
G04 #@! TA.AperFunction,Conductor*
G36*
X64083386Y-19395185D02*
G01*
X64129141Y-19447989D01*
X64139085Y-19517147D01*
X64131877Y-19544542D01*
X64118137Y-19579785D01*
X64115309Y-19587039D01*
X64094758Y-19743138D01*
X64095578Y-19750566D01*
X64095578Y-19750568D01*
X64107753Y-19860845D01*
X64112035Y-19899633D01*
X64114601Y-19906645D01*
X64114602Y-19906649D01*
X64129484Y-19947314D01*
X64166143Y-20047490D01*
X64253958Y-20178172D01*
X64280145Y-20202000D01*
X64364878Y-20279102D01*
X64364882Y-20279105D01*
X64370410Y-20284135D01*
X64376980Y-20287702D01*
X64376981Y-20287703D01*
X64491513Y-20349889D01*
X64508776Y-20359262D01*
X64584551Y-20379141D01*
X64653841Y-20397319D01*
X64653843Y-20397319D01*
X64661069Y-20399215D01*
X64738127Y-20400425D01*
X64811025Y-20401571D01*
X64811028Y-20401571D01*
X64818495Y-20401688D01*
X64825776Y-20400020D01*
X64825780Y-20400020D01*
X64916939Y-20379141D01*
X64951401Y-20377425D01*
X64952286Y-20377690D01*
X64962524Y-20377288D01*
X64962526Y-20377288D01*
X65005580Y-20375596D01*
X65010448Y-20375500D01*
X65626000Y-20375500D01*
X65693039Y-20395185D01*
X65738794Y-20447989D01*
X65750000Y-20499500D01*
X65750000Y-21832519D01*
X65749833Y-21837126D01*
X65749500Y-21839410D01*
X65749500Y-22160590D01*
X65749833Y-22162853D01*
X65750000Y-22167419D01*
X65750000Y-26500500D01*
X65730315Y-26567539D01*
X65677511Y-26613294D01*
X65626000Y-26624500D01*
X64984072Y-26624500D01*
X64917033Y-26604815D01*
X64871278Y-26552011D01*
X64861334Y-26482853D01*
X64869021Y-26454248D01*
X64880162Y-26426534D01*
X64880163Y-26426530D01*
X64882950Y-26419598D01*
X64884003Y-26412201D01*
X64904562Y-26267744D01*
X64904562Y-26267740D01*
X64905134Y-26263723D01*
X64905278Y-26250000D01*
X64903551Y-26235727D01*
X64887262Y-26101119D01*
X64887261Y-26101115D01*
X64886363Y-26093694D01*
X64849579Y-25996347D01*
X64833354Y-25953408D01*
X64833352Y-25953405D01*
X64830710Y-25946412D01*
X64799972Y-25901688D01*
X64745768Y-25822821D01*
X64745765Y-25822818D01*
X64741531Y-25816657D01*
X64667011Y-25750262D01*
X64630052Y-25690968D01*
X64625500Y-25657679D01*
X64625500Y-22553285D01*
X64628047Y-22529349D01*
X64628113Y-22527954D01*
X64630270Y-22517934D01*
X64629066Y-22507759D01*
X64629066Y-22507754D01*
X64626360Y-22484891D01*
X64626013Y-22479014D01*
X64625921Y-22479022D01*
X64625500Y-22473927D01*
X64625500Y-22468807D01*
X64624660Y-22463760D01*
X64624659Y-22463749D01*
X64622367Y-22449981D01*
X64621544Y-22444198D01*
X64616783Y-22403970D01*
X64616781Y-22403963D01*
X64615577Y-22393791D01*
X64611654Y-22385622D01*
X64610167Y-22376687D01*
X64605303Y-22367672D01*
X64605301Y-22367667D01*
X64586074Y-22332033D01*
X64583422Y-22326830D01*
X64576148Y-22311682D01*
X64561463Y-22281101D01*
X64557906Y-22276869D01*
X64555996Y-22274959D01*
X64554251Y-22273057D01*
X64554216Y-22272992D01*
X64554342Y-22272876D01*
X64553857Y-22272326D01*
X64550806Y-22266671D01*
X64511619Y-22230447D01*
X64508109Y-22227072D01*
X62685195Y-20404158D01*
X62651710Y-20342835D01*
X62650113Y-20299007D01*
X62654561Y-20267748D01*
X62655134Y-20263723D01*
X62655278Y-20250000D01*
X62650851Y-20213417D01*
X62637262Y-20101119D01*
X62637261Y-20101115D01*
X62636363Y-20093694D01*
X62624723Y-20062889D01*
X62583354Y-19953408D01*
X62583352Y-19953405D01*
X62580710Y-19946412D01*
X62572337Y-19934229D01*
X62495768Y-19822821D01*
X62495765Y-19822818D01*
X62491531Y-19816657D01*
X62379353Y-19716709D01*
X62342394Y-19657416D01*
X62343358Y-19587553D01*
X62381310Y-19529837D01*
X62476666Y-19448395D01*
X62476667Y-19448394D01*
X62482348Y-19443542D01*
X62494133Y-19427141D01*
X62549237Y-19384187D01*
X62594831Y-19375500D01*
X64016347Y-19375500D01*
X64083386Y-19395185D01*
G37*
G04 #@! TD.AperFunction*
M02*
