G04 #@! TF.GenerationSoftware,KiCad,Pcbnew,6.0.11+dfsg-1*
G04 #@! TF.CreationDate,2023-03-13T19:25:43+00:00*
G04 #@! TF.ProjectId,TP770_IDE,54503737-305f-4494-9445-2e6b69636164,rev?*
G04 #@! TF.SameCoordinates,PX6cb8080PY3197500*
G04 #@! TF.FileFunction,Legend,Top*
G04 #@! TF.FilePolarity,Positive*
%FSLAX46Y46*%
G04 Gerber Fmt 4.6, Leading zero omitted, Abs format (unit mm)*
G04 Created by KiCad (PCBNEW 6.0.11+dfsg-1) date 2023-03-13 19:25:43*
%MOMM*%
%LPD*%
G01*
G04 APERTURE LIST*
G04 Aperture macros list*
%AMRoundRect*
0 Rectangle with rounded corners*
0 $1 Rounding radius*
0 $2 $3 $4 $5 $6 $7 $8 $9 X,Y pos of 4 corners*
0 Add a 4 corners polygon primitive as box body*
4,1,4,$2,$3,$4,$5,$6,$7,$8,$9,$2,$3,0*
0 Add four circle primitives for the rounded corners*
1,1,$1+$1,$2,$3*
1,1,$1+$1,$4,$5*
1,1,$1+$1,$6,$7*
1,1,$1+$1,$8,$9*
0 Add four rect primitives between the rounded corners*
20,1,$1+$1,$2,$3,$4,$5,0*
20,1,$1+$1,$4,$5,$6,$7,0*
20,1,$1+$1,$6,$7,$8,$9,0*
20,1,$1+$1,$8,$9,$2,$3,0*%
G04 Aperture macros list end*
%ADD10C,0.150000*%
%ADD11C,0.100000*%
%ADD12C,0.300000*%
%ADD13C,0.120000*%
%ADD14C,0.010000*%
%ADD15R,3.510000X0.410000*%
%ADD16C,3.990000*%
%ADD17C,1.700000*%
%ADD18R,4.570000X2.490000*%
%ADD19RoundRect,0.125000X2.125000X0.125000X-2.125000X0.125000X-2.125000X-0.125000X2.125000X-0.125000X0*%
%ADD20RoundRect,0.125000X2.375000X0.125000X-2.375000X0.125000X-2.375000X-0.125000X2.375000X-0.125000X0*%
G04 APERTURE END LIST*
D10*
X61750000Y-47500000D02*
X62500000Y-47500000D01*
X62500000Y-47500000D02*
X62500000Y-49000000D01*
X62500000Y-49000000D02*
X61750000Y-49000000D01*
X61750000Y-49000000D02*
X61750000Y-47500000D01*
X60500000Y-47500000D02*
X61250000Y-47500000D01*
X61250000Y-47500000D02*
X61250000Y-49000000D01*
X61250000Y-49000000D02*
X60500000Y-49000000D01*
X60500000Y-49000000D02*
X60500000Y-47500000D01*
G36*
X60500000Y-47500000D02*
G01*
X61250000Y-47500000D01*
X61250000Y-49000000D01*
X60500000Y-49000000D01*
X60500000Y-47500000D01*
G37*
X59250000Y-47500000D02*
X60000000Y-47500000D01*
X60000000Y-47500000D02*
X60000000Y-49000000D01*
X60000000Y-49000000D02*
X59250000Y-49000000D01*
X59250000Y-49000000D02*
X59250000Y-47500000D01*
X58000000Y-47500000D02*
X58750000Y-47500000D01*
X58750000Y-47500000D02*
X58750000Y-49000000D01*
X58750000Y-49000000D02*
X58000000Y-49000000D01*
X58000000Y-49000000D02*
X58000000Y-47500000D01*
X56750000Y-47500000D02*
X57500000Y-47500000D01*
X57500000Y-47500000D02*
X57500000Y-49000000D01*
X57500000Y-49000000D02*
X56750000Y-49000000D01*
X56750000Y-49000000D02*
X56750000Y-47500000D01*
X55500000Y-47500000D02*
X56250000Y-47500000D01*
X56250000Y-47500000D02*
X56250000Y-49000000D01*
X56250000Y-49000000D02*
X55500000Y-49000000D01*
X55500000Y-49000000D02*
X55500000Y-47500000D01*
X54250000Y-47500000D02*
X55000000Y-47500000D01*
X55000000Y-47500000D02*
X55000000Y-49000000D01*
X55000000Y-49000000D02*
X54250000Y-49000000D01*
X54250000Y-49000000D02*
X54250000Y-47500000D01*
X53000000Y-47500000D02*
X53750000Y-47500000D01*
X53750000Y-47500000D02*
X53750000Y-49000000D01*
X53750000Y-49000000D02*
X53000000Y-49000000D01*
X53000000Y-49000000D02*
X53000000Y-47500000D01*
D11*
X64311904Y-12440476D02*
X64311904Y-12821428D01*
X64692857Y-12859523D01*
X64654761Y-12821428D01*
X64616666Y-12745238D01*
X64616666Y-12554761D01*
X64654761Y-12478571D01*
X64692857Y-12440476D01*
X64769047Y-12402380D01*
X64959523Y-12402380D01*
X65035714Y-12440476D01*
X65073809Y-12478571D01*
X65111904Y-12554761D01*
X65111904Y-12745238D01*
X65073809Y-12821428D01*
X65035714Y-12859523D01*
X65111904Y-12021428D02*
X65111904Y-11869047D01*
X65073809Y-11792857D01*
X65035714Y-11754761D01*
X64921428Y-11678571D01*
X64769047Y-11640476D01*
X64464285Y-11640476D01*
X64388095Y-11678571D01*
X64350000Y-11716666D01*
X64311904Y-11792857D01*
X64311904Y-11945238D01*
X64350000Y-12021428D01*
X64388095Y-12059523D01*
X64464285Y-12097619D01*
X64654761Y-12097619D01*
X64730952Y-12059523D01*
X64769047Y-12021428D01*
X64807142Y-11945238D01*
X64807142Y-11792857D01*
X64769047Y-11716666D01*
X64730952Y-11678571D01*
X64654761Y-11640476D01*
X65111904Y-40521428D02*
X65111904Y-40978571D01*
X65111904Y-40750000D02*
X64311904Y-40750000D01*
X64426190Y-40826190D01*
X64502380Y-40902380D01*
X64540476Y-40978571D01*
D12*
X62414285Y-51396428D02*
X61557142Y-51396428D01*
X61985714Y-49896428D02*
X61985714Y-51396428D01*
X61057142Y-49896428D02*
X61057142Y-51396428D01*
X60485714Y-51396428D01*
X60342857Y-51325000D01*
X60271428Y-51253571D01*
X60200000Y-51110714D01*
X60200000Y-50896428D01*
X60271428Y-50753571D01*
X60342857Y-50682142D01*
X60485714Y-50610714D01*
X61057142Y-50610714D01*
X59700000Y-51396428D02*
X58700000Y-51396428D01*
X59342857Y-49896428D01*
X58271428Y-51396428D02*
X57271428Y-51396428D01*
X57914285Y-49896428D01*
X56414285Y-51396428D02*
X56271428Y-51396428D01*
X56128571Y-51325000D01*
X56057142Y-51253571D01*
X55985714Y-51110714D01*
X55914285Y-50825000D01*
X55914285Y-50467857D01*
X55985714Y-50182142D01*
X56057142Y-50039285D01*
X56128571Y-49967857D01*
X56271428Y-49896428D01*
X56414285Y-49896428D01*
X56557142Y-49967857D01*
X56628571Y-50039285D01*
X56700000Y-50182142D01*
X56771428Y-50467857D01*
X56771428Y-50825000D01*
X56700000Y-51110714D01*
X56628571Y-51253571D01*
X56557142Y-51325000D01*
X56414285Y-51396428D01*
X54414285Y-50039285D02*
X54485714Y-49967857D01*
X54700000Y-49896428D01*
X54842857Y-49896428D01*
X55057142Y-49967857D01*
X55200000Y-50110714D01*
X55271428Y-50253571D01*
X55342857Y-50539285D01*
X55342857Y-50753571D01*
X55271428Y-51039285D01*
X55200000Y-51182142D01*
X55057142Y-51325000D01*
X54842857Y-51396428D01*
X54700000Y-51396428D01*
X54485714Y-51325000D01*
X54414285Y-51253571D01*
X53271428Y-50682142D02*
X53771428Y-50682142D01*
X53771428Y-49896428D02*
X53771428Y-51396428D01*
X53057142Y-51396428D01*
D13*
X48325500Y-41862000D02*
X47825500Y-42112000D01*
X48325500Y-42362000D02*
X48325500Y-41862000D01*
X47825500Y-42112000D02*
X48325500Y-42362000D01*
X8585500Y-48142000D02*
X1605500Y-48142000D01*
X11765500Y-48142000D02*
X9855500Y-48142000D01*
X19385500Y-48142000D02*
X13035500Y-48142000D01*
X22555500Y-48142000D02*
X20655500Y-48142000D01*
X30175500Y-48142000D02*
X23825500Y-48142000D01*
X1605500Y-44962000D02*
X1605500Y-46872000D01*
X1605500Y-37342000D02*
X1605500Y-43692000D01*
X1605500Y-34172000D02*
X1605500Y-36082000D01*
X1605500Y-26552000D02*
X1605500Y-32902000D01*
X1605500Y-23382000D02*
X1605500Y-25282000D01*
X1605500Y-15762000D02*
X1605500Y-22102000D01*
X1605500Y-12582000D02*
X1605500Y-14492000D01*
X1605500Y-4962000D02*
X1605500Y-11312000D01*
X8585500Y-4962000D02*
X1605500Y-4962000D01*
X11765500Y-4962000D02*
X9855500Y-4962000D01*
X19385500Y-4962000D02*
X13035500Y-4962000D01*
X22555500Y-4962000D02*
X20655500Y-4962000D01*
X30175500Y-4962000D02*
X23825500Y-4962000D01*
X37065500Y-4072000D02*
X31395500Y-4072000D01*
X31395500Y-4072000D02*
X31395500Y-6002000D01*
X31395500Y-6002000D02*
X38075500Y-6002000D01*
X38075500Y-6002000D02*
X38075500Y-47102000D01*
X38075500Y-47102000D02*
X31395500Y-47102000D01*
X31395500Y-47102000D02*
X31395500Y-49032000D01*
X31395500Y-49032000D02*
X37065500Y-49032000D01*
X42755500Y-4072000D02*
X45115500Y-4072000D01*
X45115500Y-4072000D02*
X45115500Y-9132000D01*
X45115500Y-9132000D02*
X46995500Y-9132000D01*
X46995500Y-9132000D02*
X46995500Y-10142000D01*
X46995500Y-10142000D02*
X41385500Y-10142000D01*
X41385500Y-10142000D02*
X41385500Y-42962000D01*
X41385500Y-42962000D02*
X46995500Y-42962000D01*
X46995500Y-42962000D02*
X46995500Y-43972000D01*
X46995500Y-43972000D02*
X45115500Y-43972000D01*
X45115500Y-43972000D02*
X45115500Y-49032000D01*
X45115500Y-49032000D02*
X42755500Y-49032000D01*
G36*
X56964357Y-2312088D02*
G01*
X57009200Y-2338980D01*
X57069679Y-2378264D01*
X57116211Y-2409883D01*
X57200525Y-2467902D01*
X57300374Y-2536216D01*
X57400527Y-2604421D01*
X57454373Y-2640925D01*
X57636629Y-2764200D01*
X57789619Y-2681480D01*
X57859318Y-2645241D01*
X57918586Y-2617074D01*
X57958689Y-2601009D01*
X57968897Y-2598774D01*
X57981171Y-2615278D01*
X58005387Y-2661918D01*
X58039737Y-2734391D01*
X58082412Y-2828394D01*
X58131606Y-2939626D01*
X58185510Y-3063785D01*
X58242316Y-3196568D01*
X58300218Y-3333673D01*
X58357407Y-3470798D01*
X58412076Y-3603642D01*
X58462416Y-3727902D01*
X58506620Y-3839275D01*
X58542881Y-3933461D01*
X58569391Y-4006156D01*
X58584342Y-4053059D01*
X58586746Y-4069167D01*
X58567689Y-4089714D01*
X58525964Y-4123067D01*
X58470294Y-4162298D01*
X58465622Y-4165401D01*
X58321736Y-4280577D01*
X58205717Y-4414947D01*
X58118570Y-4564216D01*
X58061301Y-4724087D01*
X58034914Y-4890263D01*
X58040415Y-5058448D01*
X58078810Y-5224345D01*
X58151105Y-5383658D01*
X58172374Y-5418513D01*
X58283004Y-5559263D01*
X58413698Y-5672286D01*
X58559936Y-5756997D01*
X58717192Y-5812806D01*
X58880943Y-5839126D01*
X59046667Y-5835370D01*
X59209838Y-5800950D01*
X59365935Y-5735277D01*
X59510433Y-5637765D01*
X59555131Y-5598187D01*
X59668888Y-5474297D01*
X59751782Y-5343876D01*
X59808644Y-5197685D01*
X59840313Y-5052912D01*
X59848131Y-4890140D01*
X59822062Y-4726560D01*
X59764755Y-4567702D01*
X59678856Y-4419094D01*
X59567014Y-4286265D01*
X59431877Y-4174744D01*
X59414117Y-4162989D01*
X59357850Y-4124492D01*
X59315077Y-4091137D01*
X59294628Y-4069840D01*
X59294331Y-4069167D01*
X59298721Y-4046129D01*
X59316124Y-3993843D01*
X59344732Y-3916610D01*
X59382735Y-3818732D01*
X59428326Y-3704509D01*
X59479697Y-3578242D01*
X59535038Y-3444233D01*
X59592542Y-3306782D01*
X59650399Y-3170192D01*
X59706802Y-3038763D01*
X59759942Y-2916795D01*
X59808010Y-2808591D01*
X59849199Y-2718451D01*
X59881699Y-2650677D01*
X59903703Y-2609570D01*
X59912564Y-2598774D01*
X59939640Y-2607181D01*
X59990303Y-2629728D01*
X60055817Y-2662387D01*
X60091841Y-2681480D01*
X60244832Y-2764200D01*
X60427088Y-2640925D01*
X60520125Y-2577772D01*
X60621985Y-2508273D01*
X60717438Y-2442835D01*
X60765250Y-2409883D01*
X60832495Y-2364727D01*
X60889436Y-2328943D01*
X60928646Y-2307062D01*
X60941381Y-2302437D01*
X60959917Y-2314915D01*
X61000941Y-2349748D01*
X61060475Y-2403322D01*
X61134542Y-2472017D01*
X61219165Y-2552219D01*
X61272685Y-2603714D01*
X61366319Y-2695714D01*
X61447241Y-2778001D01*
X61512177Y-2847055D01*
X61557858Y-2899356D01*
X61581011Y-2931384D01*
X61583232Y-2937884D01*
X61572924Y-2962606D01*
X61544439Y-3012595D01*
X61500937Y-3082788D01*
X61445577Y-3168125D01*
X61381520Y-3263544D01*
X61363303Y-3290146D01*
X61296927Y-3386833D01*
X61237378Y-3473883D01*
X61187984Y-3546405D01*
X61152075Y-3599507D01*
X61132981Y-3628297D01*
X61131136Y-3631274D01*
X61133895Y-3654218D01*
X61148538Y-3704664D01*
X61172513Y-3775959D01*
X61203266Y-3861453D01*
X61238244Y-3954493D01*
X61274893Y-4048426D01*
X61310661Y-4136601D01*
X61342994Y-4212366D01*
X61369338Y-4269069D01*
X61387142Y-4300057D01*
X61388407Y-4301543D01*
X61399294Y-4310399D01*
X61417682Y-4319157D01*
X61447606Y-4328723D01*
X61493103Y-4340004D01*
X61558209Y-4353907D01*
X61646961Y-4371337D01*
X61763393Y-4393202D01*
X61911542Y-4420409D01*
X61943618Y-4426259D01*
X62038686Y-4444626D01*
X62121565Y-4462595D01*
X62184930Y-4478431D01*
X62221458Y-4490400D01*
X62226356Y-4493190D01*
X62234427Y-4517928D01*
X62240987Y-4573210D01*
X62246033Y-4652611D01*
X62249559Y-4749704D01*
X62251561Y-4858062D01*
X62252036Y-4971260D01*
X62250977Y-5082872D01*
X62248382Y-5186471D01*
X62244246Y-5275632D01*
X62238563Y-5343928D01*
X62231331Y-5384934D01*
X62226971Y-5393326D01*
X62202698Y-5401792D01*
X62147426Y-5415565D01*
X62066662Y-5433450D01*
X61965912Y-5454252D01*
X61850683Y-5476777D01*
X61787902Y-5488582D01*
X61668787Y-5510849D01*
X61562565Y-5531021D01*
X61474427Y-5548085D01*
X61409566Y-5561031D01*
X61373174Y-5568845D01*
X61367184Y-5570578D01*
X61357061Y-5590110D01*
X61335662Y-5637157D01*
X61305839Y-5704997D01*
X61270445Y-5786909D01*
X61232332Y-5876172D01*
X61194353Y-5966065D01*
X61159360Y-6049865D01*
X61130206Y-6120853D01*
X61109743Y-6172306D01*
X61100823Y-6197503D01*
X61100657Y-6198604D01*
X61110769Y-6218481D01*
X61139117Y-6264223D01*
X61182723Y-6331283D01*
X61238606Y-6415116D01*
X61303787Y-6511174D01*
X61341679Y-6566350D01*
X61410725Y-6667519D01*
X61472050Y-6759370D01*
X61522663Y-6837256D01*
X61559571Y-6896531D01*
X61579782Y-6932549D01*
X61582701Y-6940623D01*
X61570153Y-6959416D01*
X61535463Y-6999543D01*
X61483063Y-7056507D01*
X61417384Y-7125815D01*
X61342856Y-7202969D01*
X61263913Y-7283475D01*
X61184983Y-7362837D01*
X61110500Y-7436560D01*
X61044894Y-7500148D01*
X60992596Y-7549106D01*
X60958039Y-7578939D01*
X60946478Y-7586058D01*
X60927654Y-7576047D01*
X60882631Y-7547922D01*
X60815787Y-7504546D01*
X60731499Y-7448782D01*
X60634144Y-7383494D01*
X60560707Y-7333754D01*
X60189667Y-7081449D01*
X59571095Y-7336445D01*
X59487275Y-7781069D01*
X59403454Y-8225693D01*
X58478006Y-8225693D01*
X58394186Y-7781069D01*
X58310365Y-7336445D01*
X58001080Y-7208947D01*
X57691794Y-7081449D01*
X57320754Y-7333754D01*
X57216843Y-7404004D01*
X57122913Y-7466728D01*
X57043348Y-7519062D01*
X56982530Y-7558143D01*
X56944843Y-7581107D01*
X56934579Y-7586058D01*
X56916090Y-7573324D01*
X56876580Y-7538118D01*
X56820478Y-7484938D01*
X56752213Y-7418282D01*
X56676214Y-7342646D01*
X56596908Y-7262528D01*
X56518725Y-7182426D01*
X56446093Y-7106836D01*
X56383441Y-7040255D01*
X56335197Y-6987182D01*
X56305790Y-6952113D01*
X56298759Y-6940377D01*
X56308877Y-6918740D01*
X56337241Y-6871338D01*
X56380871Y-6802807D01*
X56436782Y-6717785D01*
X56501994Y-6620907D01*
X56539781Y-6565650D01*
X56608657Y-6464752D01*
X56669860Y-6373701D01*
X56720422Y-6297030D01*
X56757372Y-6239272D01*
X56777742Y-6204957D01*
X56780803Y-6197746D01*
X56773864Y-6177252D01*
X56754949Y-6129487D01*
X56726913Y-6061168D01*
X56692609Y-5979011D01*
X56654891Y-5889730D01*
X56616613Y-5800042D01*
X56580630Y-5716662D01*
X56549794Y-5646306D01*
X56526961Y-5595690D01*
X56514983Y-5571529D01*
X56514276Y-5570578D01*
X56495469Y-5565964D01*
X56445382Y-5555672D01*
X56369207Y-5540713D01*
X56272135Y-5522099D01*
X56159357Y-5500841D01*
X56093558Y-5488582D01*
X55973050Y-5465638D01*
X55864203Y-5443805D01*
X55772524Y-5424278D01*
X55703519Y-5408252D01*
X55662696Y-5396921D01*
X55654489Y-5393326D01*
X55646452Y-5368994D01*
X55639967Y-5314041D01*
X55635030Y-5234892D01*
X55631636Y-5137974D01*
X55629782Y-5029713D01*
X55629462Y-4916535D01*
X55630673Y-4804865D01*
X55633410Y-4701132D01*
X55637669Y-4611759D01*
X55643445Y-4543174D01*
X55650733Y-4501803D01*
X55655105Y-4493190D01*
X55681236Y-4482867D01*
X55736607Y-4468108D01*
X55813893Y-4450648D01*
X55905770Y-4432220D01*
X55937842Y-4426259D01*
X56092476Y-4397934D01*
X56214625Y-4375124D01*
X56308327Y-4356920D01*
X56377616Y-4342417D01*
X56426529Y-4330708D01*
X56459103Y-4320885D01*
X56479372Y-4312044D01*
X56491374Y-4303276D01*
X56493053Y-4301543D01*
X56509816Y-4273629D01*
X56535386Y-4219305D01*
X56567212Y-4145223D01*
X56602740Y-4058035D01*
X56639417Y-3964392D01*
X56674689Y-3870948D01*
X56706004Y-3784353D01*
X56730807Y-3711260D01*
X56746546Y-3658322D01*
X56750668Y-3632189D01*
X56750324Y-3631274D01*
X56736359Y-3609914D01*
X56704678Y-3562916D01*
X56658609Y-3495173D01*
X56601482Y-3411577D01*
X56536627Y-3317018D01*
X56518157Y-3290146D01*
X56452301Y-3192725D01*
X56394350Y-3103837D01*
X56347462Y-3028588D01*
X56314793Y-2972080D01*
X56299500Y-2939419D01*
X56298759Y-2935407D01*
X56311608Y-2914316D01*
X56347112Y-2872536D01*
X56400707Y-2814555D01*
X56467829Y-2744865D01*
X56543913Y-2667955D01*
X56624396Y-2588317D01*
X56704713Y-2510439D01*
X56780301Y-2438814D01*
X56846595Y-2377930D01*
X56899031Y-2332279D01*
X56933045Y-2306350D01*
X56942455Y-2302117D01*
X56964357Y-2312088D01*
G37*
D14*
X56964357Y-2312088D02*
X57009200Y-2338980D01*
X57069679Y-2378264D01*
X57116211Y-2409883D01*
X57200525Y-2467902D01*
X57300374Y-2536216D01*
X57400527Y-2604421D01*
X57454373Y-2640925D01*
X57636629Y-2764200D01*
X57789619Y-2681480D01*
X57859318Y-2645241D01*
X57918586Y-2617074D01*
X57958689Y-2601009D01*
X57968897Y-2598774D01*
X57981171Y-2615278D01*
X58005387Y-2661918D01*
X58039737Y-2734391D01*
X58082412Y-2828394D01*
X58131606Y-2939626D01*
X58185510Y-3063785D01*
X58242316Y-3196568D01*
X58300218Y-3333673D01*
X58357407Y-3470798D01*
X58412076Y-3603642D01*
X58462416Y-3727902D01*
X58506620Y-3839275D01*
X58542881Y-3933461D01*
X58569391Y-4006156D01*
X58584342Y-4053059D01*
X58586746Y-4069167D01*
X58567689Y-4089714D01*
X58525964Y-4123067D01*
X58470294Y-4162298D01*
X58465622Y-4165401D01*
X58321736Y-4280577D01*
X58205717Y-4414947D01*
X58118570Y-4564216D01*
X58061301Y-4724087D01*
X58034914Y-4890263D01*
X58040415Y-5058448D01*
X58078810Y-5224345D01*
X58151105Y-5383658D01*
X58172374Y-5418513D01*
X58283004Y-5559263D01*
X58413698Y-5672286D01*
X58559936Y-5756997D01*
X58717192Y-5812806D01*
X58880943Y-5839126D01*
X59046667Y-5835370D01*
X59209838Y-5800950D01*
X59365935Y-5735277D01*
X59510433Y-5637765D01*
X59555131Y-5598187D01*
X59668888Y-5474297D01*
X59751782Y-5343876D01*
X59808644Y-5197685D01*
X59840313Y-5052912D01*
X59848131Y-4890140D01*
X59822062Y-4726560D01*
X59764755Y-4567702D01*
X59678856Y-4419094D01*
X59567014Y-4286265D01*
X59431877Y-4174744D01*
X59414117Y-4162989D01*
X59357850Y-4124492D01*
X59315077Y-4091137D01*
X59294628Y-4069840D01*
X59294331Y-4069167D01*
X59298721Y-4046129D01*
X59316124Y-3993843D01*
X59344732Y-3916610D01*
X59382735Y-3818732D01*
X59428326Y-3704509D01*
X59479697Y-3578242D01*
X59535038Y-3444233D01*
X59592542Y-3306782D01*
X59650399Y-3170192D01*
X59706802Y-3038763D01*
X59759942Y-2916795D01*
X59808010Y-2808591D01*
X59849199Y-2718451D01*
X59881699Y-2650677D01*
X59903703Y-2609570D01*
X59912564Y-2598774D01*
X59939640Y-2607181D01*
X59990303Y-2629728D01*
X60055817Y-2662387D01*
X60091841Y-2681480D01*
X60244832Y-2764200D01*
X60427088Y-2640925D01*
X60520125Y-2577772D01*
X60621985Y-2508273D01*
X60717438Y-2442835D01*
X60765250Y-2409883D01*
X60832495Y-2364727D01*
X60889436Y-2328943D01*
X60928646Y-2307062D01*
X60941381Y-2302437D01*
X60959917Y-2314915D01*
X61000941Y-2349748D01*
X61060475Y-2403322D01*
X61134542Y-2472017D01*
X61219165Y-2552219D01*
X61272685Y-2603714D01*
X61366319Y-2695714D01*
X61447241Y-2778001D01*
X61512177Y-2847055D01*
X61557858Y-2899356D01*
X61581011Y-2931384D01*
X61583232Y-2937884D01*
X61572924Y-2962606D01*
X61544439Y-3012595D01*
X61500937Y-3082788D01*
X61445577Y-3168125D01*
X61381520Y-3263544D01*
X61363303Y-3290146D01*
X61296927Y-3386833D01*
X61237378Y-3473883D01*
X61187984Y-3546405D01*
X61152075Y-3599507D01*
X61132981Y-3628297D01*
X61131136Y-3631274D01*
X61133895Y-3654218D01*
X61148538Y-3704664D01*
X61172513Y-3775959D01*
X61203266Y-3861453D01*
X61238244Y-3954493D01*
X61274893Y-4048426D01*
X61310661Y-4136601D01*
X61342994Y-4212366D01*
X61369338Y-4269069D01*
X61387142Y-4300057D01*
X61388407Y-4301543D01*
X61399294Y-4310399D01*
X61417682Y-4319157D01*
X61447606Y-4328723D01*
X61493103Y-4340004D01*
X61558209Y-4353907D01*
X61646961Y-4371337D01*
X61763393Y-4393202D01*
X61911542Y-4420409D01*
X61943618Y-4426259D01*
X62038686Y-4444626D01*
X62121565Y-4462595D01*
X62184930Y-4478431D01*
X62221458Y-4490400D01*
X62226356Y-4493190D01*
X62234427Y-4517928D01*
X62240987Y-4573210D01*
X62246033Y-4652611D01*
X62249559Y-4749704D01*
X62251561Y-4858062D01*
X62252036Y-4971260D01*
X62250977Y-5082872D01*
X62248382Y-5186471D01*
X62244246Y-5275632D01*
X62238563Y-5343928D01*
X62231331Y-5384934D01*
X62226971Y-5393326D01*
X62202698Y-5401792D01*
X62147426Y-5415565D01*
X62066662Y-5433450D01*
X61965912Y-5454252D01*
X61850683Y-5476777D01*
X61787902Y-5488582D01*
X61668787Y-5510849D01*
X61562565Y-5531021D01*
X61474427Y-5548085D01*
X61409566Y-5561031D01*
X61373174Y-5568845D01*
X61367184Y-5570578D01*
X61357061Y-5590110D01*
X61335662Y-5637157D01*
X61305839Y-5704997D01*
X61270445Y-5786909D01*
X61232332Y-5876172D01*
X61194353Y-5966065D01*
X61159360Y-6049865D01*
X61130206Y-6120853D01*
X61109743Y-6172306D01*
X61100823Y-6197503D01*
X61100657Y-6198604D01*
X61110769Y-6218481D01*
X61139117Y-6264223D01*
X61182723Y-6331283D01*
X61238606Y-6415116D01*
X61303787Y-6511174D01*
X61341679Y-6566350D01*
X61410725Y-6667519D01*
X61472050Y-6759370D01*
X61522663Y-6837256D01*
X61559571Y-6896531D01*
X61579782Y-6932549D01*
X61582701Y-6940623D01*
X61570153Y-6959416D01*
X61535463Y-6999543D01*
X61483063Y-7056507D01*
X61417384Y-7125815D01*
X61342856Y-7202969D01*
X61263913Y-7283475D01*
X61184983Y-7362837D01*
X61110500Y-7436560D01*
X61044894Y-7500148D01*
X60992596Y-7549106D01*
X60958039Y-7578939D01*
X60946478Y-7586058D01*
X60927654Y-7576047D01*
X60882631Y-7547922D01*
X60815787Y-7504546D01*
X60731499Y-7448782D01*
X60634144Y-7383494D01*
X60560707Y-7333754D01*
X60189667Y-7081449D01*
X59571095Y-7336445D01*
X59487275Y-7781069D01*
X59403454Y-8225693D01*
X58478006Y-8225693D01*
X58394186Y-7781069D01*
X58310365Y-7336445D01*
X58001080Y-7208947D01*
X57691794Y-7081449D01*
X57320754Y-7333754D01*
X57216843Y-7404004D01*
X57122913Y-7466728D01*
X57043348Y-7519062D01*
X56982530Y-7558143D01*
X56944843Y-7581107D01*
X56934579Y-7586058D01*
X56916090Y-7573324D01*
X56876580Y-7538118D01*
X56820478Y-7484938D01*
X56752213Y-7418282D01*
X56676214Y-7342646D01*
X56596908Y-7262528D01*
X56518725Y-7182426D01*
X56446093Y-7106836D01*
X56383441Y-7040255D01*
X56335197Y-6987182D01*
X56305790Y-6952113D01*
X56298759Y-6940377D01*
X56308877Y-6918740D01*
X56337241Y-6871338D01*
X56380871Y-6802807D01*
X56436782Y-6717785D01*
X56501994Y-6620907D01*
X56539781Y-6565650D01*
X56608657Y-6464752D01*
X56669860Y-6373701D01*
X56720422Y-6297030D01*
X56757372Y-6239272D01*
X56777742Y-6204957D01*
X56780803Y-6197746D01*
X56773864Y-6177252D01*
X56754949Y-6129487D01*
X56726913Y-6061168D01*
X56692609Y-5979011D01*
X56654891Y-5889730D01*
X56616613Y-5800042D01*
X56580630Y-5716662D01*
X56549794Y-5646306D01*
X56526961Y-5595690D01*
X56514983Y-5571529D01*
X56514276Y-5570578D01*
X56495469Y-5565964D01*
X56445382Y-5555672D01*
X56369207Y-5540713D01*
X56272135Y-5522099D01*
X56159357Y-5500841D01*
X56093558Y-5488582D01*
X55973050Y-5465638D01*
X55864203Y-5443805D01*
X55772524Y-5424278D01*
X55703519Y-5408252D01*
X55662696Y-5396921D01*
X55654489Y-5393326D01*
X55646452Y-5368994D01*
X55639967Y-5314041D01*
X55635030Y-5234892D01*
X55631636Y-5137974D01*
X55629782Y-5029713D01*
X55629462Y-4916535D01*
X55630673Y-4804865D01*
X55633410Y-4701132D01*
X55637669Y-4611759D01*
X55643445Y-4543174D01*
X55650733Y-4501803D01*
X55655105Y-4493190D01*
X55681236Y-4482867D01*
X55736607Y-4468108D01*
X55813893Y-4450648D01*
X55905770Y-4432220D01*
X55937842Y-4426259D01*
X56092476Y-4397934D01*
X56214625Y-4375124D01*
X56308327Y-4356920D01*
X56377616Y-4342417D01*
X56426529Y-4330708D01*
X56459103Y-4320885D01*
X56479372Y-4312044D01*
X56491374Y-4303276D01*
X56493053Y-4301543D01*
X56509816Y-4273629D01*
X56535386Y-4219305D01*
X56567212Y-4145223D01*
X56602740Y-4058035D01*
X56639417Y-3964392D01*
X56674689Y-3870948D01*
X56706004Y-3784353D01*
X56730807Y-3711260D01*
X56746546Y-3658322D01*
X56750668Y-3632189D01*
X56750324Y-3631274D01*
X56736359Y-3609914D01*
X56704678Y-3562916D01*
X56658609Y-3495173D01*
X56601482Y-3411577D01*
X56536627Y-3317018D01*
X56518157Y-3290146D01*
X56452301Y-3192725D01*
X56394350Y-3103837D01*
X56347462Y-3028588D01*
X56314793Y-2972080D01*
X56299500Y-2939419D01*
X56298759Y-2935407D01*
X56311608Y-2914316D01*
X56347112Y-2872536D01*
X56400707Y-2814555D01*
X56467829Y-2744865D01*
X56543913Y-2667955D01*
X56624396Y-2588317D01*
X56704713Y-2510439D01*
X56780301Y-2438814D01*
X56846595Y-2377930D01*
X56899031Y-2332279D01*
X56933045Y-2306350D01*
X56942455Y-2302117D01*
X56964357Y-2312088D01*
%LPC*%
D15*
X45575500Y-42112000D03*
X45575500Y-41472000D03*
X45575500Y-40842000D03*
X45575500Y-40202000D03*
X45575500Y-39572000D03*
X45575500Y-38932000D03*
X45575500Y-38302000D03*
X45575500Y-37662000D03*
X45575500Y-37032000D03*
X45575500Y-36392000D03*
X45575500Y-35762000D03*
X45575500Y-35122000D03*
X45575500Y-34492000D03*
X45575500Y-33852000D03*
X45575500Y-33222000D03*
X45575500Y-32582000D03*
X45575500Y-31952000D03*
X45575500Y-31312000D03*
X45575500Y-30682000D03*
X45575500Y-30042000D03*
X45575500Y-29412000D03*
X45575500Y-28772000D03*
X45575500Y-28142000D03*
X45575500Y-27502000D03*
X45575500Y-26872000D03*
X45575500Y-26232000D03*
X45575500Y-25602000D03*
X45575500Y-24962000D03*
X45575500Y-24332000D03*
X45575500Y-23692000D03*
X45575500Y-23062000D03*
X45575500Y-22422000D03*
X45575500Y-21792000D03*
X45575500Y-21152000D03*
X45575500Y-20522000D03*
X45575500Y-19882000D03*
X45575500Y-19252000D03*
X45575500Y-18612000D03*
X45575500Y-17982000D03*
X45575500Y-17342000D03*
X45575500Y-16712000D03*
X45575500Y-16072000D03*
X45575500Y-15442000D03*
X45575500Y-14802000D03*
X45575500Y-14172000D03*
X45575500Y-13532000D03*
X45575500Y-12902000D03*
X45575500Y-12262000D03*
X45575500Y-11632000D03*
X45575500Y-10992000D03*
D16*
X42575500Y-7182000D03*
X42575500Y-45922000D03*
D17*
X39575500Y-7182000D03*
X39575500Y-45922000D03*
D18*
X39905500Y-49892000D03*
X39905500Y-3212000D03*
D19*
X68250000Y-12000000D03*
D20*
X68500000Y-13000000D03*
X68500000Y-14000000D03*
X68500000Y-15000000D03*
X68500000Y-16000000D03*
X68500000Y-17000000D03*
X68500000Y-18000000D03*
X68500000Y-19000000D03*
X68500000Y-20000000D03*
X68500000Y-21000000D03*
X68500000Y-22000000D03*
X68500000Y-23000000D03*
X68500000Y-24000000D03*
X68500000Y-25000000D03*
X68500000Y-26000000D03*
X68500000Y-27000000D03*
X68500000Y-28000000D03*
X68500000Y-29000000D03*
X68500000Y-30000000D03*
X68500000Y-31000000D03*
X68500000Y-32000000D03*
X68500000Y-33000000D03*
X68500000Y-34000000D03*
X68500000Y-35000000D03*
X68500000Y-36000000D03*
X68500000Y-37000000D03*
X68500000Y-38000000D03*
X68500000Y-39000000D03*
X68500000Y-40000000D03*
D19*
X68250000Y-41000000D03*
M02*
