M48
; DRILL file {KiCad 6.0.11+dfsg-1} date Mon 13 Mar 2023 19:25:11 GMT
; FORMAT={2:4/ absolute / inch / suppress leading zeros}
; #@! TF.CreationDate,2023-03-13T19:25:11+00:00
; #@! TF.GenerationSoftware,Kicad,Pcbnew,6.0.11+dfsg-1
; #@! TF.FileFunction,Plated,1,2,PTH
FMAT,2
INCH,TZ
; #@! TA.AperFunction,Plated,PTH,ViaDrill
T1C0.0157
; #@! TA.AperFunction,Plated,PTH,ComponentDrill
T2C0.0870
%
G90
G05
T1
X16043Y-8957
X16043Y-17028
X16339Y-14075
X16929Y-10433
X16929Y-11398
X16929Y-14075
X16929Y-15748
X18967Y-12805
X19094Y-4328
X19094Y-8268
X19094Y-9547
X19193Y-10335
X19222Y-16762
X19318Y-15328
X19385Y-7613
X19587Y-10630
X19587Y-11909
X19587Y-13484
X19882Y-5315
X19980Y-15453
X20177Y-5610
X20669Y-5118
X20719Y-13484
X20866Y-6004
X20866Y-6496
X20866Y-6988
X20866Y-7480
X20866Y-7972
X20866Y-8465
X20866Y-8957
X20866Y-9449
X20866Y-9941
X20866Y-10630
X21063Y-12205
X21555Y-12205
X21555Y-13484
X21555Y-15551
X21949Y-9154
X22047Y-15157
X22146Y-5709
X22244Y-16142
X22539Y-15551
X22638Y-13976
X22736Y-7480
X23130Y-13484
X23209Y-15502
X23327Y-16437
X23356Y-9380
X23720Y-7750
X23819Y-4921
X24016Y-14862
X24409Y-7480
X24409Y-7972
X24409Y-12303
X24606Y-10630
X24606Y-17323
X24803Y-6004
X25000Y-14360
X25098Y-5610
X25118Y-4921
X25148Y-11506
X25295Y-10335
X25295Y-10925
X25295Y-13386
X25394Y-6890
X25492Y-7776
X25591Y-5610
X25591Y-10039
X25591Y-11220
X25591Y-12303
X25591Y-14665
T2
X16762Y-2828
X16762Y-18080
T0
M30
