G04 #@! TF.GenerationSoftware,KiCad,Pcbnew,6.0.11+dfsg-1*
G04 #@! TF.CreationDate,2023-03-13T19:25:44+00:00*
G04 #@! TF.ProjectId,TP770_IDE,54503737-305f-4494-9445-2e6b69636164,rev?*
G04 #@! TF.SameCoordinates,PX6cb8080PY3197500*
G04 #@! TF.FileFunction,Legend,Bot*
G04 #@! TF.FilePolarity,Positive*
%FSLAX46Y46*%
G04 Gerber Fmt 4.6, Leading zero omitted, Abs format (unit mm)*
G04 Created by KiCad (PCBNEW 6.0.11+dfsg-1) date 2023-03-13 19:25:44*
%MOMM*%
%LPD*%
G01*
G04 APERTURE LIST*
G04 Aperture macros list*
%AMRoundRect*
0 Rectangle with rounded corners*
0 $1 Rounding radius*
0 $2 $3 $4 $5 $6 $7 $8 $9 X,Y pos of 4 corners*
0 Add a 4 corners polygon primitive as box body*
4,1,4,$2,$3,$4,$5,$6,$7,$8,$9,$2,$3,0*
0 Add four circle primitives for the rounded corners*
1,1,$1+$1,$2,$3*
1,1,$1+$1,$4,$5*
1,1,$1+$1,$6,$7*
1,1,$1+$1,$8,$9*
0 Add four rect primitives between the rounded corners*
20,1,$1+$1,$2,$3,$4,$5,0*
20,1,$1+$1,$4,$5,$6,$7,0*
20,1,$1+$1,$6,$7,$8,$9,0*
20,1,$1+$1,$8,$9,$2,$3,0*%
G04 Aperture macros list end*
%ADD10C,0.100000*%
%ADD11RoundRect,0.125000X2.125000X0.125000X-2.125000X0.125000X-2.125000X-0.125000X2.125000X-0.125000X0*%
%ADD12RoundRect,0.125000X2.375000X0.125000X-2.375000X0.125000X-2.375000X-0.125000X2.375000X-0.125000X0*%
G04 APERTURE END LIST*
D10*
X64561904Y-12021428D02*
X64561904Y-11869047D01*
X64600000Y-11792857D01*
X64638095Y-11754761D01*
X64752380Y-11678571D01*
X64904761Y-11640476D01*
X65209523Y-11640476D01*
X65285714Y-11678571D01*
X65323809Y-11716666D01*
X65361904Y-11792857D01*
X65361904Y-11945238D01*
X65323809Y-12021428D01*
X65285714Y-12059523D01*
X65209523Y-12097619D01*
X65019047Y-12097619D01*
X64942857Y-12059523D01*
X64904761Y-12021428D01*
X64866666Y-11945238D01*
X64866666Y-11792857D01*
X64904761Y-11716666D01*
X64942857Y-11678571D01*
X65019047Y-11640476D01*
X64561904Y-12592857D02*
X64561904Y-12669047D01*
X64600000Y-12745238D01*
X64638095Y-12783333D01*
X64714285Y-12821428D01*
X64866666Y-12859523D01*
X65057142Y-12859523D01*
X65209523Y-12821428D01*
X65285714Y-12783333D01*
X65323809Y-12745238D01*
X65361904Y-12669047D01*
X65361904Y-12592857D01*
X65323809Y-12516666D01*
X65285714Y-12478571D01*
X65209523Y-12440476D01*
X65057142Y-12402380D01*
X64866666Y-12402380D01*
X64714285Y-12440476D01*
X64638095Y-12478571D01*
X64600000Y-12516666D01*
X64561904Y-12592857D01*
X64638095Y-40521428D02*
X64600000Y-40559523D01*
X64561904Y-40635714D01*
X64561904Y-40826190D01*
X64600000Y-40902380D01*
X64638095Y-40940476D01*
X64714285Y-40978571D01*
X64790476Y-40978571D01*
X64904761Y-40940476D01*
X65361904Y-40483333D01*
X65361904Y-40978571D01*
%LPC*%
D11*
X68250000Y-40500000D03*
D12*
X68500000Y-39500000D03*
X68500000Y-38500000D03*
X68500000Y-37500000D03*
X68500000Y-36500000D03*
X68500000Y-35500000D03*
X68500000Y-34500000D03*
X68500000Y-33500000D03*
X68500000Y-32500000D03*
X68500000Y-31500000D03*
X68500000Y-30500000D03*
X68500000Y-29500000D03*
X68500000Y-28500000D03*
X68500000Y-27500000D03*
X68500000Y-26500000D03*
X68500000Y-25500000D03*
X68500000Y-24500000D03*
X68500000Y-23500000D03*
X68500000Y-22500000D03*
X68500000Y-21500000D03*
X68500000Y-20500000D03*
X68500000Y-19500000D03*
X68500000Y-18500000D03*
X68500000Y-17500000D03*
X68500000Y-16500000D03*
X68500000Y-15500000D03*
X68500000Y-14500000D03*
X68500000Y-13500000D03*
X68500000Y-12500000D03*
D11*
X68250000Y-11500000D03*
M02*
